<?xml version="1.0" encoding="utf-8"?>
<!-- Generator: Adobe Illustrator 22.0.1, SVG Export Plug-In . SVG Version: 6.00 Build 0)  -->
<svg version="1.1" id="Layer_1" xmlns="http://www.w3.org/2000/svg" xmlns:xlink="http://www.w3.org/1999/xlink" x="0px" y="0px"
	 viewBox="0 0 78 69.7" style="enable-background:new 0 0 78 69.7;" xml:space="preserve">
<g>
	<path d="M21.5,5.3c0.5,0,0.9,0.4,0.9,0.9v32c0,0.5-0.4,0.9-0.9,0.9H8.4c-0.5,0-0.9-0.4-0.9-0.9v-32
		c0-0.5,0.4-0.9,0.9-0.9H21.5 M21.5,3.3H8.4c-1.6,0-2.9,1.3-2.9,2.9v32c0,1.6,1.3,2.9,2.9,2.9h13.1c1.6,0,2.9-1.3,2.9-2.9v-32
		C24.4,4.6,23.1,3.3,21.5,3.3L21.5,3.3z"/>
	<polygon points="19.5,12.9 10.2,12.9 10.2,16.9 19.5,16.9 19.5,12.9 	"/>
	<path d="M69.6,36.2c0.5,0,0.9,0.4,0.9,0.9v29.7h2V37c0-1.6-1.3-2.9-2.9-2.9l0,0H56.5c-1.6,0-2.9,1.3-2.9,2.9v29.7h2V37
		c0-0.5,0.4-0.9,0.9-0.9H69.6"/>
	<polygon points="67.5,43.7 58.2,43.7 58.2,47.8 67.5,47.8 67.5,43.7 	"/>
	<polygon points="19.5,30.6 10.2,30.6 10.2,34.7 19.5,34.7 19.5,30.6 	"/>
	<g>
		<path d="M36.9,50.4L35.8,48c6.7-3.1,10.9-10.2,10.3-17.6l2.6-0.2C49.4,38.7,44.6,46.8,36.9,50.4z"/>
	</g>
	<g>
		<path d="M32.8,42.6l-1.4-2.2c4.1-2.6,6.2-7.5,5.3-12.2l2.6-0.5C40.5,33.5,37.9,39.5,32.8,42.6z"/>
	</g>
</g>
</svg>
