<?xml version="1.0" encoding="utf-8"?>
<!-- Generator: Adobe Illustrator 25.4.1, SVG Export Plug-In . SVG Version: 6.00 Build 0)  -->
<svg version="1.1" id="Layer_1" xmlns="http://www.w3.org/2000/svg" xmlns:xlink="http://www.w3.org/1999/xlink" x="0px" y="0px"
	 viewBox="0 0 45 42.2" style="enable-background:new 0 0 45 42.2;" xml:space="preserve">
<g>
	<path d="M18.9,16.5C18.9,16.4,18.9,16.5,18.9,16.5 M24.9,12.8c6.1,0.3,13.5,1.5,13.5,8.9c0,2.9-3,7.8-11,8.3
		c-4.2,0.3-5.3-0.5-5.6-4.4v-8.9C22.4,12.7,23.2,12.7,24.9,12.8z M19.2,16.5l0,9.4c0.5,5.3,2.7,7.1,8.3,6.7C37.3,32,41,25.6,41,21.7
		c0-7.2-5.2-11-15.4-11.5C20.9,10,19.8,12.3,19.2,16.5z"/>
	<path d="M15.6,11.1L5,13.9c-0.7,0.2-1.1,0.9-0.9,1.6c0.2,0.7,0.9,1.1,1.6,0.9l10.7-2.8c0.7-0.2,1.1-0.9,0.9-1.6
		C17,11.4,16.3,10.9,15.6,11.1"/>
	<path d="M15.6,17.2L4.9,20c-0.7,0.2-1.1,0.9-0.9,1.6c0.2,0.7,0.9,1.1,1.6,0.9l10.7-2.8c0.7-0.2,1.1-0.9,0.9-1.6
		C17,17.4,16.3,17,15.6,17.2"/>
	<path d="M15.6,22.9L4.9,25.7c-0.7,0.2-1.1,0.9-0.9,1.6c0.2,0.7,0.9,1.1,1.6,0.9l10.7-2.8c0.7-0.2,1.1-0.9,0.9-1.6
		C17,23.1,16.3,22.7,15.6,22.9"/>
	<path d="M15.6,28.6L5,31.4c-0.7,0.2-1.1,0.9-0.9,1.6c0.2,0.7,0.9,1.1,1.6,0.9l10.7-2.8c0.7-0.2,1.1-0.9,0.9-1.6
		C17,28.8,16.3,28.4,15.6,28.6"/>
	<polyline points="9.4,9.8 13.3,9.3 14.6,6.2 17.1,6.6 16,0.9 9.5,2.4 11.8,4 9.4,9.8 	"/>
	<polyline points="9.7,35.6 14.3,33.6 15.5,36.4 17.7,35.8 15.6,41.3 9.2,39.7 11.1,38.6 9.7,35.6 	"/>
</g>
</svg>
