<?xml version="1.0" encoding="utf-8"?>
<!-- Generator: Adobe Illustrator 22.0.1, SVG Export Plug-In . SVG Version: 6.00 Build 0)  -->
<svg version="1.1" id="Layer_1" xmlns="http://www.w3.org/2000/svg" xmlns:xlink="http://www.w3.org/1999/xlink" x="0px" y="0px"
	 viewBox="0 0 249 338" style="enable-background:new 0 0 249 338;" xml:space="preserve">
<path d="M243.3,126.2C243.3,60.4,190,7,124.2,7S5,60.4,5,126.2c0,40.2,19.9,75.8,50.5,97.4l11.9-17.3
	C55.8,198,46,187.3,39,174.9c-8.5-14.8-13-31.6-13-48.8C26,72,70,28,124.2,28s98.2,44,98.2,98.2c0,19.4-5.5,37.9-16.1,53.9
	l-14.5-9.2l-2.4,56l49.7-26l-15.1-9.6C236.2,172.6,243.3,150.2,243.3,126.2z"/>
<path d="M175.7,234.2v17.3h-29.3v16.6h28.2v16h-28.2v41.7h-20.6v-91.7L175.7,234.2L175.7,234.2z"/>
<path d="M240.7,234.2v17.3h-29.3v16.6h28.2v16h-28.2v41.7h-20.6v-91.7L240.7,234.2L240.7,234.2z"/>
<path d="M66.8,248.8c17.2,0,31.2,14,31.2,31.2s-14,31.2-31.2,31.2s-31.2-14-31.2-31.2S49.6,248.8,66.8,248.8
	 M66.8,231.8c-26.6,0-48.2,21.6-48.2,48.2s21.6,48.2,48.2,48.2S115,306.6,115,280S93.4,231.8,66.8,231.8L66.8,231.8z"/>
<path d="M124.2,51.5L70.6,177.2h21.2l13.6-34.2h34l13.6,34.2h24.7L124.2,51.5z M112,126.5l10.4-26.2l10.4,26.2H112z"/>
</svg>
