<?xml version="1.0" encoding="utf-8"?>
<!-- Generator: Adobe Illustrator 22.0.0, SVG Export Plug-In . SVG Version: 6.00 Build 0)  -->
<svg version="1.1" id="Layer_1" xmlns="http://www.w3.org/2000/svg" xmlns:xlink="http://www.w3.org/1999/xlink" x="0px" y="0px"
	 viewBox="0 0 78 47.7" style="enable-background:new 0 0 78 47.7;" xml:space="preserve">
<path d="M48.7,26.2h-29V13H40l1.7,2.6l0.6,0.8l1-0.2l17.2-4.3L48.7,26.2 M4.9,10.7L6.3,5l10.5,4.3v5.6L4.9,10.7z
	 M73.4,9.7l1.3-2.6L72.5,6L72,5.8l-0.5,0.2L64,8.1c0,0-16.2,4-20.4,5.1L42,10.8l-0.4-0.6H31.5V5.5h5V2.6H24.7v2.9h3.9v4.6h-8.9V7.4
	L18.8,7L5.9,1.7L4.3,1L3.9,2.6l-2.1,8.6l-0.3,1.3l1.2,0.4l14.1,5v11.2H50l0.4-0.5l14.8-17.9l6.5-1.9L73.4,9.7z"/>
<path d="M74,14.8c-0.3-0.4,0.7,3.5,2.1,5.4c0.9,1.8,0.7,5-2.1,5.4c-3.7-0.3-4-3.6-3.2-5.4c1.6-1.9,2.6-5.8,2.1-5.4
	c0.5-0.4,0.5-0.6,1.1-1.1C73.7,14.3,73.7,14.4,74,14.8"/>
<g>
	<path d="M56.2,46.2c-0.9,0-1.8-0.2-2.6-0.6c-1.7-0.8-3-2.4-3.4-4.2l0-0.1c-0.8-1.6-2.7-2.2-4.3-1.4
		c-0.7,0.3-1.3,0.9-1.5,1.7v0.3l-0.1,0.3c-0.6,1.6-1.7,2.8-3.2,3.5c-1.5,0.7-3.2,0.7-4.7,0.2c-1.9-0.7-3.4-2.3-3.9-4.3l0-0.1
		c-0.4-0.7-1-1.3-1.8-1.6c-0.8-0.3-1.7-0.2-2.4,0.2c-0.8,0.4-1.4,1.1-1.6,1.9l-0.3,0.8c-0.7,1.5-2,2.6-3.5,3.2
		c-1.6,0.6-3.2,0.5-4.7-0.2c-1.7-0.8-2.9-2.3-3.4-4.2l0-0.1c-0.8-1.6-2.7-2.2-4.3-1.4c-0.8,0.4-1.4,1.1-1.7,2l-2.9-0.8
		c0.5-1.7,1.6-3.2,3.2-3.9c3.1-1.5,6.8-0.3,8.3,2.8l0.2,0.6c0.2,1,0.9,1.8,1.8,2.2c0.8,0.4,1.6,0.4,2.4,0.1c0.8-0.3,1.4-0.8,1.8-1.6
		l0.2-0.5c0.5-1.6,1.6-3,3.2-3.7c1.5-0.7,3.2-0.9,4.7-0.3c1.6,0.5,2.8,1.6,3.6,3.1l0.2,0.6c0.2,1.1,1,1.9,2,2.3
		c0.8,0.3,1.7,0.3,2.4-0.1c0.7-0.3,1.3-0.9,1.6-1.6v-0.2l0.1-0.2c0.5-1.6,1.7-2.9,3.1-3.6c3.1-1.5,6.8-0.2,8.3,2.8l0.2,0.6
		c0.2,1,0.9,1.8,1.8,2.3c0.8,0.4,1.6,0.4,2.4,0.1c0.8-0.3,1.4-0.8,1.8-1.6l0.2-0.5c0.5-1.6,1.6-3,3.2-3.7c1.5-0.7,3.2-0.9,4.7-0.3
		c1.6,0.5,2.8,1.6,3.6,3.1l0.1,0.3l-2.7,1.3L68,41.3c-0.4-0.7-1-1.3-1.8-1.6c-0.8-0.3-1.7-0.2-2.4,0.2c-0.8,0.4-1.4,1.1-1.6,1.9
		l-0.3,0.8c-0.7,1.5-2,2.6-3.5,3.2C57.6,46.1,56.9,46.2,56.2,46.2z"/>
</g>
</svg>
