<?xml version="1.0" encoding="utf-8"?>
<!-- Generator: Adobe Illustrator 22.0.1, SVG Export Plug-In . SVG Version: 6.00 Build 0)  -->
<svg version="1.1" id="Layer_1" xmlns="http://www.w3.org/2000/svg" xmlns:xlink="http://www.w3.org/1999/xlink" x="0px" y="0px"
	 viewBox="0 0 38.3 12" style="enable-background:new 0 0 38.3 12;" xml:space="preserve">
<g>
	<path d="M6.2,1.4c0.6,0,1.1,0.1,1.5,0.3s0.7,0.4,1,0.7c0.3,0.3,0.4,0.6,0.6,0.9C9.3,3.6,9.4,4,9.4,4.4
		c0,0.4-0.1,0.7-0.2,1.1C9.1,5.8,8.9,6.1,8.6,6.4c-0.3,0.3-0.6,0.5-1,0.7C7.3,7.2,6.8,7.3,6.2,7.3H4.1v3.3H2V1.4H6.2z M5.6,5.7
		c0.2,0,0.5,0,0.7-0.1c0.2,0,0.4-0.1,0.6-0.2C7,5.4,7.2,5.2,7.3,5.1c0.1-0.2,0.1-0.4,0.1-0.7c0-0.3,0-0.5-0.1-0.7S7,3.3,6.9,3.2
		C6.7,3.1,6.5,3.1,6.3,3C6.1,3,5.9,3,5.6,3H4.1v2.8H5.6z"/>
	<path d="M14.3,1.4l3.4,9.2h-2.1l-0.7-2h-3.4l-0.7,2h-2l3.5-9.2H14.3z M14.4,7l-1.2-3.4h0L12,7H14.4z"/>
	<path d="M23.5,1.4c0.4,0,0.8,0.1,1.1,0.2c0.3,0.1,0.6,0.3,0.8,0.5S25.8,2.6,26,3c0.1,0.3,0.2,0.6,0.2,1
		c0,0.5-0.1,1-0.3,1.4c-0.2,0.4-0.6,0.7-1.1,0.9v0c0.2,0.1,0.5,0.2,0.6,0.3c0.2,0.1,0.3,0.3,0.4,0.5c0.1,0.2,0.2,0.4,0.2,0.6
		C26,8,26,8.2,26,8.4c0,0.1,0,0.3,0,0.5c0,0.2,0,0.4,0,0.6c0,0.2,0.1,0.4,0.1,0.6c0,0.2,0.1,0.3,0.2,0.5h-2c-0.1-0.3-0.2-0.6-0.2-1
		c0-0.4-0.1-0.8-0.1-1.2c-0.1-0.5-0.2-0.8-0.4-1.1C23.4,7.1,23.1,7,22.5,7h-2v3.6h-2V1.4H23.5z M22.7,5.6c0.5,0,0.8-0.1,1-0.3
		c0.2-0.2,0.3-0.5,0.3-1c0-0.4-0.1-0.8-0.3-1c-0.2-0.2-0.6-0.3-1-0.3h-2.2v2.6H22.7z"/>
	<path d="M29.8,1.4v3.8l3.6-3.8h2.5L32.4,5l3.9,5.6h-2.5L31,6.5l-1.2,1.2v3h-2V1.4H29.8z"/>
</g>
</svg>
