<?xml version="1.0" encoding="utf-8"?>
<!-- Generator: Adobe Illustrator 22.0.0, SVG Export Plug-In . SVG Version: 6.00 Build 0)  -->
<svg version="1.1" id="Layer_1" xmlns="http://www.w3.org/2000/svg" xmlns:xlink="http://www.w3.org/1999/xlink" x="0px" y="0px"
	 viewBox="0 0 72 54.5" style="enable-background:new 0 0 72 54.5;" xml:space="preserve">
<path d="M27.5,1.8c-14,0-25.4,11.4-25.4,25.4s11.4,25.4,25.4,25.4s25.4-11.4,25.4-25.4l0,0C52.9,13.2,41.5,1.8,27.5,1.8
	z M27.5,4c12.7-0.1,23.1,10.1,23.2,22.9c0,1.3-0.1,2.7-0.3,4l-15-4.9c-0.3-4.4-4-7.7-8.4-7.4c-4,0.2-7.2,3.4-7.4,7.4l-15,4.9
	C2.4,18.4,10.9,6.5,23.4,4.3C24.8,4.1,26.1,4,27.5,4z M27.5,50.5c-7.9,0-15.3-4.1-19.6-10.8l16.1-6c2.2,1.1,4.8,1.1,7,0l16.1,6
	C42.8,46.4,35.4,50.5,27.5,50.5z"/>
<circle cx="65.6" cy="47.6" r="4.4"/>
<path d="M68.8,36c0,1.8-1.4,3.3-3.2,3.3c0,0,0,0,0,0l0,0c-1.8,0-3.3-1.5-3.3-3.3V6.6c0-1.8,1.4-3.3,3.2-3.3c0,0,0,0,0,0
	l0,0c1.8,0,3.3,1.5,3.3,3.3V36z"/>
</svg>
