<?xml version="1.0" encoding="utf-8"?>
<!-- Generator: Adobe Illustrator 22.0.1, SVG Export Plug-In . SVG Version: 6.00 Build 0)  -->
<svg version="1.1" id="Layer_1" xmlns="http://www.w3.org/2000/svg" xmlns:xlink="http://www.w3.org/1999/xlink" x="0px" y="0px"
	 viewBox="0 0 38.3 12" style="enable-background:new 0 0 38.3 12;" xml:space="preserve">
<g>
	<path d="M11.2,1.4c0.4,0,0.8,0.1,1.1,0.2c0.3,0.1,0.6,0.3,0.9,0.6c0.2,0.2,0.4,0.5,0.5,0.8c0.1,0.3,0.2,0.6,0.2,1
		c0,0.5-0.1,1-0.3,1.4c-0.2,0.4-0.6,0.7-1.1,0.9v0c0.3,0.1,0.5,0.2,0.6,0.3c0.2,0.1,0.3,0.3,0.4,0.5c0.1,0.2,0.2,0.4,0.2,0.6
		c0,0.2,0.1,0.5,0.1,0.7c0,0.1,0,0.3,0,0.5c0,0.2,0,0.4,0,0.6c0,0.2,0.1,0.4,0.1,0.6s0.1,0.3,0.2,0.5h-2c-0.1-0.3-0.2-0.6-0.2-1.1
		c0-0.4-0.1-0.8-0.1-1.2c-0.1-0.5-0.2-0.8-0.4-1.1C11.1,7.1,10.7,7,10.2,7h-2v3.6h-2V1.4H11.2z M10.4,5.6c0.5,0,0.8-0.1,1.1-0.3
		c0.2-0.2,0.4-0.5,0.4-1c0-0.4-0.1-0.8-0.4-1C11.2,3.1,10.9,3,10.4,3H8.2v2.6H10.4z"/>
	<path d="M20.1,1.4l3.5,9.3h-2.1l-0.7-2.1h-3.5l-0.7,2.1h-2.1l3.5-9.3H20.1z M20.3,7.1l-1.2-3.4h0l-1.2,3.4H20.3z"/>
	<path d="M28.8,1.4c0.4,0,0.8,0,1.2,0.1c0.4,0.1,0.7,0.2,0.9,0.4c0.3,0.2,0.5,0.4,0.6,0.7c0.1,0.3,0.2,0.7,0.2,1.1
		c0,0.5-0.1,0.9-0.3,1.2c-0.2,0.3-0.5,0.6-0.9,0.8c0.6,0.2,1,0.5,1.3,0.9c0.3,0.4,0.4,0.9,0.4,1.5c0,0.5-0.1,0.9-0.3,1.2
		c-0.2,0.3-0.4,0.6-0.7,0.8c-0.3,0.2-0.7,0.4-1.1,0.5c-0.4,0.1-0.8,0.2-1.2,0.2h-4.5V1.4H28.8z M28.5,5.1c0.4,0,0.7-0.1,0.9-0.3
		c0.2-0.2,0.4-0.5,0.4-0.8c0-0.2,0-0.4-0.1-0.5c-0.1-0.1-0.2-0.2-0.3-0.3C29.2,3.1,29.1,3,28.9,3c-0.2,0-0.3,0-0.5,0h-1.9v2.2H28.5z
		 M28.6,9C28.8,9,29,9,29.2,9s0.3-0.1,0.5-0.2c0.1-0.1,0.2-0.2,0.3-0.4s0.1-0.4,0.1-0.6c0-0.5-0.1-0.8-0.4-1
		c-0.3-0.2-0.6-0.3-1.1-0.3h-2.2V9H28.6z"/>
</g>
</svg>
