<?xml version="1.0" encoding="utf-8"?>
<!-- Generator: Adobe Illustrator 22.0.1, SVG Export Plug-In . SVG Version: 6.00 Build 0)  -->
<svg version="1.1" id="Layer_1" xmlns="http://www.w3.org/2000/svg" xmlns:xlink="http://www.w3.org/1999/xlink" x="0px" y="0px"
	 viewBox="0 0 116 35" style="enable-background:new 0 0 116 35;" xml:space="preserve">
<polygon points="63.2,29.6 71.1,8.8 73.1,8.8 65.1,29.6 "/>
<path d="M104.6,14.3c1.7,0,3.1-1.4,3.1-3.1c0-1.7-1.4-3.1-3.1-3.1c-1.7,0-3.1,1.4-3.1,3.1
	C101.5,12.9,102.9,14.3,104.6,14.3"/>
<path d="M102.8,24.4l-3.4-4.5l2.5-4c0.5-0.6,1.2-1,2.1-1c1.5,0,2.7,1.2,2.7,2.7c0,0.4-0.1,0.9-0.3,1.2L102.8,24.4"/>
<polygon points="104.6,29.2 103,30.1 96.8,21.6 98.5,20.6 "/>
<path d="M95.6,21.7l-3.6-0.9c-0.1,0-0.2,0-0.3,0c-0.6,0-1.1,0.2-1.4,0.6l-5.9,8.1c-0.2,0.3-0.4,0.7-0.4,1.1
	c0,1,0.8,1.8,1.8,1.8c0.6,0,1.1-0.3,1.4-0.7l3.9-5.6c0.3-0.4,0.9-0.7,1.4-0.7c0.1,0,0.2,0,0.4,0l4.5,1.7c0.7,0.3,1.4,0.2,2.1-0.1
	L95.6,21.7"/>
<polygon points="111.8,14.2 107.5,16.9 106.7,15.1 111,12.4 "/>
<path d="M106.9,23.9c0-3.4,2.5-3.6,3.4-3.6c2,0,3.5,1.2,3.5,3.3c0,1.8-1.1,2.7-2.2,3.4c-1.4,1-2.1,1.4-2.3,1.9h4.5v1.8
	h-7c0.1-1.2,0.2-2.5,2.4-4.1c1.9-1.3,2.6-1.9,2.6-3c0-0.7-0.4-1.5-1.4-1.5c-1.4,0-1.5,1.2-1.5,1.9H106.9z"/>
<path d="M95.8,11.5c0-1.6-0.6-3-1.6-4.1l2.7-2.7l-0.4-0.4l-2.7,2.7c-1.1-1-2.5-1.6-4.1-1.6c-1.6,0-3,0.6-4.1,1.6
	l-2.7-2.7l-0.4,0.4l2.7,2.7c-1,1.1-1.6,2.5-1.6,4.1c0,1.6,0.6,3,1.6,4.1l-2.7,2.7l0.4,0.4l2.7-2.7c1.1,1,2.5,1.6,4.1,1.6
	c1.6,0,3-0.6,4.1-1.6l2.7,2.7l0.4-0.4l-2.7-2.7C95.2,14.5,95.8,13.1,95.8,11.5z M95.3,11.5c0,1.4-0.6,2.7-1.5,3.7l-3.7-3.7l3.7-3.7
	C94.7,8.8,95.3,10.1,95.3,11.5z M89.7,6c1.4,0,2.7,0.6,3.7,1.5l-3.7,3.7L86,7.4C87,6.5,88.3,6,89.7,6z M84.2,11.5
	c0-1.4,0.6-2.7,1.5-3.7l3.7,3.7l-3.7,3.7C84.8,14.2,84.2,12.9,84.2,11.5z M89.7,17c-1.4,0-2.7-0.6-3.7-1.5l3.7-3.7l3.7,3.7
	C92.5,16.5,91.2,17,89.7,17z"/>
<path d="M14.6,13.4c-3.4,0-5.2,3.1-5.2,6.5c0,3.4,1.9,6.3,5.1,6.3c3.3,0,5.1-2.9,5.1-6.5C19.7,16.6,18.1,13.4,14.6,13.4
	 M2.3,32.9h51.2V5.4H2.3V32.9z M14.5,27.9c-4.3,0-7.2-3.2-7.2-7.9c0-5,3.1-8.2,7.4-8.2c4.4,0,7.2,3.3,7.2,7.9
	C21.9,25,18.6,27.9,14.5,27.9 M35.6,13.8h-8.4V19H35v1.7h-7.8v7.1h-2.7V12.1h11.1V13.8z M49.3,13.8h-8.4V19h7.8v1.7h-7.8v7.1h-2.7
	V12.1h11.1V13.8z"/>
</svg>
