<?xml version="1.0" encoding="utf-8"?>
<!-- Generator: Adobe Illustrator 22.0.1, SVG Export Plug-In . SVG Version: 6.00 Build 0)  -->
<svg version="1.1" id="Layer_1" xmlns="http://www.w3.org/2000/svg" xmlns:xlink="http://www.w3.org/1999/xlink" x="0px" y="0px"
	 viewBox="0 0 116 35" style="enable-background:new 0 0 116 35;" xml:space="preserve">
<g>
	<path d="M102.3,11.7c1.9,0,3.5-1.6,3.5-3.5c0-1.9-1.6-3.5-3.5-3.5c-1.9,0-3.5,1.6-3.5,3.5
		C98.8,10.1,100.4,11.7,102.3,11.7"/>
	<path d="M100.3,23.2l-3.9-5.1l2.8-4.6c0.6-0.7,1.4-1.1,2.3-1.1c1.7,0,3.1,1.4,3.1,3.1c0,0.5-0.1,1-0.3,1.4L100.3,23.2"
		/>
	<polygon points="102.3,28.5 100.6,29.7 93.5,20 95.5,18.9 	"/>
	<path d="M92.2,20.1l-4.1-1.1c-0.1,0-0.2,0-0.3,0c-0.6,0-1.2,0.3-1.6,0.7l-6.7,9.2c-0.3,0.4-0.4,0.8-0.4,1.3
		c0,1.2,0.9,2.1,2.1,2.1c0.6,0,1.2-0.3,1.6-0.8l4.5-6.4c0.4-0.5,1-0.8,1.6-0.8c0.1,0,0.3,0,0.4,0l5.1,2c0.8,0.3,1.6,0.2,2.3-0.2
		L92.2,20.1"/>
	<path d="M89,15.7c3.6,0,6.6-2.9,6.6-6.6c0-3.6-2.9-6.6-6.6-6.6c-3.6,0-6.6,2.9-6.6,6.6C82.4,12.8,85.3,15.7,89,15.7"/>
	<polygon points="110.6,11.5 105.7,14.6 104.8,12.6 109.6,9.6 	"/>
	<path d="M105,22.6c0-3.8,2.8-4.1,3.8-4.1c2.2,0,4,1.3,4,3.7c0,2-1.3,3-2.4,3.8c-1.5,1.1-2.4,1.6-2.6,2.2h5.1v2h-8
		c0.1-1.4,0.2-2.8,2.7-4.6c2.1-1.5,2.9-2.1,2.9-3.4c0-0.8-0.5-1.7-1.6-1.7c-1.6,0-1.7,1.3-1.7,2.2H105z"/>
	<path d="M15,4.2c3.3,0,11.9,1.5,11.9,14.1c0,12.6-8.6,14.1-11.9,14.1c-3.3,0-11.9-1.5-11.9-14.1
		C3.2,5.7,11.8,4.2,15,4.2 M15,27.6c2.8,0,6.7-1.9,6.7-9.4c0-7.5-3.9-9.4-6.7-9.4c-2.8,0-6.7,1.9-6.7,9.4
		C8.3,25.8,12.3,27.6,15,27.6"/>
	<polygon points="46.8,4.7 51.7,4.7 51.7,31.5 46.5,31.5 36.4,12.4 36.4,12.4 36.4,31.5 31.6,31.5 31.6,4.7 37,4.7 
		46.8,23.4 46.8,23.4 	"/>
	<polygon points="59.7,29.1 68.7,5.5 71,5.5 61.9,29.1 	"/>
</g>
</svg>
