<?xml version="1.0" encoding="utf-8"?>
<!-- Generator: Adobe Illustrator 21.1.0, SVG Export Plug-In . SVG Version: 6.00 Build 0)  -->
<svg version="1.1" id="Layer_1" xmlns="http://www.w3.org/2000/svg" xmlns:xlink="http://www.w3.org/1999/xlink" x="0px" y="0px"
	 viewBox="0 0 45 42.2" style="enable-background:new 0 0 45 42.2;" xml:space="preserve">
<circle cx="22.4" cy="26.5" r="1.7"/>
<path d="M21.8,6H23c0.5,0,0.8,0.4,0.8,0.8v14.8c0,0.5-0.4,0.8-0.8,0.8h-1.2c-0.5,0-0.8-0.4-0.8-0.8V6.8
	C20.9,6.4,21.3,6,21.8,6z"/>
<path d="M42.5,20.5c-0.2-4.4-2.4-8.5-5.8-11.4l-1-0.9c0,0-0.1-0.1-0.1-0.2V4.5h-4V8c0,1.3,0.5,2.5,1.5,3.3l1,0.9
	c2.6,2.2,4.2,5.3,4.4,8.5c0.2,3.3-1,6.3-3.6,8.9l-2.1,2.2c-0.2,0.2-0.3,0.4-0.5,0.6H12.7c-0.1-0.2-0.3-0.4-0.5-0.6L10,29.6
	C7.5,27,6.3,24,6.5,20.7s1.8-6.4,4.4-8.5l1-0.9c1-0.8,1.5-2,1.5-3.3V4.5h-4V8c0,0.1,0,0.1-0.1,0.2l-1,0.9c-3.4,2.9-5.6,7-5.8,11.4
	C2.2,24.9,3.9,29,7.2,32.4l2.2,2.3v3h4v-2.3h1.9v2.3h3v-2.3h2.6v2.3h3v-2.3h2.4v2.3h3v-2.3h2.3v2.3h4v-3.1l2.1-2.2
	C41.1,29,42.8,24.9,42.5,20.5z"/>
</svg>
