<?xml version="1.0" encoding="utf-8"?>
<!-- Generator: Adobe Illustrator 21.1.0, SVG Export Plug-In . SVG Version: 6.00 Build 0)  -->
<svg version="1.1" id="Layer_1" xmlns="http://www.w3.org/2000/svg" xmlns:xlink="http://www.w3.org/1999/xlink" x="0px" y="0px"
	 viewBox="0 0 38 48.8" style="enable-background:new 0 0 38 48.8;" xml:space="preserve">
<path d="M8.4,30c0,0,10,3.8-1.7,5.8c-13.9,2.3-1.8,8.5-1.8,8.5h5.4c0,0-10.7-6.6,1.1-7.8s0.3-6.5,0.3-6.5H8.4z"/>
<path d="M29.7,30c0,0,10,3.8-1.7,5.8c-13.9,2.3-1.8,8.5-1.8,8.5h5.4c0,0-10.7-6.6,1.1-7.8S33,30,33,30H29.7z"/>
<path d="M37.1,12.2l-1.6-0.5c-0.1,0-0.3-0.1-0.3-0.2l-4.8-6.8c-0.1-0.2-0.3-0.3-0.5-0.3H11.5c-0.2,0-0.4,0.1-0.5,0.3
	l-4.8,6.8c-0.1,0.1-0.2,0.2-0.3,0.2l-1.6,0.5c-0.3,0.1-0.5,0.3-0.5,0.6v1.4c0,0.3,0.2,0.6,0.6,0.6c0.3,0,0.6,0.3,0.6,0.6v7.5
	c0,0.3,0.3,0.6,0.6,0.6h1.7v3.2c0,0.8,0.7,1.5,1.5,1.5h1.7c0.8,0,1.5-0.7,1.5-1.5v-3.2h17.3v3.4c0,0.7,0.6,1.3,1.3,1.3h2.5
	c0.7,0,1.3-0.6,1.3-1.3v-3.4h1.2c0.3,0,0.6-0.3,0.6-0.6v-7.5c0-0.3,0.2-0.6,0.6-0.6c0.3,0,0.6-0.3,0.6-0.6v-1.4
	C37.5,12.5,37.3,12.3,37.1,12.2z M32.1,14c-0.2,0.1-0.4,0.2-0.6,0.2H9.9c-0.6,0-1.1-0.5-1.1-1.1c0-0.2,0.1-0.4,0.2-0.6l3.2-4.9
	c0.2-0.3,0.6-0.5,0.9-0.5h15.1c0.4,0,0.7,0.2,0.9,0.5l3.3,4.9C32.8,13,32.6,13.7,32.1,14z"/>
</svg>
