<?xml version="1.0" encoding="utf-8"?>
<!-- Generator: Adobe Illustrator 21.1.0, SVG Export Plug-In . SVG Version: 6.00 Build 0)  -->
<svg version="1.1" id="Layer_1" xmlns="http://www.w3.org/2000/svg" xmlns:xlink="http://www.w3.org/1999/xlink" x="0px" y="0px"
	 viewBox="0 0 38 42.5" style="enable-background:new 0 0 38 42.5;" xml:space="preserve">
<g>
	<path d="M20.1,37.7l-2-0.1v-2.9H20v3H20.1z M20.1,32.9h-2v-4H20v4H20.1z M20.1,26.9h-2v-4H20v4H20.1z M20.1,20.9h-2v-4
		H20v4H20.1z M20.1,14.9l-2-0.1v-2.1c0-0.6-0.1-1.1-0.2-1.6l0,0l1.9-0.5l0,0c0.2,0.7,0.3,1.4,0.3,2.1C20.1,12.7,20.1,14.9,20.1,14.9
		z M7.3,12.3h-2c0-1.7,0.5-3.2,1.5-4.3l0,0l1.5,1.3l0,0C7.6,10,7.3,11.1,7.3,12.3L7.3,12.3z M17.2,9.7L17.2,9.7
		c-0.6-0.9-1.6-1.6-2.7-2l0,0l0.6-1.9l0,0c1.6,0.5,2.8,1.5,3.7,2.7l0,0L17.2,9.7z M9.6,8.3L8.5,6.5h0.1c1.2-0.7,2.6-1.1,4-1.1
		c0.1,0,0.3,0,0.4,0l0,0l-0.1,2l0,0c-1.2-0.1-2.3,0.2-3.3,0.8C9.6,8.2,9.6,8.3,9.6,8.3z"/>
</g>
<g>
	<path d="M33.2,12.1l-2-0.1c0-1.2-0.3-2.3-1-3.1l0,0l1.6-1.2l0,0C32.7,8.9,33.2,10.4,33.2,12.1L33.2,12.1z M21.6,9.4
		l-1.8-1l0,0c0.8-1.4,2-2.4,3.5-3l0,0L24,7.3h-0.1C23,7.7,22.2,8.4,21.6,9.4L21.6,9.4z M29,7.8L29,7.8c-0.9-0.6-2-0.9-3.1-0.9
		c-0.1,0-0.1,0-0.2,0l0,0l-0.1-2l0,0c0.1,0,0.2,0,0.3,0c1.5,0,2.9,0.4,4.1,1.2l0,0L29,7.8z"/>
</g>
<g>
	<path d="M0,20.2l8.3,13.7h21l8.8-13.4C16.9,8.2,0,20.2,0,20.2z M28.2,23.9c-1.6,0-1.7,3.6-3.1,3.6s-1.3-3.8-2.8-3.8
		s-2,3.8-3.1,3.8s-1.4-3.9-3.2-3.9s-1.2,3.9-2.8,3.9s-1.6-3.4-2.9-3.4s-2.6,3.4-2.6,3.4l-4.2-6.6c16.9-9.5,31.3,0.3,31.3,0.3
		L30,27.5C29.9,27.5,29.8,23.9,28.2,23.9z"/>
</g>
</svg>
