<?xml version="1.0" encoding="utf-8"?>
<!-- Generator: Adobe Illustrator 28.1.0, SVG Export Plug-In . SVG Version: 6.00 Build 0)  -->
<svg version="1.1" id="Layer_2_00000165937282626494407380000005623074495551611556_"
	 xmlns="http://www.w3.org/2000/svg" xmlns:xlink="http://www.w3.org/1999/xlink" x="0px" y="0px" viewBox="0 0 297 297"
	 style="enable-background:new 0 0 297 297;" xml:space="preserve">
<style type="text/css">
	.st0{fill:#F6F7F8;}
	.st1{fill:url(#Rectangle_3404-2_00000059272940204499401130000007702150235891419293_);}
	.st2{fill:url(#Ellipse_489_00000018219988264792115320000009218662654205464983_);}
</style>
<g id="Layer_1-2">
	
	<path id="Rectangle_3403-2" class="st0" d="M148.6,25L148.6,25c68.5,0,124,55.5,124,124l0,0c0,68.5-55.5,124-124,124l0,0
		c-68.5,0-124-55.5-124-124l0,0C24.6,80.5,80.1,25,148.6,25L148.6,25z"/>
		
		<linearGradient id="Rectangle_3404-2_00000093159170876273791270000016602834184387007923_" gradientUnits="userSpaceOnUse" x1="-1121.2595" y1="19.4871" x2="-1120.7396" y2="19.9071" gradientTransform="matrix(248 0 0 248 278119.625 -4765.6782)">
		<stop  offset="0" style="stop-color:#F6F4F4"/>
		<stop  offset="1" style="stop-color:#D5D5D5"/>
	</linearGradient>
	<path id="Rectangle_3404-2" style="fill:url(#Rectangle_3404-2_00000093159170876273791270000016602834184387007923_);" d="
		M148.6,25L148.6,25c68.5,0,124,55.5,124,124l0,0c0,68.5-55.5,124-124,124l0,0c-68.5,0-124-55.5-124-124l0,0
		C24.6,80.5,80.1,25,148.6,25L148.6,25z"/>
	
		<linearGradient id="Ellipse_489_00000162333605862915171230000002339724611026556336_" gradientUnits="userSpaceOnUse" x1="-1120.9775" y1="19.742" x2="-1119.4875" y2="21.002" gradientTransform="matrix(232 0 0 232 260062.5156 -4560.4409)">
		<stop  offset="0" style="stop-color:#EFF5FD"/>
		<stop  offset="0.47" style="stop-color:#EEEEEE"/>
		<stop  offset="1" style="stop-color:#CCCCCC"/>
	</linearGradient>
	
		<circle id="Ellipse_489" style="fill:url(#Ellipse_489_00000162333605862915171230000002339724611026556336_);" cx="148.6" cy="149" r="116"/>
</g>
</svg>
