<?xml version="1.0" encoding="utf-8"?>
<!-- Generator: Adobe Illustrator 28.0.0, SVG Export Plug-In . SVG Version: 6.00 Build 0)  -->
<svg version="1.1" id="Layer_1" xmlns="http://www.w3.org/2000/svg" xmlns:xlink="http://www.w3.org/1999/xlink" x="0px" y="0px"
	 viewBox="0 0 24 24" style="enable-background:new 0 0 24 24;" xml:space="preserve">
<path d="M16.1411133,12.5684814c-0.0834961-0.0744019-0.1824341-0.137085-0.2966309-0.1881104
	c-0.1140747-0.0508423-0.239502-0.0916748-0.3759766-0.1222534l-0.281311-0.0671997
	c-0.0682983-0.0153198-0.1325073-0.0336914-0.1925659-0.0551147c-0.0602417-0.0223999-0.1132202-0.0484009-0.1590576-0.0778809
	c-0.0458984-0.0306396-0.0820923-0.0668335-0.1085815-0.1086426c-0.0253906-0.0418091-0.0371704-0.0906982-0.0350952-0.1466675
	c0-0.0673218,0.0192871-0.1274414,0.0581055-0.1804199c0.0396729-0.0529785,0.0968018-0.0942993,0.1712036-0.1239014
	c0.0744019-0.0305176,0.1655884-0.0457764,0.2736206-0.0457764c0.1589966,0,0.2848511,0.0340576,0.3775635,0.102356
	c0.0928345,0.0683594,0.1453247,0.1641235,0.1575317,0.2874146h0.6343994
	c-0.0029907-0.1864624-0.0530396-0.3505859-0.1498413-0.4921875c-0.0968018-0.1417236-0.2323608-0.2523193-0.4065552-0.3317871
	c-0.1733398-0.0795288-0.3760986-0.1192017-0.6085205-0.1192017c-0.2282715,0-0.4321289,0.0396729-0.6115112,0.1192017
	c-0.1792603,0.0794678-0.3204956,0.1900635-0.4234009,0.3317871c-0.1019897,0.1416016-0.1524048,0.3071899-0.1513672,0.4968262
	c-0.0010376,0.2312622,0.0748901,0.4152832,0.2277832,0.5518799c0.1528931,0.1364746,0.3612671,0.2368774,0.6253052,0.3010864
	l0.3408813,0.0856323c0.1141357,0.0275879,0.2103882,0.0581055,0.2888794,0.0917969
	c0.0795288,0.0335693,0.1396484,0.0744019,0.1804199,0.1222534c0.0418091,0.0479126,0.0626831,0.1070557,0.0626831,0.1773071
	c0,0.0754395-0.0229492,0.1422119-0.0687866,0.2003174c-0.0458984,0.0581055-0.1105957,0.1033936-0.1942139,0.1359863
	c-0.0824585,0.0325928-0.1798706,0.0488892-0.2919922,0.0488892c-0.1140747,0-0.2164917-0.0172729-0.3071899-0.0518799
	c-0.0897217-0.0357056-0.1616211-0.0881958-0.2155762-0.1574707c-0.0530396-0.0703125-0.0831299-0.15802-0.09021-0.2629395
	H13.930603c0.005127,0.2252197,0.0595703,0.4143066,0.1635132,0.5671387
	c0.1049805,0.1518555,0.2507935,0.2664795,0.4372559,0.3439941c0.1875,0.0774536,0.4076538,0.1162109,0.6604004,0.1162109
	c0.2548218,0,0.4724121-0.038208,0.65271-0.1147461c0.1815186-0.0773926,0.3201294-0.1859741,0.4158936-0.3255615
	c0.0968018-0.140625,0.145752-0.3068237,0.1467285-0.4984131c-0.0009766-0.1304321-0.0249023-0.2460938-0.0717773-0.3469849
	C16.2894287,12.7305298,16.2247314,12.6428833,16.1411133,12.5684814z"/>
<path d="M8.8761597,10.9418945l-1.0808105,3.1307983h0.7093506l0.2322388-0.7138672h1.1304321l0.2318115,0.7138672h0.7092896
	L9.729187,10.9418945H8.8761597z M8.9050293,12.8421021l0.385437-1.1848145h0.0244751l0.3846436,1.1848145H8.9050293z"/>
<path d="M13.2476196,12.548584c-0.1040039-0.0621948-0.2156372-0.0957642-0.3348389-0.1008911v-0.0305786
	c0.1091309-0.0244141,0.2059326-0.0657349,0.2905273-0.1238403c0.0855713-0.059082,0.152771-0.1344604,0.2017822-0.2262573
	c0.0488892-0.0927124,0.0733032-0.2001953,0.0733032-0.3225098c0-0.1569824-0.0386963-0.2955933-0.1160889-0.4158325
	c-0.0775146-0.1212769-0.1931763-0.2160645-0.3471069-0.2843628c-0.1538696-0.0682983-0.3460083-0.102417-0.5762939-0.102417
	h-1.2536011v3.1307983h1.3377075c0.234375,0,0.4315796-0.0377197,0.5916138-0.1130981
	c0.1599731-0.0753784,0.2807617-0.1777954,0.3623047-0.307312c0.0825806-0.1303711,0.1237793-0.2786865,0.1237793-0.4447632
	c0-0.1539307-0.0325928-0.286438-0.0977783-0.397522C13.4376831,12.697876,13.3526001,12.6107788,13.2476196,12.548584z
	 M11.84729,11.4769287h0.5029297c0.1467896,0,0.2598877,0.034668,0.3393555,0.1039429
	c0.0805054,0.0693359,0.1208496,0.1605225,0.1208496,0.2736206c0,0.0825806-0.0209351,0.1533813-0.0627441,0.2125244
	c-0.0407715,0.0592041-0.0968018,0.1049805-0.1681519,0.1375732c-0.0703125,0.0316162-0.1508179,0.0474243-0.2415161,0.0474243
	H11.84729V11.4769287z M12.7905273,13.4260864c-0.0846558,0.0703125-0.2191162,0.1055298-0.4036255,0.1055298H11.84729v-0.8317261
	h0.5549316c0.105957,0,0.1972046,0.0189209,0.2736816,0.0565796c0.0773926,0.0377197,0.1370239,0.0897217,0.178772,0.1559448
	c0.0418091,0.0662842,0.0627441,0.1427002,0.0627441,0.2293091C12.9174194,13.2600098,12.8751221,13.3546753,12.7905273,13.4260864z
	"/>
<path d="M16.5717773,7.8843994c-0.5932617-0.6097412-1.3051758-1.0914307-2.0918579-1.4154053
	c-0.7867432-0.3239136-1.6314087-0.4831543-2.4821167-0.4680176c-0.8505859-0.0151367-1.6953125,0.144104-2.4819946,0.4680176
	c-0.7866821,0.3239746-1.4986572,0.8056641-2.09198,1.4154053c-0.6096802,0.5933228-1.0914307,1.3052979-1.4153442,2.09198
	c-0.3239136,0.7867432-0.4832153,1.6314087-0.4680176,2.4819946c-0.0151367,0.850647,0.144165,1.6953125,0.4680786,2.4820557
	c0.3239136,0.7866821,0.805603,1.4985962,1.4152832,2.09198c0.5933838,0.6096802,1.3053589,1.0913696,2.09198,1.4152832
	c0.7866821,0.3239136,1.6314087,0.4832153,2.4819946,0.4680786c0.850708,0.0151367,1.6953735-0.144165,2.4821167-0.4680786
	c0.7865601-0.3239136,1.4985962-0.805603,2.0918579-1.4152832c0.6098022-0.5933838,1.0914307-1.3052979,1.4154053-2.09198
	c0.3239136-0.7867432,0.4832153-1.6314087,0.4680176-2.4820557c0.0151978-0.8505859-0.144104-1.6952515-0.4680176-2.4819946
	C17.6633301,9.1896973,17.1815796,8.4777222,16.5717773,7.8843994z M16.9421997,14.5075073
	c-0.2697144,0.6477661-0.6693726,1.2335815-1.1743164,1.7208862c-0.4884033,0.5048218-1.0750122,0.9042358-1.7236938,1.173584
	c-0.6483765,0.2693481-1.3450928,0.4030151-2.0471802,0.3929443c-0.701416,0.0097656-1.3973999-0.1242065-2.0450439-0.3937988
	c-0.6478882-0.2697144-1.2335815-0.6694336-1.7209473-1.1743164c-0.5045776-0.4882202-0.9038696-1.074585-1.1732178-1.7229004
	c-0.2694092-0.6483765-0.4032593-1.3450928-0.3932495-2.0471191c-0.0099487-0.7016602,0.1240234-1.3980103,0.3937378-2.0458984
	S7.7276611,9.1773071,8.232666,8.6899414c0.4882202-0.5045776,1.074585-0.9038696,1.7229614-1.1732788
	s1.3449707-0.4031982,2.0470581-0.3931885c0.7017212-0.0098877,1.3980103,0.1240845,2.0458984,0.3937988
	c0.6478271,0.2697144,1.2335205,0.6693726,1.7208862,1.1743164c0.5046387,0.4882202,0.9039307,1.074585,1.1733398,1.7229004
	c0.2694092,0.6484375,0.4031982,1.3450928,0.3931885,2.0471191C17.3458862,13.163269,17.2119141,13.8596191,16.9421997,14.5075073z"
	/>
<path d="M21.4940186,9.1710205c-0.3306885-1.0228271-0.8035278-1.9940796-1.404541-2.885376L18.6478882,7.242981
	c0.510498,0.7491455,0.9083252,1.5692139,1.180603,2.4338989c0.2843018,0.901123,0.4268188,1.8409424,0.4224243,2.7858276
	c0.0050659,0.9411011-0.1373901,1.8770752-0.4224243,2.7739868c-0.2744751,0.8599243-0.6721802,1.6755981-1.180603,2.4215088
	l1.4404907,0.9743042c0.602417-0.8928833,1.0756226-1.866394,1.4056396-2.8916016
	c0.3396606-1.0585327,0.510376-2.1638794,0.5057983-3.2755127C22.0062866,11.3474121,21.8355713,10.2354736,21.4940186,9.1710205z"
	/>
<path d="M5.3408203,7.2397461L3.8814087,6.2824097C3.2886963,7.175415,2.8230591,8.1464844,2.4979248,9.1677856
	c-0.3361816,1.0639038-0.5041504,2.1738281-0.4977417,3.2894897c-0.0050049,1.1133423,0.1629028,2.2207031,0.4977417,3.2825317
	c0.3231201,1.0244751,0.7886353,1.9985962,1.3829956,2.8934937l0.0004883-0.0015869l1.4594116-0.9750977
	c-0.5088501-0.7460327-0.9047241-1.5631104-1.1747437-2.4248047c-0.2810059-0.8978271-0.4216309-1.8337402-0.4170532-2.7745361
	C3.744873,11.5133057,3.8864746,10.5744019,4.1687622,9.673645C4.4387817,8.8095703,4.8336792,7.989624,5.3408203,7.2397461z"/>
</svg>
