<?xml version="1.0" encoding="utf-8"?>
<!-- Generator: Adobe Illustrator 28.0.0, SVG Export Plug-In . SVG Version: 6.00 Build 0)  -->
<svg version="1.1" id="Layer_1" xmlns="http://www.w3.org/2000/svg" xmlns:xlink="http://www.w3.org/1999/xlink" x="0px" y="0px"
	 viewBox="0 0 24 24" style="enable-background:new 0 0 24 24;" xml:space="preserve">
<style type="text/css">
	.st0{fill:#D9D9D9;filter:url(#Adobe_OpacityMaskFilter);}
	.st1{mask:url(#mask0_2_1732_00000144309019088634048060000015616455963367247267_);}
</style>
<path d="M21.9827881,12.9661865l0.0015869,0.0037842l-0.3604736-2.4279785
	c-0.0889893-0.5770264-0.3811035-1.1033325-0.8236084-1.4842529c-0.4425659-0.3808594-1.0065918-0.5912476-1.5905151-0.5933228
	c-0.0662842,0.0001221-0.131958-0.0130005-0.1931763-0.0385742c-0.0612793-0.0255127-0.1168213-0.0630493-0.1633911-0.1102295
	l-1.2023315-1.2109375C16.9448853,6.3997803,15.9887085,6.0026245,14.9910889,6h-2.3706665
	c-1.1604004,0.0020142-2.2867432,0.3925781-3.1993408,1.109375L8.6668091,7.7055054L7.086853,6.5015869
	C6.7265625,6.2270508,6.2863159,6.078125,5.833313,6.0775146H1.9998779v1.3953857H5.833313
	c0.1471558,0.000061,0.2902222,0.048584,0.4070435,0.1380005l1.2938232,0.9876709l-0.2488403,0.196106
	C7.2288208,8.8389282,7.1635742,8.8706055,7.0938721,8.8876953L3.7123413,9.6978149
	c-0.4083862,0.0977173-0.7758179,0.3209839-1.0506592,0.6384888c-0.2747803,0.3175049-0.4430542,0.7131958-0.4812012,1.1314087
	l-0.173645,1.8875732c-0.0404053,0.4194946,0.0844727,0.8381958,0.3479004,1.1671143
	c0.2634888,0.3289185,0.6448364,0.5421143,1.0629883,0.5941772l1.203186,0.1551514
	c0.0728149,0.5710449,0.348999,1.0967407,0.7779541,1.4807739c0.428894,0.3839722,0.9818726,0.6005859,1.5575562,0.6099854
	c0.5756226,0.0093994,1.135376-0.1889038,1.5766602-0.5587158c0.4412842-0.369751,0.7345581-0.8861694,0.8259888-1.4545898
	h5.4568481c0.0927734,0.576416,0.3931885,1.0991211,0.8444824,1.4695435
	c0.4512939,0.3704834,1.022522,0.5631714,1.6060181,0.5419922c0.5834961-0.0213013,1.1390991-0.2550049,1.5622559-0.6573486
	c0.4231567-0.4022827,0.6847534-0.9453735,0.7354126-1.5270996l1.1008301-0.3239746
	c0.4162598-0.0916748,0.7828979-0.3364868,1.0269775-0.6859131C21.9359741,13.8170166,22.039917,13.3886108,21.9827881,12.9661865z
	 M20.5355835,13.3928833c-0.0523071,0.0634155-0.1275635,0.1033936-0.2094116,0.1113281l-0.0046997-0.0039062l-2.145752,0.6287231
	V14.96698c0.0036621,0.1334229-0.0194092,0.2662354-0.0679321,0.390625
	c-0.0484009,0.1242676-0.1213989,0.2376709-0.2144165,0.333374c-0.0930786,0.0956421-0.2042847,0.1716919-0.3272705,0.2236328
	c-0.1229248,0.052002-0.255127,0.0786743-0.3884888,0.0786743c-0.1334839,0-0.265625-0.0266724-0.3884888-0.0786743
	c-0.1230469-0.0519409-0.234314-0.1279907-0.3273315-0.2236328c-0.0930786-0.0957031-0.1660156-0.2091064-0.2144775-0.333374
	c-0.0485229-0.1243896-0.0715332-0.2572021-0.0678101-0.390625v-1.0092773H7.9946899v1.0131836
	c0,0.2648315-0.1052246,0.5187988-0.2924805,0.7059937c-0.1872559,0.1873169-0.4412231,0.2925415-0.7060547,0.2925415
	c-0.2647705,0-0.5187378-0.1052246-0.7059937-0.2925415c-0.1872559-0.1871948-0.2924805-0.4411621-0.2924805-0.7059937v-0.9302979
	l-2.4031982-0.3100586c-0.0582275-0.0083008-0.111145-0.0383301-0.1481323-0.0840454
	c-0.0369263-0.0457764-0.0551758-0.1037598-0.0510864-0.1624756l0.173645-1.8892212
	c0.0109863-0.1278076,0.0617676-0.2489014,0.1452026-0.3461914c0.0834351-0.0974121,0.1953735-0.1660767,0.3199463-0.1964722
	l3.385376-0.8077393c0.2663574-0.064209,0.515686-0.1849976,0.7310791-0.3543091L8.6791992,9.472229l3.3768921,2.5744629
	c0.3605347,0.2739868,0.8005981,0.4229126,1.253479,0.4241333h1.9381104v1.0155029l2.2341919-1.7132568l-2.2310791-1.7108765
	v1.0162964h-1.9381104c-0.1470947-0.0003052-0.289978-0.0487671-0.4069824-0.1380005l-3.095459-2.3597412l0.4759521-0.3752441
	c0.6654053-0.5238647,1.4874268-0.8091431,2.3342285-0.8101196h2.3721924
	c0.626709,0.0014038,1.227356,0.2508545,1.6705933,0.6938477l1.2055054,1.2116699
	c0.1760864,0.1773682,0.3856812,0.3179932,0.6165771,0.4138184s0.4783936,0.1448975,0.7283936,0.1443481
	c0.2492065,0.0012207,0.4898071,0.0913696,0.6784058,0.2542114c0.1885986,0.1629028,0.3128052,0.3878174,0.3502808,0.6342163
	l0.362854,2.4187012C20.6129761,13.2479858,20.5880127,13.3295898,20.5355835,13.3928833z"/>
</svg>
