<?xml version="1.0" encoding="utf-8"?>
<!-- Generator: Adobe Illustrator 28.0.0, SVG Export Plug-In . SVG Version: 6.00 Build 0)  -->
<svg version="1.1" id="Layer_1" xmlns="http://www.w3.org/2000/svg" xmlns:xlink="http://www.w3.org/1999/xlink" x="0px" y="0px"
	 viewBox="0 0 24 24" style="enable-background:new 0 0 24 24;" xml:space="preserve">
<style type="text/css">
	.st0{fill:#D9D9D9;filter:url(#Adobe_OpacityMaskFilter);}
	.st1{mask:url(#mask0_2_1201_00000165229820159655554680000014339470609581448349_);}
</style>
<g>
	<path d="M20.2017212,4.8875122L18.020813,6.5175171c0.083374,0.083313,0.1809082,0.145813,0.2633667,0.2349854
		c0.2803955,0.3042603,0.5131226,0.649292,0.6900024,1.0233765l2.1725464-1.6233521L20.2017212,4.8875122z"/>
	<path d="M7.7866821,14.5883179c-0.3184814-0.0018311-0.6311646,0.0846558-0.9033813,0.25
		c-0.2797852,0.1694946-0.5129395,0.4060669-0.6782837,0.6883545L3.1433105,20.814209
		c-0.071106,0.1166992-0.1102295,0.25-0.1132812,0.3865967c-0.0001221,0.1049805,0.0204468,0.2089233,0.0604858,0.3057861
		c0.0401001,0.0969849,0.098877,0.1851196,0.1730347,0.2592773c0.0740967,0.0742188,0.1621704,0.1331177,0.2590942,0.1733398
		C3.6195679,21.9793091,3.7234497,22,3.8283081,22c0.1351318-0.0020142,0.2674561-0.0388184,0.3842163-0.1068115
		s0.2140503-0.164978,0.2824707-0.2814941l2.5616455-4.3666992h3.8683472l-1.5283203-2.6566772H7.7866821z"/>
	<path d="M17.0574951,7.8825073c-0.4246826-0.484314-1.0158081-0.7915039-1.656311-0.8607788
		c-0.6403809-0.0693359-1.2835083,0.1043701-1.802002,0.4865723c-0.4562988,0.3278809-0.7717896,0.81604-0.8833618,1.3666992
		l-0.7791138,3.6199951l2.7299805,4.7442017c0.3984985-0.0062256,0.7831421-0.1480713,1.0900269-0.4025269l-0.0009155-0.0033569
		c0.3267212-0.2736206,0.5515747-0.6494141,0.6384277-1.0665894l1.2099609-5.8250732
		c0.0928345-0.3613281,0.0913086-0.7404175-0.0043945-1.1009521C17.5040283,8.4801025,17.3173218,8.1502075,17.0574951,7.8825073z"
		/>
	<polygon points="11.5541992,13.5 10.185791,14.2874756 14.6224976,22 16.4442139,22 16.4066772,21.9349976 	"/>
	<path d="M7.166687,10.333313c0.8240967,0,1.6296387-0.2443237,2.3148804-0.7022095
		c0.6851196-0.4578247,1.2192383-1.1085815,1.5346069-1.8699341c0.3153076-0.7613525,0.3978271-1.5991211,0.2371216-2.4074097
		c-0.1607666-0.8082275-0.5576172-1.5506592-1.1403809-2.1333618C9.5302124,2.6376953,8.7877808,2.2408447,7.9795532,2.0800781
		C7.1712646,1.9193115,6.3334961,2.0018311,5.5721436,2.3171997S4.1600342,3.1665649,3.7022095,3.8518066
		C3.2443848,4.5369873,3,5.3425903,3,6.166687c0,1.1050415,0.4389648,2.164856,1.2203979,2.9462891
		C5.00177,9.8943481,6.0615845,10.333313,7.166687,10.333313z"/>
	<path d="M17.2974854,2.5783081c-0.1809082-0.1832275-0.3963013-0.3287354-0.6337891-0.4280396
		c-0.2376099-0.0993042-0.4924927-0.1504517-0.7498779-0.1504517c-0.2575073,0-0.5123901,0.0511475-0.75,0.1504517
		c-0.2374878,0.0993042-0.4529419,0.244812-0.6337891,0.4280396c-0.1859131,0.1789551-0.3331299,0.394104-0.4326172,0.6322021
		c-0.0994873,0.2380371-0.1491089,0.4940186-0.1456909,0.7519531c-0.0032959,0.2578735,0.0462646,0.5136719,0.145752,0.7515869
		c0.0995483,0.2379761,0.2467041,0.4529419,0.4325562,0.6317749c0.0141602,0.0141602,0.0299683,0.0233154,0.0449829,0.0366821
		c0.2924805,0.2837524,0.6679077,0.4668579,1.0715942,0.5227661s0.8148193-0.0183105,1.1734009-0.2119141
		c0.175293-0.0918579,0.3361816-0.2089233,0.477478-0.3475342c0.18573-0.1789551,0.3328247-0.3939819,0.4321899-0.6318359
		c0.0995483-0.237915,0.149231-0.4936523,0.1461182-0.7515259c0.0032349-0.2579346-0.0465088-0.5137939-0.1459961-0.7518921
		C17.6303101,2.9725342,17.4832153,2.7573853,17.2974854,2.5783081z"/>
</g>
</svg>
