<?xml version="1.0" encoding="utf-8"?>
<!-- Generator: Adobe Illustrator 28.0.0, SVG Export Plug-In . SVG Version: 6.00 Build 0)  -->
<svg version="1.1" id="Layer_1" xmlns="http://www.w3.org/2000/svg" xmlns:xlink="http://www.w3.org/1999/xlink" x="0px" y="0px"
	 viewBox="0 0 24 24" style="enable-background:new 0 0 24 24;" xml:space="preserve">
<style type="text/css">
	.st0{fill:#D9D9D9;filter:url(#Adobe_OpacityMaskFilter);}
	.st1{mask:url(#mask0_2_1583_00000064323465488606220860000007948506905855500166_);}
</style>
<g>
	<path d="M19.7000732,3.210144c-0.0994873-0.237915-0.2466431-0.4529419-0.4325562-0.6317139
		c-0.1807861-0.1832275-0.3962402-0.3286743-0.633606-0.4279785C18.3964233,2.0511475,18.1416016,2,17.8842163,2
		s-0.5123291,0.0511475-0.7496948,0.1504517c-0.2375488,0.0993042-0.4529419,0.244751-0.633728,0.4279785
		c-0.185791,0.178772-0.3330078,0.3937988-0.4324951,0.6317139c-0.0994873,0.2379761-0.1491089,0.4937744-0.145813,0.7516479
		c-0.0032959,0.2578735,0.0463867,0.5136108,0.145813,0.7515869c0.0994873,0.237915,0.2467041,0.4528809,0.4324951,0.6317139
		c0.178833,0.1858521,0.3937988,0.3330688,0.6318359,0.4325562c0.237854,0.0994873,0.4936523,0.1491089,0.7515869,0.145813
		c0.2578125,0.0032349,0.5136108-0.0463867,0.7515869-0.145874c0.237915-0.0994873,0.4528809-0.2466431,0.6317139-0.4324951
		c0.185791-0.178833,0.3330078-0.3937988,0.4324951-0.6317139c0.0994873-0.2379761,0.1491089-0.4937134,0.145813-0.7515869
		C19.8491211,3.7039185,19.7994995,3.4481201,19.7000732,3.210144z"/>
	<path d="M19.0275269,7.8824463c-0.2394409-0.2766113-0.5359497-0.4981079-0.8691406-0.649292
		c-0.3330688-0.1511841-0.6950684-0.2284546-1.0609131-0.2265015c-0.5500488-0.0031128-1.0863647,0.1723633-1.5282593,0.5
		c-0.456543,0.3276367-0.7720337,0.815918-0.8834229,1.3666382l-1.2299805,5.7133179H9.7566528
		c-0.3184204-0.0018311-0.6311646,0.0847168-0.9033203,0.25c-0.2798462,0.1694946-0.5130005,0.4060669-0.6783447,0.6884155
		l-3.0616455,5.2890625C5.0422974,20.9310913,5.0031738,21.0648193,5,21.2015991
		c0,0.211792,0.0841064,0.4147949,0.2338257,0.5645142C5.3835449,21.9158936,5.5866089,22,5.7983398,22
		c0.1350098-0.0020142,0.2672729-0.0385742,0.3840332-0.1065063c0.1167603-0.0678711,0.2141113-0.1646729,0.2826538-0.2810059
		l2.5616455-4.3674927h7.5316162c0.4255371,0.0092163,0.8399048-0.1359253,1.166687-0.4083862
		c0.3270264-0.2734985,0.5522461-0.649292,0.6392212-1.0665894l1.210022-5.8283691
		c0.0929565-0.3613281,0.0915527-0.7404785-0.0040894-1.1010742C19.4744263,8.4799805,19.2874756,8.1500244,19.0275269,7.8824463z"
		/>
	<polygon points="10.1724854,8.0999756 13.9857788,5.0499878 10.1724854,2 10.1724854,3.6950073 7.5458374,3.6950073 
		7.5458374,6.4058228 10.1724854,6.4058228 	"/>
</g>
</svg>
