<?xml version="1.0" encoding="utf-8"?>
<!-- Generator: Adobe Illustrator 28.1.0, SVG Export Plug-In . SVG Version: 6.00 Build 0)  -->
<svg version="1.1" id="Layer_1" xmlns="http://www.w3.org/2000/svg" xmlns:xlink="http://www.w3.org/1999/xlink" x="0px" y="0px"
	 viewBox="0 0 26 26" style="enable-background:new 0 0 26 26;" xml:space="preserve">
<style type="text/css">
	.st0{fill:none;}
</style>
<g>
	<path class="st0" d="M23.0176,17.1494c0.8242-1.9873,1.0381-4.1538,0.6182-6.2646C23.2158,8.7744,22.1904,6.854,20.668,5.332
		c-1.5225-1.5215-3.4424-2.5479-5.5527-2.9678c-0.7041-0.1401-1.4141-0.2095-2.1221-0.2095c-1.4136,0-2.8179,0.2778-4.1431,0.8267
		C6.8618,3.8052,5.1787,5.1865,3.9839,6.9751C2.7881,8.7651,2.1558,10.8481,2.1558,13c0,2.8965,1.1279,5.6191,3.1763,7.668
		c2.0483,2.0479,4.7715,3.1758,7.668,3.1758c2.1523,0,4.2354-0.6318,6.0244-1.8271C20.8145,20.8203,22.1953,19.1377,23.0176,17.1494
		z M8.5771,10.729c-0.1309,0.1958-0.3159,0.3481-0.5352,0.4395c-0.146,0.0601-0.3003,0.0908-0.4556,0.0908
		c-0.0781,0-0.1567-0.0078-0.2344-0.0234c-0.2314-0.0459-0.4429-0.1587-0.6104-0.3262s-0.2803-0.3784-0.3267-0.6108
		c-0.0459-0.2329-0.0225-0.4712,0.0679-0.6895c0.0898-0.2178,0.2417-0.4028,0.4385-0.5352C7.251,8.8545,7.6782,8.814,8.0415,8.9639
		c0.146,0.0605,0.2769,0.1475,0.3877,0.2593C8.5391,9.333,8.626,9.4629,8.687,9.6084c0.061,0.147,0.0913,0.3008,0.0913,0.4575
		C8.7783,10.3027,8.7085,10.5317,8.5771,10.729z M11.791,14.1279h1.6509v-2.123h1.4429v3.5664H11.791V14.1279z M15.4043,19.8174
		c-0.0713,0.1934-0.2119,0.3467-0.3975,0.4336c-0.5273,0.2881-1.1372,0.4629-1.7505,0.502
		c-0.0884,0.0049-0.1768,0.0078-0.2656,0.0078c-0.5264,0-1.0562-0.0986-1.5474-0.2891c-0.5718-0.291-1.0444-0.709-1.3887-1.2188
		c-0.3452-0.5078-0.5581-1.1016-0.6157-1.7148l-0.0215-0.2324l1.5254-0.248l0.0186,0.2744
		c0.0244,0.3613,0.1406,0.7129,0.3364,1.0166c0.1963,0.3037,0.4683,0.5547,0.7861,0.7256c0.3374,0.1211,0.7412,0.1719,1.1343,0.1416
		c0.3936-0.0332,0.7817-0.1533,1.1235-0.3486c0.208-0.0967,0.417-0.1025,0.6064-0.0322c0.1895,0.0693,0.3428,0.21,0.4297,0.3945
		l0.001,0.002C15.4648,19.417,15.4736,19.626,15.4043,19.8174z M19.4082,10.729c-0.1309,0.1958-0.3154,0.3477-0.5342,0.439
		c-0.1465,0.0605-0.3018,0.0913-0.457,0.0913c-0.0781,0-0.1562-0.0078-0.2334-0.0234c-0.2324-0.0454-0.4434-0.1582-0.6113-0.3262
		c-0.168-0.1675-0.2803-0.3789-0.3262-0.6113s-0.0225-0.4707,0.0674-0.689c0.0908-0.2178,0.2422-0.4033,0.4404-0.5352
		c0.4551-0.3062,1.1172-0.2407,1.5059,0.1484c0.2256,0.2256,0.3496,0.5249,0.3496,0.8433
		C19.6094,10.3027,19.54,10.5317,19.4082,10.729z"/>
	<path d="M25.0146,10.6099c-0.4736-2.3833-1.6328-4.5522-3.3525-6.272c-1.7197-1.7192-3.8887-2.8789-6.2725-3.3525
		C13.0063,0.5122,10.5586,0.752,8.312,1.6826C6.0659,2.6133,4.165,4.1733,2.8145,6.1943S0.75,10.5688,0.75,13
		c0,3.2725,1.2744,6.3486,3.5879,8.6621C6.6519,23.9756,9.7285,25.25,13,25.25c2.4307,0,4.7842-0.7139,6.8057-2.0645
		s3.582-3.252,4.5127-5.498C25.248,15.4424,25.4893,12.9951,25.0146,10.6099z M13,23.8438c-2.8965,0-5.6196-1.1279-7.668-3.1758
		C3.2837,18.6191,2.1558,15.8965,2.1558,13c0-2.1519,0.6323-4.2349,1.8281-6.0249c1.1948-1.7886,2.8779-3.1699,4.8662-3.9937
		c1.3252-0.5488,2.7295-0.8267,4.1431-0.8267c0.708,0,1.418,0.0693,2.1221,0.2095c2.1104,0.4199,4.0303,1.4463,5.5527,2.9678
		c1.5225,1.522,2.5479,3.4424,2.9678,5.5527c0.4199,2.1108,0.2061,4.2773-0.6182,6.2646c-0.8223,1.9883-2.2031,3.6709-3.9932,4.8672
		C17.2354,23.2119,15.1523,23.8438,13,23.8438z"/>
	<path d="M15.3779,19.2295c-0.0869-0.1846-0.2402-0.3252-0.4297-0.3945c-0.1895-0.0703-0.3984-0.0645-0.6064,0.0322
		c-0.3418,0.1953-0.73,0.3154-1.1235,0.3486c-0.3931,0.0303-0.7969-0.0205-1.1343-0.1416
		c-0.3179-0.1709-0.5898-0.4219-0.7861-0.7256c-0.1958-0.3037-0.312-0.6553-0.3364-1.0166l-0.0186-0.2744l-1.5254,0.248
		l0.0215,0.2324c0.0576,0.6133,0.2705,1.207,0.6157,1.7148c0.3442,0.5098,0.8169,0.9277,1.3887,1.2188
		c0.4912,0.1904,1.021,0.2891,1.5474,0.2891c0.0889,0,0.1772-0.0029,0.2656-0.0078c0.6133-0.0391,1.2231-0.2139,1.7505-0.502
		c0.1855-0.0869,0.3262-0.2402,0.3975-0.4336c0.0693-0.1914,0.0605-0.4004-0.0254-0.5859L15.3779,19.2295z"/>
	<polygon points="14.8848,12.0049 13.4419,12.0049 13.4419,14.1279 11.791,14.1279 11.791,15.5713 14.8848,15.5713 	"/>
	<path d="M17.7539,9.0742c-0.1982,0.1318-0.3496,0.3174-0.4404,0.5352c-0.0898,0.2183-0.1133,0.4565-0.0674,0.689
		s0.1582,0.4438,0.3262,0.6113c0.168,0.168,0.3789,0.2808,0.6113,0.3262c0.0771,0.0156,0.1553,0.0234,0.2334,0.0234
		c0.1553,0,0.3105-0.0308,0.457-0.0913c0.2188-0.0913,0.4033-0.2432,0.5342-0.439c0.1318-0.1973,0.2012-0.4263,0.2012-0.6631
		c0-0.3184-0.124-0.6177-0.3496-0.8433C18.8711,8.8335,18.209,8.7681,17.7539,9.0742z"/>
	<path d="M8.4292,9.2231C8.3184,9.1113,8.1875,9.0244,8.0415,8.9639C7.6782,8.814,7.251,8.8545,6.9214,9.0742
		C6.7246,9.2065,6.5728,9.3916,6.4829,9.6094c-0.0903,0.2183-0.1138,0.4565-0.0679,0.6895
		c0.0464,0.2324,0.1592,0.4434,0.3267,0.6108s0.3789,0.2803,0.6104,0.3262c0.0776,0.0156,0.1562,0.0234,0.2344,0.0234
		c0.1553,0,0.3096-0.0308,0.4556-0.0908c0.2192-0.0913,0.4043-0.2437,0.5352-0.4395c0.1313-0.1973,0.2012-0.4263,0.2012-0.6631
		c0-0.1567-0.0303-0.3105-0.0913-0.4575C8.626,9.4629,8.5391,9.333,8.4292,9.2231z"/>
</g>
</svg>
