<?xml version="1.0" encoding="utf-8"?>
<!-- Generator: Adobe Illustrator 28.0.0, SVG Export Plug-In . SVG Version: 6.00 Build 0)  -->
<svg version="1.1" id="Layer_1" xmlns="http://www.w3.org/2000/svg" xmlns:xlink="http://www.w3.org/1999/xlink" x="0px" y="0px"
	 viewBox="0 0 24 24" style="enable-background:new 0 0 24 24;" xml:space="preserve">
<style type="text/css">
	.st0{fill:#D9D9D9;filter:url(#Adobe_OpacityMaskFilter);}
	.st1{mask:url(#mask0_2_1323_00000103228983813168259450000010183292297237631905_);}
</style>
<g>
	<path d="M4.081665,16.1875v1.4299927h5.8383179C9.6368408,17.1768799,9.425354,16.6942749,9.293335,16.1875H4.081665z"/>
	<path d="M8.7766724,13.6392212c-0.0166626-0.2350464-0.0349731-0.4783325-0.0658569-0.7200317H4v1.4299927h4.8441772
		C8.8125,14.1242065,8.7949829,13.8875122,8.7766724,13.6392212z"/>
	<path d="M8.7766724,10.3615723c0.0183105-0.25,0.0358276-0.4849854,0.0675049-0.7099609H4v1.4299927h4.7108154
		C8.7416992,10.8399048,8.7600098,10.5974121,8.7766724,10.3615723z"/>
	<path d="M9.3533325,7.6474609c0.019104-0.0859985,0.0470581-0.1697388,0.083313-0.25
		c0.0665894-0.3284912,0.1915894-0.642395,0.3692017-0.9266968c0.0174561-0.0291748,0.0324707-0.0582886,0.0491333-0.083313H4
		v1.4266968h5.3041992C9.3237305,7.7595215,9.3400879,7.7039185,9.3533325,7.6474609z"/>
	<path d="M12.8850098,6.2183838v0.0016479c-1.541687,0-2.3491821,2.9075317-2.3491821,5.7783813
		c0,2.8707886,0.8074951,5.7799683,2.3491821,5.7799683c4.7299805,0,7.25-3.3566895,7.25-5.7799683
		C20.1350098,9.5750732,17.6149902,6.2183838,12.8850098,6.2183838z M12.9666748,16.3483887h-0.043396l-0.0315552-0.0316772
		c-0.3567505-0.3591309-0.9275513-1.8500366-0.9275513-4.3200073s0.5700073-3.9608154,0.9275513-4.3208008l0.0315552-0.0308838
		h0.0450439c2.3175049,0.0842285,5.7341919,1.5200195,5.7341919,4.3533936
		C18.7025146,14.8317261,15.2800293,16.2683716,12.9666748,16.3483887z"/>
	<polygon points="6.2566528,5.3624878 7.6716919,5.3624878 7.6716919,3.9908447 8.5558472,3.9908447 6.9641724,2 
		5.3716431,3.9908447 6.2566528,3.9908447 	"/>
	<polygon points="7.6716919,18.6383057 6.2566528,18.6383057 6.2566528,20.0100098 5.3716431,20.0100098 6.9641724,22 
		8.5558472,20.0100098 7.6716919,20.0100098 	"/>
</g>
</svg>
