<?xml version="1.0" encoding="utf-8"?>
<!-- Generator: Adobe Illustrator 28.0.0, SVG Export Plug-In . SVG Version: 6.00 Build 0)  -->
<svg version="1.1" id="Layer_1" xmlns="http://www.w3.org/2000/svg" xmlns:xlink="http://www.w3.org/1999/xlink" x="0px" y="0px"
	 viewBox="0 0 24 24" style="enable-background:new 0 0 24 24;" xml:space="preserve">
<path d="M15.8181763,11.5968018l-1.0688477,1.0440674l3.4998779,3.5027466l3.4998779-3.499939l-1.0689087-1.0440063
	l-1.6808472,1.7056274v-0.8060913c0.0080566-1.1395264-0.2198486-2.2684937-0.6694336-3.3156738
	c-0.4295044-1.0061035-1.046814-1.9210205-1.8189697-2.6959229c-0.7749023-0.7721558-1.6898193-1.3894653-2.6959229-1.8189697
	c-1.0471802-0.449585-2.1760864-0.6774902-3.3156738-0.6693726C9.3597412,3.9908447,8.230835,4.2184448,7.1835938,4.6679077
	c-1.0060425,0.4295044-1.9210205,1.046936-2.6959229,1.8190308C3.7155151,7.2617798,3.0982056,8.1767578,2.6687012,9.1828003
	c-0.449585,1.0474854-0.6774902,2.1765747-0.6693726,3.3164062c-0.0200806,1.119812,0.1895752,2.2316895,0.6159668,3.2672119
	c0.4263916,1.0355835,1.0604858,1.9726562,1.8631592,2.7536621c0.7810059,0.8026123,1.7182007,1.4366455,2.7537231,1.8630371
	s2.1474609,0.6361084,3.2671509,0.6160889c1.0993652,0.0056152,2.1888428-0.2084961,3.2044678-0.6295776
	c0.9963989-0.4115601,1.9086914-1.0023193,2.6917114-1.7433472l-1.0787964-1.0687866
	c-0.6394043,0.5991821-1.3793335,1.0811768-2.1859131,1.4237061c-0.8328247,0.3499146-1.7282104,0.5264282-2.6314697,0.5184937
	c-0.920166,0.0161743-1.8338013-0.1566772-2.6843262-0.5079956c-0.8505859-0.3513184-1.6199951-0.8734131-2.2605591-1.5341187
	c-0.6601562-0.6444092-1.1826172-1.4161987-1.5357056-2.2684937s-0.52948-1.767395-0.5184937-2.6898804
	C3.4857178,11.578125,3.6600342,10.6636963,4.0125122,9.8125c0.352417-0.8511963,0.8754883-1.6210938,1.5369873-2.2623901
	c0.6412354-0.6616821,1.4113159-1.1849365,2.2626343-1.5374756c0.8513184-0.3526001,1.7658691-0.5269775,2.6871948-0.5123901
	c0.9212646-0.0146484,1.8357544,0.1596069,2.6870728,0.5120239c0.8513184,0.352478,1.6213989,0.8756104,2.2626953,1.5371704
	c0.6616821,0.6412964,1.1849976,1.4112549,1.5374756,2.2625732c0.3526001,0.8513794,0.5270386,1.7658691,0.5125122,2.6871948
	V13.27771L15.8181763,11.5968018z"/>
<path d="M11.369812,8.0834961H9.699585l-3.0047607,8.531189H8.182312l0.6785889-2.020874h3.3150024l0.6785889,2.020874h1.5164795
	L11.369812,8.0834961z M11.7855835,13.385376H9.2618408l1.2749634-3.7541504"/>
</svg>
