<?xml version="1.0" encoding="utf-8"?>
<!-- Generator: Adobe Illustrator 28.0.0, SVG Export Plug-In . SVG Version: 6.00 Build 0)  -->
<svg version="1.1" id="Layer_1" xmlns="http://www.w3.org/2000/svg" xmlns:xlink="http://www.w3.org/1999/xlink" x="0px" y="0px"
	 viewBox="0 0 24 24" style="enable-background:new 0 0 24 24;" xml:space="preserve">
<g>
	<path d="M5.1680298,9L3,14.7119751h1.2719727l0.447998-1.2719727h2.1360474l0.4320068,1.2719727H8.59198L6.4559937,9H5.1680298z
		 M5.0479736,12.5040283L5.7919922,10.40802h0.0159912l0.7200317,2.0960083H5.0479736z"/>
	<polygon points="13.7518921,12.9359741 13.7359009,12.9359741 12.7598877,9 11.5839233,9 10.5919189,12.8880005 
		10.5759277,12.8880005 9.671936,9 8.4159546,9 9.9279175,14.7119751 11.1998901,14.7119751 12.1519165,10.8239746 
		12.1679077,10.8239746 13.1359253,14.7119751 14.3839111,14.7119751 15.9199219,9 14.6879272,9 	"/>
	<path d="M18.9625854,9h-2.4639893v5.7119751h2.4639893c1.7440186,0,2.592041-1.2319946,2.592041-2.8880005
		C21.5546265,9.9279785,20.442627,9,18.9625854,9z M18.8745728,13.6560059h-1.1199951v-3.6000366h0.8959961
		c1.2480469,0,1.6480103,0.7360229,1.6480103,1.8880005C20.298584,13.2080078,19.6026001,13.6560059,18.8745728,13.6560059z"/>
</g>
</svg>
