<?xml version="1.0" encoding="utf-8"?>
<!-- Generator: Adobe Illustrator 28.1.0, SVG Export Plug-In . SVG Version: 6.00 Build 0)  -->
<svg version="1.1" id="Layer_1" xmlns="http://www.w3.org/2000/svg" xmlns:xlink="http://www.w3.org/1999/xlink" x="0px" y="0px"
	 viewBox="0 0 24 24" style="enable-background:new 0 0 24 24;" xml:space="preserve">
<path d="M9.1923,18.5c-0.3461,0-0.6715-0.0783-0.976-0.2347c-0.3045-0.1564-0.5548-0.3743-0.7509-0.6538L3.5,12l3.9654-5.5923
	c0.1961-0.2795,0.4449-0.5006,0.7461-0.6635C8.5128,5.5814,8.8397,5.5,9.1923,5.5h9.5c0.4987,0,0.9246,0.1766,1.2778,0.5298
	C20.3233,6.383,20.5,6.809,20.5,7.3077v9.3846c0,0.4987-0.1767,0.9246-0.5299,1.2778C19.6169,18.3233,19.191,18.5,18.6923,18.5
	H9.1923z M9.1923,17h9.5c0.0769,0,0.1474-0.0321,0.2115-0.0962C18.9679,16.8397,19,16.7692,19,16.6923V7.3077
	c0-0.0769-0.0321-0.1475-0.0962-0.2116C18.8397,7.032,18.7692,7,18.6923,7h-9.5c-0.0962,0-0.1875,0.024-0.274,0.0721
	C8.8317,7.1202,8.7628,7.1795,8.7115,7.25L5.3346,12l3.3769,4.75c0.0513,0.0705,0.1202,0.1298,0.2067,0.1779
	C9.0048,16.9759,9.0961,17,9.1923,17z M11.2269,15.6538l2.6-2.6l2.6,2.6L17.4807,14.6l-2.6-2.6l2.6-2.6l-1.0538-1.0538l-2.6,2.6
	l-2.6-2.6L10.1731,9.4l2.6,2.6l-2.6,2.6L11.2269,15.6538z"/>
</svg>
