<?xml version="1.0" encoding="utf-8"?>
<!-- Generator: Adobe Illustrator 28.0.0, SVG Export Plug-In . SVG Version: 6.00 Build 0)  -->
<svg version="1.1" id="Layer_1" xmlns="http://www.w3.org/2000/svg" xmlns:xlink="http://www.w3.org/1999/xlink" x="0px" y="0px"
	 viewBox="0 0 24 24" style="enable-background:new 0 0 24 24;" xml:space="preserve">
<style type="text/css">
	.st0{fill:#D9D9D9;filter:url(#Adobe_OpacityMaskFilter);}
	.st1{mask:url(#mask0_2_590_00000076592486124438860180000006917744019795894175_);}
</style>
<g>
	<path d="M18.8110962,7.43396V6h-3.1887817v1.43396h-0.687439V7.4301758L8.3769531,7.4320679V6H5.1888428v1.4330444L2,7.43396
		v11.4025269h7.0651245v0.0037842H22V7.43396H18.8110962z M20.5653076,17.4017944h-5.6304321v-0.0037842H3.4346924V8.8686523
		h5.6304321v0.0037842h11.5001831V17.4017944z"/>
	<polygon points="15.1484375,15.4541016 16.5488281,15.4541016 16.5488281,13.8515625 18.1513672,13.8515625 18.1513672,12.4511719 
		16.5488281,12.4511719 16.5488281,10.8486328 15.1484375,10.8486328 15.1484375,12.4511719 13.5458984,12.4511719 
		13.5458984,13.8515625 15.1484375,13.8515625 	"/>
	<rect x="6.7827148" y="12.4511719" width="4.1865234" height="1.4003906"/>
</g>
</svg>
