<?xml version="1.0" encoding="utf-8"?>
<!-- Generator: Adobe Illustrator 28.0.0, SVG Export Plug-In . SVG Version: 6.00 Build 0)  -->
<svg version="1.1" id="Layer_1" xmlns="http://www.w3.org/2000/svg" xmlns:xlink="http://www.w3.org/1999/xlink" x="0px" y="0px"
	 viewBox="0 0 24 24" style="enable-background:new 0 0 24 24;" xml:space="preserve">
<g>
	<path d="M4.0346069,12c0-2.0166626,0.6583252-3.7750244,1.9750366-5.2750244
		c1.3166504-1.5,2.9749756-2.3916626,4.9749756-2.6749878v-1.499939C8.5692139,2.8269653,6.5570679,3.8605957,4.9481201,5.651001
		C3.3391113,7.4413452,2.534668,9.5576782,2.534668,12c0,2.4320068,0.8060913,4.541626,2.4182129,6.3287964
		c1.6121826,1.7872314,3.6228027,2.8275757,6.0317383,3.1212158v-1.5c-2-0.2999878-3.6583252-1.1958008-4.9749756-2.6875
		C4.6929321,15.770813,4.0346069,14.0167236,4.0346069,12z"/>
	<path d="M19.3845825,15.0875244c-0.2666016,0.6582642-0.6165771,1.2624512-1.0499878,1.8125l1.053833,1.053772
		c0.5717773-0.6973877,1.0323486-1.4630737,1.3817749-2.2971191C21.1195068,14.8226929,21.3513184,13.9371948,21.4653931,13
		h-1.5307617C19.8345947,13.7332764,19.6513062,14.4291992,19.3845825,15.0875244z"/>
	<path d="M19.9346313,11h1.5307617c-0.1026001-0.9807739-0.3225098-1.8634644-0.659668-2.6480713
		c-0.3370972-0.7846069-0.8063965-1.5499878-1.4076538-2.2961426l-1.0634766,1.0441895
		c0.4334106,0.5333862,0.7833862,1.1292114,1.0499878,1.7875366C19.6513062,9.5458374,19.8345947,10.25,19.9346313,11z"/>
	<path d="M15.0606079,19.375c-0.6583862,0.2769165-1.3502808,0.4686279-2.0759888,0.5750122v1.5
		c0.9320679-0.112915,1.8128052-0.3391113,2.6422729-0.678894c0.8295288-0.3397217,1.6069946-0.7955322,2.3327026-1.3673096
		l-1.0750122-1.0845947C16.3269043,18.7462158,15.7188721,19.0980835,15.0606079,19.375z"/>
	<path d="M13.0037842,2.5500488v1.499939c0.6936035,0.083313,1.3721924,0.2666626,2.0356445,0.5499878
		S16.3345947,5.25,16.9346313,5.7000122l1.0249634-1.1038208c-0.7384644-0.5820312-1.520813-1.0445557-2.3471069-1.3875122
		S13.916687,2.6461792,13.0037842,2.5500488z"/>
	<path d="M14.4605713,14.125c0.7698364-0.8436279,1.1548462-1.8327026,1.1548462-2.9672852
		c0-1.024292-0.3491211-1.8980713-1.0472412-2.6211548C13.8701782,7.8134766,13.0140991,7.4519653,12,7.4519653
		s-1.8701782,0.3615112-2.5682373,1.0845947s-1.0471191,1.5968628-1.0471191,2.6211548
		c0,1.1345825,0.3849487,2.1236572,1.1547852,2.9672852C10.3093262,14.9686279,11.1295166,15.7634277,12,16.5095825
		C12.8704834,15.7634277,13.6906738,14.9686279,14.4605713,14.125z M12.6904297,11.7116089
		C12.5045166,11.8973999,12.2744141,11.9904175,12,11.9904175s-0.5045166-0.0930176-0.6904297-0.2788086
		c-0.1858521-0.1859131-0.2787476-0.4161377-0.2787476-0.6904297c0-0.2640991,0.0928955-0.4916992,0.2787476-0.6826782
		C11.4954834,10.147522,11.7255859,10.052002,12,10.052002s0.5045166,0.09552,0.6904297,0.286499
		c0.1858521,0.190979,0.2787476,0.4185791,0.2787476,0.6826782C12.9691772,11.2954712,12.8762817,11.5256958,12.6904297,11.7116089z
		"/>
</g>
</svg>
