<?xml version="1.0" encoding="utf-8"?>
<!-- Generator: Adobe Illustrator 28.0.0, SVG Export Plug-In . SVG Version: 6.00 Build 0)  -->
<svg version="1.1" id="Layer_1" xmlns="http://www.w3.org/2000/svg" xmlns:xlink="http://www.w3.org/1999/xlink" x="0px" y="0px"
	 viewBox="0 0 24 24" style="enable-background:new 0 0 24 24;" xml:space="preserve">
<path d="M20.9749756,7.0249634C20.625,6.6749268,20.1973877,6.499939,19.6923218,6.499939H15.5V4.8076782
	c0-0.505127-0.1749878-0.9326782-0.5250244-1.2826538C14.625,3.1749878,14.1973877,3,13.6923218,3h-3.3846436
	C9.8026123,3,9.375,3.1749878,9.0250244,3.5250244C8.6750488,3.875,8.5,4.3025513,8.5,4.8076782V6.499939H4.3077393
	c-0.505127,0-0.9327393,0.1749878-1.2827148,0.5250244C2.6750488,7.374939,2.5,7.8024902,2.5,8.3076782v10.3845215
	c0,0.505127,0.1750488,0.9326782,0.5250244,1.2827148C3.375,20.3248901,3.8026123,20.4998779,4.3077393,20.4998779h15.3845825
	c0.5050659,0,0.9326782-0.1749878,1.2826538-0.5249634C21.3250122,19.6248779,21.5,19.1973267,21.5,18.6921997V8.3076782
	C21.5,7.8024902,21.3250122,7.374939,20.9749756,7.0249634z M14,6.499939h-4V4.8076782
	c0-0.0769653,0.0319824-0.1474609,0.0961304-0.2115479c0.0641479-0.0641479,0.1346436-0.0961914,0.2115479-0.0961914h3.3846436
	c0.0769043,0,0.1473999,0.0320435,0.2114868,0.0961914C13.9678955,4.6602173,14,4.7307129,14,4.8076782V6.499939z"/>
</svg>
