<?xml version="1.0" encoding="utf-8"?>
<!-- Generator: Adobe Illustrator 28.0.0, SVG Export Plug-In . SVG Version: 6.00 Build 0)  -->
<svg version="1.1" id="Layer_1" xmlns="http://www.w3.org/2000/svg" xmlns:xlink="http://www.w3.org/1999/xlink" x="0px" y="0px"
	 viewBox="0 0 24 24" style="enable-background:new 0 0 24 24;" xml:space="preserve">
<path d="M20.9749756,3.0250244C20.625,2.6749878,20.1973877,2.5,19.6923218,2.5H4.3077393
	C3.8026123,2.5,3.375,2.6749878,3.0250244,3.0250244C2.6750488,3.375,2.5,3.8025513,2.5,4.3076782v16.7307129L6.0384521,17.5
	h13.6538696c0.5050659,0,0.9326782-0.1749878,1.2826538-0.5250244C21.3250122,16.625,21.5,16.1973877,21.5,15.6923218V4.3076782
	C21.5,3.8025513,21.3250122,3.375,20.9749756,3.0250244z M13.75,13.75h-7.5v-1.5h7.5V13.75z M17.75,10.75H6.25v-1.5h11.5V10.75z
	 M17.75,7.749939H6.25V6.25h11.5V7.749939z"/>
</svg>
