<?xml version="1.0" encoding="utf-8"?>
<!-- Generator: Adobe Illustrator 28.0.0, SVG Export Plug-In . SVG Version: 6.00 Build 0)  -->
<svg version="1.1" id="Layer_1" xmlns="http://www.w3.org/2000/svg" xmlns:xlink="http://www.w3.org/1999/xlink" x="0px" y="0px"
	 viewBox="0 0 24 24" style="enable-background:new 0 0 24 24;" xml:space="preserve">
<g>
	<path d="M4.359436,11.0144043c0.939209,0,1.5993042-0.6118164,1.6851807-1.5671387H5.2288818
		c-0.0643921,0.5045166-0.354248,0.8587036-0.8694458,0.8587036c-0.7567139,0-1.0411987-0.6439819-1.0411987-1.2826538
		c0-0.6708374,0.2844849-1.3148804,1.0411987-1.3148804c0.4185791,0,0.7835693,0.2897949,0.8372192,0.6708374h0.8157349
		C5.9104614,7.4937744,5.2020264,7,4.359436,7C3.1733398,7,2.475647,7.8855591,2.475647,9.0233154
		C2.475647,10.1289062,3.1733398,11.0144043,4.359436,11.0144043z"/>
	<polygon points="9.8562012,10.9232178 9.8562012,7.0912476 9.0136108,7.0912476 9.0136108,8.5617676 7.4625854,8.5617676 
		7.4625854,7.0912476 6.6199951,7.0912476 6.6199951,10.9232178 7.4625854,10.9232178 7.4625854,9.2702026 9.0136108,9.2702026 
		9.0136108,10.9232178 	"/>
	<polygon points="11.4406128,9.2755737 13.2974854,9.2755737 13.2974854,8.6207886 11.4406128,8.6207886 11.4406128,7.7996826 
		13.4639282,7.7996826 13.4639282,7.0912476 10.5980225,7.0912476 10.5980225,10.9232178 13.5067749,10.9232178 
		13.5067749,10.2147827 11.4406128,10.2147827 	"/>
	<path d="M17.4807129,9.4472656H16.664917c-0.0643921,0.5045166-0.354187,0.8587036-0.8694458,0.8587036
		c-0.7567749,0-1.0411987-0.6439819-1.0411987-1.2826538c0-0.6708374,0.2844238-1.3148804,1.0411987-1.3148804
		c0.4186401,0,0.7835083,0.2897949,0.8372192,0.6708374h0.8157959C17.3464966,7.4937744,16.6381226,7,15.7954712,7
		c-1.1860962,0-1.8837891,0.8855591-1.8837891,2.0233154c0,1.1055908,0.6976929,1.9910889,1.8837891,1.9910889
		C16.7346802,11.0144043,17.3947754,10.4025879,17.4807129,9.4472656z"/>
	<polygon points="20.5355225,10.9232178 21.5927734,10.9232178 19.9505005,8.6046753 21.447876,7.0912476 20.3959961,7.0912476 
		18.8986206,8.6798096 18.8986206,7.0912476 18.0560303,7.0912476 18.0560303,10.9232178 18.8986206,10.9232178 
		18.8986206,9.6887817 19.3817139,9.2004395 	"/>
	<polygon points="2.8425903,14.642395 4.6995239,14.642395 4.6995239,13.9876709 2.8425903,13.9876709 2.8425903,13.1665039 
		4.8659058,13.1665039 4.8659058,12.4581299 2,12.4581299 2,16.289978 4.9088135,16.289978 4.9088135,15.581604 
		2.8425903,15.581604 	"/>
	<polygon points="7.9273682,15.0288086 7.916626,15.0288086 6.3173218,12.4581299 5.4801025,12.4581299 5.4801025,16.289978 
		6.2689819,16.289978 6.2689819,13.7246704 6.2797241,13.7246704 7.8737183,16.289978 8.7163086,16.289978 8.7163086,12.4581299 
		7.9273682,12.4581299 	"/>
	<path d="M11.2399292,14.8463745h0.8479004c-0.0483398,0.531311-0.3649292,0.8265381-0.9123535,0.8265381
		c-0.7567749,0-1.0411987-0.644104-1.0411987-1.2827148c0-0.6708984,0.2844238-1.3148804,1.0411987-1.3148804
		c0.3970947,0,0.7137451,0.2199707,0.8103027,0.6439819h0.8051147c-0.0913086-0.8693848-0.8319092-1.352417-1.6154175-1.352417
		c-1.1860962,0-1.8837891,0.885498-1.8837891,2.0233154c0,1.1055298,0.6976929,1.9910889,1.8837891,1.9910889
		c0.3703003,0,0.7567139-0.1448975,1.0519409-0.526001l0.0857544,0.4346924h0.5367432v-2.0715942h-1.6099854V14.8463745z"/>
	<rect x="13.5303955" y="12.4581299" width="0.8425903" height="3.8318481"/>
	<polygon points="17.5604858,15.0288086 17.5496826,15.0288086 15.9503784,12.4581299 15.1132202,12.4581299 15.1132202,16.289978 
		15.9020996,16.289978 15.9020996,13.7246704 15.9127808,13.7246704 17.5067749,16.289978 18.3494263,16.289978 
		18.3494263,12.4581299 17.5604858,12.4581299 	"/>
	<polygon points="19.9337769,15.581604 19.9337769,14.642395 21.7907104,14.642395 21.7907104,13.9876709 19.9337769,13.9876709 
		19.9337769,13.1665039 21.9570923,13.1665039 21.9570923,12.4581299 19.0911865,12.4581299 19.0911865,16.289978 22,16.289978 
		22,15.581604 	"/>
</g>
</svg>
