<?xml version="1.0" encoding="utf-8"?>
<!-- Generator: Adobe Illustrator 28.0.0, SVG Export Plug-In . SVG Version: 6.00 Build 0)  -->
<svg version="1.1" id="Layer_1" xmlns="http://www.w3.org/2000/svg" xmlns:xlink="http://www.w3.org/1999/xlink" x="0px" y="0px"
	 viewBox="0 0 24 24" style="enable-background:new 0 0 24 24;" xml:space="preserve">
<polygon points="21.75,11.25 17.2537842,11.25 20.7037964,7.75 19.6500244,6.696167 15.0961914,11.25 12.75,11.25 12.75,8.9038086 
	17.303772,4.3499756 16.25,3.2961426 12.75,6.7461548 12.75,2.25 11.25,2.25 11.25,6.7461548 7.75,3.2961426 6.696167,4.3499756 
	11.25,8.9038086 11.25,11.25 8.9038696,11.25 4.3499756,6.696167 3.2961426,7.75 6.7462158,11.25 2.25,11.25 2.25,12.75 
	6.7462158,12.75 3.2961426,16.25 4.3499756,17.303772 8.9038696,12.75 11.25,12.75 11.25,15.0960693 6.696167,19.6500244 
	7.75,20.7037964 11.25,17.2537842 11.25,21.75 12.75,21.75 12.75,17.2537842 16.25,20.7037964 17.303772,19.6500244 
	12.75,15.0960693 12.75,12.75 15.0961914,12.75 19.6500244,17.303772 20.7037964,16.25 17.2537842,12.75 21.75,12.75 "/>
</svg>
