<?xml version="1.0" encoding="utf-8"?>
<!-- Generator: Adobe Illustrator 28.0.0, SVG Export Plug-In . SVG Version: 6.00 Build 0)  -->
<svg version="1.1" id="Layer_1" xmlns="http://www.w3.org/2000/svg" xmlns:xlink="http://www.w3.org/1999/xlink" x="0px" y="0px"
	 viewBox="0 0 25 24" style="enable-background:new 0 0 25 24;" xml:space="preserve">
<g>
	<path d="M21.251709,8.2940063c-0.4989014-1.1556396-1.1760254-2.1608887-2.031189-3.0157471
		c-0.8552246-0.8547974-1.8609009-1.5315552-3.0170898-2.0302124C15.0473022,2.7493896,13.8123169,2.5,12.498291,2.5
		c-1.3139038,0-2.548645,0.2494507-3.7042847,0.7483521S6.6331177,4.4243164,5.7782593,5.279541
		C4.9234619,6.1347656,4.2467041,7.1404419,3.7480469,8.2965698S3,10.6876831,3,12.001709
		c0,1.3139038,0.2494507,2.5487061,0.7483521,3.7042847s1.1759644,2.1608887,2.031189,3.015686
		c0.8552246,0.8549194,1.8609009,1.5316162,3.0170288,2.0303345C9.9526978,21.2506104,11.1876831,21.5,12.501709,21.5
		c1.3139038,0,2.5487061-0.2495117,3.7042847-0.7484131c1.1555786-0.4987793,2.1608887-1.1759033,3.015686-2.0310669
		c0.8549194-0.8552246,1.5316162-1.8609009,2.0303345-3.0171509C21.7506104,14.5473022,22,13.3123169,22,11.998291
		C22,10.6843872,21.7504883,9.449646,21.251709,8.2940063z M18.1624756,17.6624756C16.604187,19.2208252,14.7166748,20,12.5,20
		s-4.104187-0.7791748-5.6624756-2.3375244C5.2791748,16.104187,4.5,14.2166748,4.5,12s0.7791748-4.104187,2.3375244-5.6624756
		C8.395813,4.7791748,10.2833252,4,12.5,4s4.104187,0.7791748,5.6624756,2.3375244C19.7208252,7.895813,20.5,9.7833252,20.5,12
		S19.7208252,16.104187,18.1624756,17.6624756z"/>
	<polygon points="13.25,7 11.75,7 11.75,12.303772 15.9730835,16.5269165 17.0269165,15.4730835 13.25,11.6959229 	"/>
</g>
</svg>
