<?xml version="1.0" encoding="utf-8"?>
<!-- Generator: Adobe Illustrator 28.1.0, SVG Export Plug-In . SVG Version: 6.00 Build 0)  -->
<svg version="1.1" id="Layer_1" xmlns="http://www.w3.org/2000/svg" xmlns:xlink="http://www.w3.org/1999/xlink" x="0px" y="0px"
	 viewBox="0 0 24 24" style="enable-background:new 0 0 24 24;" xml:space="preserve">
<path d="M11.3846,20.5V19h7.3077c0.0833,0,0.1554-0.0257,0.2163-0.0769C18.9695,18.8718,19,18.8045,19,18.7211v-6.9942
	c0-1.9116-0.684-3.5209-2.0519-4.8279C15.5801,5.592,13.9307,4.9384,12,4.9384c-1.9308,0-3.5801,0.6535-4.9481,1.9606
	C5.6839,8.206,5,9.8153,5,11.7269v5.8884H4.25c-0.4795,0-0.891-0.167-1.2346-0.5009C2.6718,16.7804,2.5,16.3737,2.5,15.8942v-1.9423
	c0-0.3244,0.0923-0.6215,0.2769-0.8913c0.1846-0.2699,0.4256-0.4869,0.7231-0.651l0.0462-1.2769
	c0.082-1.0885,0.3647-2.0968,0.848-3.025c0.4833-0.9282,1.1032-1.7362,1.8596-2.4241C7.0102,4.9958,7.8833,4.4599,8.873,4.076
	C9.8628,3.692,10.9051,3.5,12,3.5c1.0948,0,2.1346,0.192,3.1192,0.576c0.9846,0.384,1.8577,0.9173,2.6192,1.6
	C18.5,6.3587,19.1198,7.1641,19.598,8.0923c0.4782,0.9282,0.7635,1.9365,0.8558,3.025L20.5,12.3692
	c0.291,0.1372,0.5304,0.3333,0.7182,0.5885C21.406,13.2128,21.5,13.4974,21.5,13.8115v2.2327c0,0.3141-0.094,0.5987-0.2818,0.8538
	c-0.1878,0.2552-0.4272,0.4513-0.7182,0.5885v1.2346c0,0.4923-0.1767,0.9119-0.5299,1.2587
	C19.6169,20.3266,19.191,20.5,18.6923,20.5H11.3846z M9.1923,13.7692c-0.2449,0-0.4535-0.083-0.6259-0.249
	c-0.1724-0.1661-0.2586-0.3715-0.2586-0.6164s0.0862-0.4519,0.2586-0.6211c0.1724-0.1693,0.3811-0.2539,0.6259-0.2539
	s0.4535,0.0846,0.6259,0.2539c0.1724,0.1692,0.2586,0.3762,0.2586,0.6211s-0.0862,0.4503-0.2586,0.6164
	C9.6458,13.6862,9.4372,13.7692,9.1923,13.7692z M14.8077,13.7692c-0.2449,0-0.4536-0.083-0.626-0.249
	c-0.1724-0.1661-0.2587-0.3715-0.2587-0.6164s0.0863-0.4519,0.2587-0.6211c0.1724-0.1693,0.3811-0.2539,0.626-0.2539
	c0.2448,0,0.4535,0.0846,0.6259,0.2539c0.1724,0.1692,0.2587,0.3762,0.2587,0.6211s-0.0863,0.4503-0.2587,0.6164
	C15.2612,13.6862,15.0525,13.7692,14.8077,13.7692z M6.3712,12.2C6.2673,10.5679,6.775,9.1714,7.8942,8.0105
	c1.1192-1.1609,2.5045-1.7413,4.1558-1.7413c1.3871,0,2.6112,0.4292,3.6721,1.2875c1.0609,0.8583,1.7048,1.9695,1.9317,3.3337
	c-1.4205-0.0167-2.733-0.3898-3.9375-1.1193c-1.2045-0.7295-2.1291-1.7295-2.774-3c-0.2538,1.2436-0.7859,2.3429-1.5961,3.298
	C8.5359,11.0243,7.5442,11.7346,6.3712,12.2z"/>
</svg>
