<?xml version="1.0" encoding="utf-8"?>
<!-- Generator: Adobe Illustrator 28.1.0, SVG Export Plug-In . SVG Version: 6.00 Build 0)  -->
<svg version="1.1" id="Layer_1" xmlns="http://www.w3.org/2000/svg" xmlns:xlink="http://www.w3.org/1999/xlink" x="0px" y="0px"
	 viewBox="0 0 24 24" style="enable-background:new 0 0 24 24;" xml:space="preserve">
<path d="M18.4403,21.5c-1.8846,0-3.7778-0.4382-5.6797-1.3145c-1.902-0.8763-3.6494-2.1125-5.2423-3.7086
	c-1.5929-1.5962-2.8276-3.3436-3.7039-5.2423C2.9381,9.3359,2.5,7.4442,2.5,5.5596c0-0.3028,0.1-0.555,0.3-0.7569S3.25,4.5,3.55,4.5
	h3.2615c0.2526,0,0.4753,0.0824,0.6683,0.2471C7.6727,4.9119,7.7955,5.1154,7.848,5.3577L8.4211,8.3
	c0.0398,0.2731,0.0314,0.5077-0.025,0.7038C8.3397,9.2,8.2384,9.3647,8.0922,9.498l-2.3096,2.2481
	c0.3718,0.6808,0.7965,1.3247,1.2741,1.9318c0.4776,0.607,0.9946,1.1868,1.5509,1.7394c0.5487,0.5487,1.1321,1.0583,1.7501,1.5289
	c0.6179,0.4705,1.2852,0.9083,2.0019,1.3134l2.2442-2.2634c0.1564-0.1629,0.3459-0.277,0.5683-0.3423
	c0.2224-0.0654,0.4535-0.0815,0.6933-0.0481l2.7769,0.5654c0.2525,0.0666,0.4586,0.1955,0.6182,0.3865s0.2395,0.4077,0.2395,0.65
	V20.45c0,0.3-0.101,0.55-0.3028,0.75C18.9954,21.4,18.7431,21.5,18.4403,21.5z M5.0731,10.3269l1.7846-1.7077
	c0.0321-0.0257,0.0529-0.0609,0.0625-0.1058c0.0096-0.0449,0.008-0.0865-0.0048-0.125L6.4808,6.1538
	C6.4679,6.1025,6.4455,6.0641,6.4134,6.0384C6.3814,6.0128,6.3397,6,6.2884,6H4.15C4.1115,6,4.0795,6.0128,4.0538,6.0384
	C4.0282,6.0641,4.0153,6.0961,4.0153,6.1346c0.0513,0.6833,0.1631,1.3776,0.3356,2.0827C4.5234,8.9224,4.7641,9.6256,5.0731,10.3269
	z M13.773,18.9692c0.6629,0.309,1.3542,0.5452,2.0741,0.7087c0.7199,0.1634,1.3926,0.2605,2.0183,0.2913
	c0.0384,0,0.0705-0.0128,0.0961-0.0384C17.9872,19.9051,18,19.873,18,19.8346v-2.1038c0-0.0513-0.0128-0.093-0.0385-0.1251
	c-0.0256-0.032-0.0641-0.0545-0.1154-0.0673l-2.1-0.4269c-0.0384-0.0128-0.0721-0.0144-0.1009-0.0048
	c-0.0289,0.0096-0.0593,0.0305-0.0914,0.0625L13.773,18.9692z M16.7514,12c-1.3138,0-2.4341-0.463-3.361-1.389
	C12.4634,9.6851,12,8.5652,12,7.2514c0-1.3138,0.463-2.4341,1.3889-3.361C14.3149,2.9635,15.4348,2.5,16.7485,2.5
	c1.3138,0,2.4341,0.463,3.3611,1.389C21.0365,4.8149,21.5,5.9348,21.5,7.2486c0,1.3138-0.463,2.4341-1.389,3.361
	C19.185,11.5365,18.0651,12,16.7514,12z M16.3077,10.1923h0.8846V6.4039h-0.8846V10.1923z M16.75,5.3461
	c0.1333,0,0.25-0.05,0.35-0.15c0.1-0.1,0.15-0.2167,0.15-0.35s-0.05-0.25-0.15-0.35s-0.2167-0.15-0.35-0.15
	c-0.1334,0-0.25,0.05-0.35,0.15s-0.15,0.2167-0.15,0.35s0.05,0.25,0.15,0.35C16.5,5.2962,16.6166,5.3461,16.75,5.3461z"/>
</svg>
