<?xml version="1.0" encoding="utf-8"?>
<!-- Generator: Adobe Illustrator 28.0.0, SVG Export Plug-In . SVG Version: 6.00 Build 0)  -->
<svg version="1.1" id="Layer_1" xmlns="http://www.w3.org/2000/svg" xmlns:xlink="http://www.w3.org/1999/xlink" x="0px" y="0px"
	 viewBox="0 0 24 24" style="enable-background:new 0 0 24 24;" xml:space="preserve">
<path d="M18.9689941,9.0310669C18.6149902,8.677002,18.1893921,8.5,17.6923218,8.5H16.5v-2
	c0-1.2486572-0.4378052-2.3108521-1.3134766-3.1864624C14.3109131,2.4378662,13.2487183,2.000061,12,2.000061
	S9.6891479,2.4378662,8.8134766,3.3135376C7.9378662,4.1891479,7.5,5.2513428,7.5,6.5H9c0-0.833313,0.291687-1.541626,0.875-2.125
	C10.458313,3.791687,11.166687,3.5,12,3.5s1.541687,0.291687,2.125,0.875C14.708313,4.958374,15,5.666687,15,6.5v2H6.3077393
	c-0.4971313,0-0.9226685,0.177002-1.2766724,0.5310669C4.677002,9.3850708,4.5,9.8106079,4.5,10.3076782v9.3846436
	c0,0.4970703,0.177002,0.9226685,0.5310669,1.2766724C5.3850708,21.322998,5.8106079,21.5,6.3077393,21.5h11.3845825
	c0.4970703,0,0.9226685-0.177002,1.2766724-0.5310059S19.5,20.1893921,19.5,19.6923218v-9.3846436
	C19.5,9.8106079,19.322998,9.3850708,18.9689941,9.0310669z M13.2393799,16.2393799
	C12.8989868,16.5797729,12.4859009,16.75,12,16.75s-0.8989868-0.1702271-1.2393799-0.5106201S10.25,15.4859009,10.25,15
	s0.1702271-0.8989868,0.5106201-1.2393799S11.5140991,13.25,12,13.25s0.8989868,0.1702271,1.2393799,0.5106201
	S13.75,14.5140991,13.75,15S13.5797729,15.8989868,13.2393799,16.2393799z"/>
</svg>
