<?xml version="1.0" encoding="utf-8"?>
<!-- Generator: Adobe Illustrator 28.0.0, SVG Export Plug-In . SVG Version: 6.00 Build 0)  -->
<svg version="1.1" id="Layer_1" xmlns="http://www.w3.org/2000/svg" xmlns:xlink="http://www.w3.org/1999/xlink" x="0px" y="0px"
	 viewBox="0 0 24 24" style="enable-background:new 0 0 24 24;" xml:space="preserve">
<style type="text/css">
	.st0{fill:#D9D9D9;filter:url(#Adobe_OpacityMaskFilter);}
	.st1{mask:url(#mask0_2_1392_00000094590685457666886670000017406733601769752724_);}
</style>
<g>
	<polygon points="7.3158569,15.6107178 14.7792969,15.6107178 14.9968872,14.5081177 7.0982666,14.5081177 	"/>
	<polygon points="21.0452271,7.09729 21.0450439,7.1002197 21.0452271,7.1021729 	"/>
	<path d="M16.4240112,2.0221558c-1.2647095-0.1188965-2.5281982,0.2386475-3.5430908,1.0026245
		c-1.0148926,0.763916-1.7080078,1.8792114-1.9437256,3.1274414H7.3175659V4.7540283H6.2149048v1.5061646
		C5.9303589,6.3522949,5.6688232,6.5042725,5.447937,6.7059937C5.2270508,6.9076538,5.052002,7.1543579,4.9345093,7.4293823
		L3.8675537,9.9261475L3.1627808,9.7296753C2.9238892,9.6630249,2.6682739,9.6940308,2.4522095,9.8158569
		s-0.3748779,0.3244629-0.4415894,0.5633545c-0.0198975,0.0723877-0.010376,0.1496582,0.0266113,0.2149658
		c0.0370483,0.0653076,0.0983887,0.1132202,0.1707153,0.1333008l1.1829834,0.3248291L3.019104,11.9260254
		c-0.3614502,0.8469849-0.5473633,1.7584839-0.5464478,2.6793823v7.3887939h2.2068481v-2.121582h12.7297974v2.1264648h2.2036133
		v-7.3887939c0.0009155-0.9208984-0.1849976-1.8323975-0.5463867-2.6793823l-0.2598267-0.6113892
		c0.6895752-0.4674072,1.2542725-1.0966187,1.6444702-1.8326416c0.3897705-0.7351685,0.5935669-1.5545044,0.5938721-2.3866577
		c0.0006104-1.2694702-0.4723511-2.4937134-1.3267212-3.4328613C18.8635254,2.7277222,17.6887207,2.1409912,16.4240112,2.0221558z
		 M5.9478149,7.8605347c0.0762939-0.1801758,0.2039795-0.3339233,0.3671875-0.4419556s0.3546143-0.1655273,0.550293-0.1654053
		h3.9915771c0.0316162,1.0542603,0.3924561,2.0721436,1.0319214,2.9109497H4.9677734L5.9478149,7.8605347z M18.5111084,18.7706909
		h-3.5109253l-0.2175903-1.1002197H7.3126831l-0.5464478,1.1002197H3.5736694v-3.9420166l2.6079712,0.7243042l-0.2387085-1.2114868
		l-2.2791748-0.6333008c0.0671997-0.4627075,0.19104-0.9152832,0.3686523-1.3477783l0.4668579-1.0978394h8.5149536
		c0.6890869,0.4935303,1.4917603,0.8044434,2.3334961,0.9038086c0.8416138,0.0993042,1.6947021-0.0159912,2.4797974-0.3353882
		l0.225708,0.5302124c0.1771851,0.4317017,0.3007812,0.883606,0.3677979,1.3453979l-2.2678223,0.6292725l-0.2387085,1.2106323
		l2.5983276-0.7210083L18.5111084,18.7706909z M18.7713013,9.9289551c-0.7498169,0.7498169-1.7664185,1.1716309-2.8267822,1.1729736
		h-0.0016479c-0.7909546-0.0004272-1.5640869-0.2352295-2.2215576-0.6749268
		c-0.6575928-0.4396973-1.1699829-1.0644531-1.4724121-1.7953491c-0.3024902-0.730835-0.3815308-1.5350342-0.2269897-2.310791
		c0.15448-0.7757568,0.5355835-1.4882812,1.0949707-2.0474243c0.5595093-0.5592041,1.2720947-0.9400024,2.0479126-1.0941772
		c0.7758789-0.1542358,1.5800171-0.0748901,2.31073,0.2278442c0.7307739,0.3027954,1.3552856,0.8154297,1.7947998,1.4731445
		c0.4393921,0.6577148,0.6738892,1.4309692,0.6738892,2.2219238C19.9428711,8.1625366,19.5211182,9.1791382,18.7713013,9.9289551z"
		/>
	<path d="M15.4760742,6.8427124c0.1469116,0.0604858,0.3046265,0.0901489,0.463501,0.0872803
		c0.277832-0.0011597,0.5467529-0.0985107,0.7608032-0.2755127c0.2142334-0.177002,0.3603516-0.4227905,0.4136963-0.6954346
		s0.0106201-0.5553589-0.1210938-0.8000488c-0.1315918-0.2446899-0.3438721-0.4361572-0.6008911-0.5419312
		c-0.256897-0.1057739-0.5424805-0.1192017-0.8081665-0.0380859c-0.2658081,0.0811157-0.4952393,0.2518311-0.649231,0.4830322
		c-0.1541138,0.2312012-0.2232056,0.508667-0.1956787,0.7851562c0.0274048,0.2764893,0.1499023,0.5348511,0.3463745,0.7312622
		C15.196228,6.6922607,15.3291016,6.7822266,15.4760742,6.8427124z"/>
	<path d="M15.9468994,7.963623c-0.4296265-0.0013428-0.8572998,0.0571899-1.2706909,0.1737671
		c-0.3892822,0.1077271-0.758728,0.27771-1.093689,0.503418c0.2984619,0.3306274,0.6633911,0.5946655,1.0708008,0.7748413
		s0.8480835,0.272522,1.2935791,0.2709351c0.4423218,0.001709,0.8798828-0.0907593,1.2836914-0.2711792
		c0.4072266-0.1821289,0.7728271-0.4457397,1.0742188-0.7745972c-0.3646851-0.2176514-0.7557373-0.3879395-1.1635132-0.5066528
		C16.7531128,8.0216064,16.3510742,7.9641724,15.9468994,7.963623z"/>
</g>
</svg>
