<?xml version="1.0" encoding="utf-8"?>
<!-- Generator: Adobe Illustrator 28.0.0, SVG Export Plug-In . SVG Version: 6.00 Build 0)  -->
<svg version="1.1" id="Layer_1" xmlns="http://www.w3.org/2000/svg" xmlns:xlink="http://www.w3.org/1999/xlink" x="0px" y="0px"
	 viewBox="0 0 24 24" style="enable-background:new 0 0 24 24;" xml:space="preserve">
<path d="M18.9749756,3.0250244C18.625,2.6750488,18.1973877,2.5,17.6923218,2.5H6.3077393
	C5.8026123,2.5,5.375,2.6750488,5.0250244,3.0250244S4.5,3.8026123,4.5,4.3077393v15.3845825
	c0,0.5050659,0.1750488,0.9326782,0.5250244,1.2826538C5.375,21.3250122,5.8026123,21.5,6.3077393,21.5h11.3845825
	c0.5050659,0,0.9326782-0.1749878,1.2826538-0.5250244C19.3250122,20.625,19.5,20.1973877,19.5,19.6923218V4.3077393
	C19.5,3.8026123,19.3250122,3.375,18.9749756,3.0250244z M16,10.5576782l-2.25-1.3461304l-2.25,1.3461304V4H16V10.5576782z"/>
</svg>
