<?xml version="1.0" encoding="utf-8"?>
<!-- Generator: Adobe Illustrator 28.0.0, SVG Export Plug-In . SVG Version: 6.00 Build 0)  -->
<svg version="1.1" id="Layer_1" xmlns="http://www.w3.org/2000/svg" xmlns:xlink="http://www.w3.org/1999/xlink" x="0px" y="0px"
	 viewBox="0 0 24 24" style="enable-background:new 0 0 24 24;" xml:space="preserve">
<path d="M20.4008789,5.6828003c-0.065979-0.1885376-0.1765747-0.3552856-0.331665-0.5001221L18.8480835,3.946167
	c-0.1448975-0.1551514-0.3112793-0.2682495-0.4992676-0.3394165C18.1608887,3.5355835,17.9666138,3.5,17.7661743,3.5
	c-0.2005005,0-0.3921509,0.0374756-0.5748901,0.1123657c-0.1826782,0.0749512-0.3496704,0.1810913-0.5008545,0.3184204
	L3.5,17.1154175V20.5h3.3845825L20.0692139,7.3249512c0.1497803-0.1512451,0.2590942-0.3181763,0.3277588-0.5009155
	C20.4655762,6.6412964,20.5,6.4494019,20.5,6.2483521C20.5,6.0598145,20.46698,5.8712769,20.4008789,5.6828003z
	 M17.5518799,7.6942139l-1.2460938-1.2461548L17.7443237,5L19,6.2557373L17.5518799,7.6942139z"/>
</svg>
