<?xml version="1.0" encoding="utf-8"?>
<!-- Generator: Adobe Illustrator 28.0.0, SVG Export Plug-In . SVG Version: 6.00 Build 0)  -->
<svg version="1.1" id="Layer_1" xmlns="http://www.w3.org/2000/svg" xmlns:xlink="http://www.w3.org/1999/xlink" x="0px" y="0px"
	 viewBox="0 0 24 24" style="enable-background:new 0 0 24 24;" xml:space="preserve">
<path d="M20.7515869,8.2940063c-0.4987793-1.1556396-1.1759033-2.1608887-2.0310669-3.0157471
	c-0.8552246-0.8547974-1.8609009-1.5315552-3.0170898-2.0302124C14.5473022,2.7493896,13.3123169,2.5,11.998291,2.5
	c-1.3139038,0-2.548645,0.2494507-3.7042847,0.7483521S6.1331177,4.4243164,5.2782593,5.279541
	C4.4234619,6.1347656,3.7467041,7.1404419,3.2480469,8.2965698S2.5,10.6876831,2.5,12.001709
	c0,1.3139038,0.2494507,2.5487061,0.7483521,3.7042847s1.1759644,2.1608887,2.031189,3.015686
	c0.8552246,0.8549194,1.8609009,1.5316162,3.0170288,2.0303345C9.4526978,21.2506104,10.6876831,21.5,12.001709,21.5
	c1.3139038,0,2.5487061-0.2495117,3.7042847-0.7484131c1.1555786-0.4987793,2.1608887-1.1759033,3.015686-2.0310669
	c0.8549194-0.8552246,1.5316162-1.8609009,2.0303345-3.0171509C21.2506104,14.5473022,21.5,13.3123169,21.5,11.998291
	C21.5,10.6843872,21.2504883,9.449646,20.7515869,8.2940063z M16.75,12.75h-9.5v-1.5h9.5V12.75z"/>
</svg>
