<?xml version="1.0" encoding="utf-8"?>
<!-- Generator: Adobe Illustrator 28.0.0, SVG Export Plug-In . SVG Version: 6.00 Build 0)  -->
<svg version="1.1" id="Layer_1" xmlns="http://www.w3.org/2000/svg" xmlns:xlink="http://www.w3.org/1999/xlink" x="0px" y="0px"
	 viewBox="0 0 24 24" style="enable-background:new 0 0 24 24;" xml:space="preserve">
<style type="text/css">
	.st0{fill:#D9D9D9;filter:url(#Adobe_OpacityMaskFilter);}
	.st1{mask:url(#mask0_2_1298_00000093135381596440715600000012377414572490145410_);}
</style>
<g>
	<path d="M19.9085083,7.7840576c-0.3414917-0.0571289-0.6882935-0.0765991-1.0341187-0.0580444
		c-0.2954102,0.0264282-0.5844727,0.100647-0.8560791,0.2197266l-3.2698364,1.4143066v0.0048218l-1.8479614,0.7994385
		l-0.425415-0.9594116H7.6526489V7.9229126h1.2705078V7H5.4534302v0.9229126h1.2745361v1.2810669H3.5219116V9.2026367H2v0.9769897
		h1.5197144v4.3355713h9.923584l3.911377-5.213623l0.8091431-0.348938V8.9495239l0.2398682-0.1036987
		c0.151001-0.0666504,0.3109131-0.1110229,0.4747314-0.1318359c0.1141968-0.0103149,0.2290039-0.0126953,0.3435669-0.007019
		c0.2026367-0.317749,0.4276123-0.6206055,0.6733398-0.90625L19.9085083,7.7840576z M12.8934937,13.5413208H4.4980469v-3.3612061
		h7.3415527l0.5643311,1.2744751l0.8925781-0.3955078l2.2593994-0.9760742L12.8934937,13.5413208z"/>
	<path d="M21.6251221,9.7700806c-0.2477417-0.4159546-0.5325317-0.8086548-0.8508301-1.1734009
		c-0.0491943,0.0562744-0.0919189,0.1173096-0.138916,0.1757812c-0.2619629,0.3139038-0.4995728,0.6473999-0.7105713,0.9976196
		c-0.2153931,0.3150024-0.3452148,0.680603-0.376709,1.0609131c0.0007324,0.1289062,0.0211792,0.257019,0.06073,0.3796997
		c0.0886841,0.2792969,0.2746582,0.517395,0.5240479,0.6712036c0.2493286,0.1538086,0.5456543,0.2130737,0.835022,0.1671143
		c0.2893066-0.0460205,0.5526123-0.1942139,0.7420044-0.4177856C21.899292,11.4075928,22.0021973,11.1235962,22,10.8306274
		C21.9689941,10.4506226,21.8397827,10.0852051,21.6251221,9.7700806z"/>
	<path d="M14.3789062,15.8920288H14.376709c-0.4376221-0.053833-0.8790283,0.0648804-1.2305298,0.3309937
		c-0.130188,0.1195068-0.2837524,0.2105713-0.4510498,0.2675781c-0.1673584,0.0570068-0.3446045,0.0784912-0.5206299,0.0632935
		c-0.3574829,0.0228271-0.7095947-0.0960693-0.9801025-0.3308716c-0.357666-0.2596436-0.7988892-0.3775024-1.2384644-0.3309937
		c-0.437561-0.0537109-0.8789062,0.0649414-1.2305298,0.3309937c-0.130127,0.1193848-0.2836304,0.2104492-0.4508667,0.2674561
		c-0.1671753,0.0570068-0.3444214,0.0786133-0.5203857,0.0634155c-0.1760864,0.0151978-0.3533325-0.0062866-0.5206299-0.0632935
		s-0.3208618-0.1480713-0.4510498-0.2675781c-0.3516235-0.2660522-0.7929688-0.3847046-1.2305908-0.3309937
		c-0.4147949-0.0512085-0.8338013,0.0544434-1.1747437,0.2961426c-0.241333,0.2183228-0.5535889,0.3417358-0.8789062,0.347229
		v0.9976807c0.4041138,0.0204468,0.8026733-0.1012573,1.1263428-0.3441772
		c0.2565308-0.2200928,0.5897217-0.329895,0.9268799-0.3054199c0.1760864-0.0151978,0.3533936,0.0062866,0.5206299,0.0632935
		c0.1672974,0.0570068,0.3209229,0.1481323,0.4510498,0.2676392c0.3516846,0.2659912,0.7929688,0.3847046,1.2305908,0.3309937
		c0.437561,0.0537109,0.8789062-0.0650024,1.2305298-0.3309937c0.130188-0.1195068,0.2838135-0.2106323,0.4510498-0.2676392
		c0.1672974-0.0570068,0.3446045-0.0784912,0.5206299-0.0632935c0.1771851-0.0126953,0.3550415,0.0100098,0.5233765,0.0668335
		c0.1682739,0.0568848,0.3234863,0.1466064,0.456665,0.2640991c0.3569336,0.2612915,0.7988281,0.3793945,1.2385254,0.3309937
		c0.4373169,0.0496826,0.8771973-0.0686035,1.2305298-0.3309937c0.1312866-0.1177368,0.2850952-0.2078247,0.4520874-0.2645874
		c0.1669922-0.0569458,0.343689-0.0794067,0.5195923-0.0663452c0.3372192-0.0244751,0.6704102,0.0853271,0.9268799,0.3054199
		c0.3186035,0.2416992,0.7120361,0.3635254,1.1113892,0.3441772v-0.9976807
		c-0.3227539-0.0042725-0.6325684-0.1279907-0.8696899-0.347229C15.2080078,15.9453735,14.7911987,15.8395996,14.3789062,15.8920288
		z"/>
</g>
</svg>
