<?xml version="1.0" encoding="utf-8"?>
<!-- Generator: Adobe Illustrator 28.1.0, SVG Export Plug-In . SVG Version: 6.00 Build 0)  -->
<svg version="1.1" id="Layer_1" xmlns="http://www.w3.org/2000/svg" xmlns:xlink="http://www.w3.org/1999/xlink" x="0px" y="0px"
	 viewBox="0 0 24 24" style="enable-background:new 0 0 24 24;" xml:space="preserve">
<path d="M6,10.2h6V5.3c0-0.1,0-0.1-0.1-0.2C11.8,5,11.8,5,11.7,5H6.3C6.2,5,6.2,5,6.1,5.1C6,5.2,6,5.2,6,5.3V10.2z M4.5,20.5V5.3
	C4.5,4.8,4.7,4.4,5,4s0.8-0.5,1.3-0.5h5.4c0.5,0,0.9,0.2,1.3,0.5c0.3,0.3,0.5,0.8,0.5,1.3v6.5h1.1c0.5,0,0.8,0.2,1.2,0.5
	c0.3,0.3,0.5,0.7,0.5,1.2v4.6c0,0.3,0.1,0.6,0.4,0.9c0.3,0.2,0.6,0.4,0.9,0.4c0.3,0,0.6-0.1,0.9-0.4c0.3-0.2,0.4-0.5,0.4-0.9V8.9
	h-0.3c-0.3,0-0.5-0.1-0.6-0.3c-0.2-0.2-0.3-0.4-0.3-0.6V6.2h0.5V4.9H19v1.3h0.9V4.9h0.9v1.3h0.5V8c0,0.3-0.1,0.5-0.3,0.6
	c-0.2,0.2-0.4,0.3-0.6,0.3H20v9.1c0,0.7-0.2,1.2-0.7,1.7c-0.5,0.5-1.1,0.7-1.8,0.7c-0.7,0-1.3-0.2-1.7-0.7c-0.5-0.5-0.7-1-0.7-1.7
	v-4.6c0-0.1,0-0.3-0.1-0.3C14.9,13,14.8,13,14.6,13h-1.1v7.5H4.5z M8.6,18.6l2.1-3.6H9.4v-2.8l-2.1,3.6h1.3V18.6z"/>
</svg>
