<?xml version="1.0" encoding="utf-8"?>
<!-- Generator: Adobe Illustrator 28.0.0, SVG Export Plug-In . SVG Version: 6.00 Build 0)  -->
<svg version="1.1" id="Layer_1" xmlns="http://www.w3.org/2000/svg" xmlns:xlink="http://www.w3.org/1999/xlink" x="0px" y="0px"
	 viewBox="0 0 24 24" style="enable-background:new 0 0 24 24;" xml:space="preserve">
<path d="M20.4951782,9.9057617c-0.6057739-1.0269165-1.5232544-1.5403442-2.7525024-1.5403442
	c-0.2579956,0-0.5045776,0.0259399-0.7398682,0.0778809c-0.2352295,0.0519409-0.4849243,0.1246948-0.7490234,0.2182617
	l-2.3192139,0.8596191c-0.1077881-0.0897827-0.2264404-0.1682739-0.355896-0.2355957
	c-0.1293945-0.0673218-0.2632446-0.1323853-0.4017944-0.1951904C13.27948,8.6160278,13.449707,8.1762695,13.6875,7.7711182
	c0.237793-0.4050903,0.5432739-0.7307129,0.9163208-0.9769287c0.3551636-0.2345581,0.6156616-0.5377808,0.7817993-0.9095459
	c0.1659546-0.3718262,0.2489624-0.7470093,0.2489624-1.1257324c0-0.5534058-0.1947021-1.0522461-0.5841064-1.4963989
	c-0.3894043-0.4442139-0.9588013-0.6663208-1.7081909-0.6663208c-1.5166016,0-2.7252808,0.3496704-3.6259155,1.0490112
	s-1.3509521,1.569519-1.3509521,2.6105957c0,0.2410278,0.0300903,0.4852295,0.0903931,0.732666
	c0.0602417,0.2474365,0.137146,0.5,0.2307739,0.7576904l0.8345947,2.3192749
	c-0.0986938,0.1153564-0.1810913,0.2374878-0.2471313,0.366272c-0.06604,0.1289062-0.1271973,0.2592773-0.1836548,0.3914185
	C8.6160278,10.72052,8.1779175,10.550293,7.776001,10.3125c-0.4019775-0.237793-0.7260132-0.5432739-0.972168-0.9163208
	C6.5692139,9.0410156,6.2676392,8.7804565,5.8990479,8.6144409S5.1519165,8.3654175,4.7634888,8.3654175
	c-0.5546265,0-1.0544434,0.1947021-1.4995728,0.5840454c-0.4451294,0.3894043-0.6677246,0.9588013-0.6677246,1.708252
	c0,1.6281738,0.3673096,2.8648071,1.1019287,3.7095947c0.7346191,0.8449097,1.5800171,1.2672729,2.5362549,1.2672729
	c0.2580566,0,0.5084839-0.0300903,0.7513428-0.0903931s0.4963379-0.137207,0.760437-0.2307739l2.3192749-0.8345947
	c0.1153564,0.0986938,0.2374878,0.1810913,0.366394,0.2470703c0.1287842,0.0661011,0.2592773,0.1273193,0.3912964,0.1837158
	C10.72052,15.3839722,10.550293,15.8220825,10.3125,16.223999c-0.237793,0.4019775-0.5432739,0.7260132-0.9163208,0.9721069
	c-0.3551636,0.2346802-0.6157227,0.5336914-0.7817383,0.8970947c-0.1660156,0.3635254-0.2490234,0.7354736-0.2490234,1.1159058
	c0,0.5706177,0.1947021,1.0789795,0.5841064,1.5252686c0.3894043,0.4463501,0.9588013,0.6694336,1.7081909,0.6694336
	c1.6378784,0,2.8778076-0.3814087,3.7197876-1.1442261c0.8419189-0.7628784,1.2609253-1.6314087,1.2570801-2.6057739
	c0-0.2346191-0.0305786-0.4645386-0.0917969-0.6896362c-0.0610962-0.2251587-0.1375732-0.461853-0.2293701-0.7103882
	l-0.8345947-2.3192139c0.0986938-0.1217651,0.1810913-0.2454834,0.2471924-0.3711548
	c0.065979-0.1256104,0.1271973-0.2545166,0.1835938-0.3865356C15.3839722,13.27948,15.8220825,13.449585,16.223999,13.6875
	c0.4019775,0.237793,0.7260132,0.5432739,0.972229,0.9163208c0.2345581,0.3551636,0.5252686,0.6156616,0.8720703,0.7816772
	c0.3468018,0.1660767,0.7034302,0.2490845,1.0700073,0.2490845c0.5718994,0,1.0924072-0.1947021,1.5617065-0.5841064
	c0.4691772-0.3894043,0.7037964-0.9588013,0.7037964-1.7081909C21.4038086,12.078186,21.1008911,10.9326782,20.4951782,9.9057617z
	 M7.0942383,13.9500122c-0.3486938,0.1231079-0.6365356,0.1845703-0.8634644,0.1845703
	c-0.6937256,0-1.2229614-0.3493652-1.5876465-1.0481567c-0.364624-0.6988525-0.5469971-1.5083008-0.5469971-2.4287109
	c0-0.2705078,0.0577393-0.4702148,0.1730957-0.5991211c0.1154175-0.1287842,0.2801514-0.1932373,0.4942627-0.1932373
	c0.1525269,0,0.2990112,0.0314331,0.4393921,0.0942383c0.1404419,0.0628052,0.25354,0.1519165,0.3394775,0.267334
	c0.3679199,0.5653687,0.8422852,1.0227661,1.4230347,1.3720703c0.5808105,0.3494263,1.2179565,0.5906982,1.9115601,0.723999
	c0.0102539,0.1641846,0.0358887,0.3228149,0.0769043,0.4760132s0.0974731,0.2958984,0.1692505,0.4279175L7.0942383,13.9500122z
	 M10.0499878,7.0942383c-0.0332642-0.1166382-0.0724487-0.244873-0.1173096-0.3846436
	C9.8878174,6.5698853,9.8653564,6.4198608,9.8653564,6.2596436c0.0341187-0.8547363,0.4602661-1.4289551,1.2783203-1.7227783
	c0.8181152-0.2938232,1.5509033-0.4407349,2.1986084-0.4407349c0.2705078,0,0.4702148,0.0643921,0.5991211,0.1931763
	c0.1287842,0.1287842,0.1931763,0.2868652,0.1931763,0.4741821c0,0.1820679-0.0313721,0.3358765-0.0941772,0.4615479
	c-0.0628052,0.1256104-0.1519165,0.2313843-0.267334,0.3173218c-0.5653687,0.3679199-1.0227661,0.8422852-1.3720703,1.4230347
	c-0.3494263,0.5808105-0.5906982,1.2179565-0.723999,1.9115601c-0.1513062,0.0102539-0.3035889,0.0343018-0.4567871,0.0721436
	c-0.1531982,0.0377808-0.3023071,0.0925903-0.4471436,0.1643677L10.0499878,7.0942383z M10.3461914,12.0023193
	c0-0.460144,0.1602173-0.8511353,0.4807129-1.1730957c0.3204956-0.3221436,0.7108154-0.4831543,1.1707764-0.4831543
	c0.460144,0,0.8511353,0.1603394,1.1730957,0.480835c0.3220215,0.3204956,0.4831543,0.7108154,0.4831543,1.1707764
	c0,0.460144-0.1603394,0.8511353-0.480835,1.1730957c-0.3204956,0.3220215-0.7108154,0.4830322-1.1707764,0.4830322
	c-0.460144,0-0.8511353-0.1602173-1.1730957-0.4807129C10.5072021,12.8526001,10.3461914,12.4622803,10.3461914,12.0023193z
	 M13.0089111,19.3952026c-0.7709961,0.3391113-1.5548096,0.508606-2.3511963,0.508606
	c-0.2808228,0-0.4805298-0.0692139-0.598999-0.2077026c-0.1186523-0.1384277-0.1831055-0.2999878-0.1933594-0.4846191
	c-0.0102539-0.1422729,0.0202026-0.2835693,0.0913696-0.4240112c0.071167-0.1403809,0.1611938-0.2503662,0.2702026-0.329895
	c0.5653687-0.3678589,1.0227661-0.8421631,1.3720703-1.4229736c0.3494263-0.5808105,0.5906982-1.2180176,0.7241211-1.9116211
	c0.131958-0.0101929,0.27948-0.0343018,0.4422607-0.0720825c0.1628418-0.0377808,0.3167114-0.0958252,0.4615479-0.1740112
	l0.7230835,2.0288086c0.0332642,0.0999756,0.0723877,0.213501,0.1173096,0.340271
	c0.0448608,0.1269531,0.0672607,0.2628174,0.0672607,0.4078369C14.1550903,18.4755859,13.7799072,19.0560913,13.0089111,19.3952026z
	 M19.6760254,13.9663086c-0.1520386,0.1121826-0.3275146,0.1682739-0.5267334,0.1682739
	c-0.1326904,0-0.2655029-0.0346069-0.3983154-0.1037598c-0.1326904-0.0693359-0.2304688-0.1552124-0.2932739-0.2577515
	c-0.367981-0.5653687-0.8422852-1.0227661-1.4230957-1.3720703c-0.5808105-0.3494263-1.2180176-0.5906982-1.911499-0.7241211
	c-0.0103149-0.1513062-0.0358887-0.3050537-0.0770264-0.4614868c-0.0409546-0.1563721-0.0941772-0.303894-0.1596069-0.4423218
	l2.0193481-0.7480469c0.1229858-0.0397949,0.2528076-0.076355,0.3894043-0.1096802
	c0.1364746-0.0333252,0.2848511-0.0499878,0.4451904-0.0499878c0.8724976,0.0170898,1.4511719,0.4388428,1.736084,1.265564
	c0.2849121,0.8265991,0.4274292,1.5636597,0.4274292,2.2113647C19.9039307,13.6461182,19.8278809,13.854187,19.6760254,13.9663086z"
	/>
</svg>
