<?xml version="1.0" encoding="utf-8"?>
<!-- Generator: Adobe Illustrator 28.0.0, SVG Export Plug-In . SVG Version: 6.00 Build 0)  -->
<svg version="1.1" id="Layer_1" xmlns="http://www.w3.org/2000/svg" xmlns:xlink="http://www.w3.org/1999/xlink" x="0px" y="0px"
	 viewBox="0 0 24 24" style="enable-background:new 0 0 24 24;" xml:space="preserve">
<path d="M18.9749756,4.0250244C18.625,3.6750488,18.1973877,3.5,17.6923218,3.5h-5.3846436
	c-0.5050659,0-0.9326782,0.1750488-1.2826538,0.5250244C10.6749878,4.375,10.5,4.8026123,10.5,5.3077393v6.499939H9.5385132
	c-0.4971313,0-0.9226685,0.177002-1.2766724,0.5310059S7.730835,13.1182861,7.730835,13.6154175v4.5383911
	c0,0.3217773-0.1118774,0.5946045-0.3355713,0.8182983c-0.2237549,0.2236938-0.496521,0.3355713-0.8182983,0.3355713
	s-0.5945435-0.1118774-0.8182373-0.3355713c-0.2237549-0.2236938-0.3356323-0.496521-0.3356323-0.8182983v-7.0076294
	c0.1500244,0.0897217,0.3083496,0.1519165,0.4749756,0.1865234c0.166687,0.0346069,0.3416748,0.0518799,0.5250244,0.0518799
	c0.6138306,0,1.1326904-0.211853,1.5565186-0.6356812c0.4238281-0.4238892,0.6358032-0.942749,0.6358032-1.5565796
	c0-0.494873-0.1410522-0.9355469-0.4230957-1.3220825s-0.6551514-0.645874-1.1192017-0.7778931L9.3269653,4.838501L8.4885254,4
	L4.9231567,7.5039062c-0.2243652,0.2243042-0.395874,0.4842529-0.5144653,0.7797241
	C4.2901001,8.5791626,4.230835,8.882019,4.230835,9.1923218v8.9614868c0,0.6568604,0.2266235,1.2122192,0.6798096,1.6657715
	C5.3638916,20.2731934,5.9187012,20.5,6.5750732,20.5s1.211792-0.2268066,1.6663208-0.6804199
	c0.4544678-0.4535522,0.6817017-1.0089111,0.6817017-1.6657715v-4.8461304c0-0.0897827,0.0288696-0.1634521,0.0865479-0.2211914
	C9.0673218,13.0288086,9.1410522,13,9.230835,13H10.5v7.5h9V5.3077393C19.5,4.8026123,19.3250122,4.375,18.9749756,4.0250244z
	 M5.7105713,8.4798584C5.9022827,8.288147,6.1397705,8.1923218,6.4230957,8.1923218s0.520813,0.0958252,0.7125244,0.2875366
	c0.1916504,0.1916504,0.2874756,0.4291382,0.2874756,0.7124634s-0.0958252,0.520813-0.2874756,0.7125244
	c-0.1917114,0.1916504-0.4291992,0.2874756-0.7125244,0.2874756s-0.520813-0.0958252-0.7125244-0.2874756
	C5.5189209,9.7131348,5.4230957,9.475647,5.4230957,9.1923218S5.5189209,8.6715088,5.7105713,8.4798584z M18,10.25h-6V5.3077393
	c0-0.0769653,0.0321045-0.1474609,0.0961914-0.2116089C12.1602783,5.0320435,12.2307739,5,12.3076782,5h5.3846436
	c0.0769043,0,0.1473999,0.0320435,0.2116089,0.0961304C17.9680176,5.1602783,18,5.2307739,18,5.3077393V10.25z"/>
</svg>
