<?xml version="1.0" encoding="utf-8"?>
<!-- Generator: Adobe Illustrator 28.0.0, SVG Export Plug-In . SVG Version: 6.00 Build 0)  -->
<svg version="1.1" id="Layer_1" xmlns="http://www.w3.org/2000/svg" xmlns:xlink="http://www.w3.org/1999/xlink" x="0px" y="0px"
	 viewBox="0 0 24 24" style="enable-background:new 0 0 24 24;" xml:space="preserve">
<style type="text/css">
	.st0{fill:#D9D9D9;filter:url(#Adobe_OpacityMaskFilter);}
	.st1{mask:url(#mask0_2_1511_00000067952205120861174150000003487255936237451667_);}
</style>
<g>
	<path d="M17.5283203,2v4.7941895l-3.0750122,9.9116211H4V22h11.7650146v-1.7650146H5.666687v-1.7641602h8.5682983
		c0.4435425,0.0023804,0.8760986-0.1369019,1.2349854-0.397522C15.8369751,17.8164062,16.0982056,17.4349976,16.2050171,17
		l3.0882568-10.3825073V2H17.5283203z"/>
	<path d="M7.644165,10.6132812h1.166687C8.8041992,10.210083,8.949707,9.8191528,9.2183228,9.5183105
		C9.6311035,9.0187378,9.8531494,8.388855,9.8449707,7.7408447c0.0081787-0.6480103-0.2138672-1.2778931-0.6266479-1.7775269
		C8.9497681,5.6621704,8.8043213,5.2709961,8.8108521,4.8674927C8.8043213,4.46521,8.9495239,4.0751343,9.2175293,3.7750244
		C9.6308594,3.2766113,9.8532715,2.6473999,9.8449707,2h-1.166626C8.6848755,2.4024048,8.5400391,2.7926025,8.272522,3.0933228
		C7.8591309,3.5913696,7.6367188,4.2203369,7.6450195,4.8674927C7.6368408,5.5155029,7.8588867,6.1453857,8.2716675,6.6450195
		C8.5341187,6.949646,8.6784668,7.3383179,8.6784668,7.7404175S8.5341187,8.531189,8.2716675,8.8358154
		C7.8588867,9.3354492,7.6359863,9.965332,7.644165,10.6132812z"/>
	<path d="M10.7224731,10.6132812h1.1658325c-0.0065918-0.4031982,0.138916-0.7941284,0.4074707-1.0949707
		c0.4128418-0.4995728,0.6349487-1.1294556,0.626709-1.7774658c0.0082397-0.6480103-0.2138672-1.2778931-0.626709-1.7775269
		c-0.2684937-0.3011475-0.4140015-0.6923218-0.4074707-1.0958252c-0.0065308-0.4022827,0.1386719-0.7923584,0.4066772-1.0924683
		C12.708313,3.2766113,12.9307861,2.6473999,12.9224854,2h-1.166687c0.0065308,0.4024048-0.1383057,0.7926025-0.4058228,1.0933228
		c-0.413269,0.4980469-0.6358032,1.1270142-0.6275024,1.7741699c-0.0081787,0.6480103,0.2139282,1.2778931,0.626709,1.7775269
		c0.2623901,0.3046265,0.4067383,0.6932983,0.4067383,1.0953979s-0.1443481,0.7907715-0.4067383,1.0953979
		C10.9364014,9.3354492,10.7142944,9.965332,10.7224731,10.6132812z"/>
	<path d="M4.5666504,10.6132812h1.166687c-0.0066528-0.4031982,0.138855-0.7941284,0.4074707-1.0949707
		c0.4127808-0.4995728,0.6348267-1.1294556,0.626709-1.7774658c0.0081177-0.6480103-0.2139282-1.2778931-0.626709-1.7775269
		C5.8722534,5.6621704,5.7268066,5.2709961,5.7333374,4.8674927C5.7268677,4.46521,5.8720093,4.0751343,6.1400146,3.7750244
		C6.5533447,3.2766113,6.7757568,2.6473999,6.7675171,2H5.5999756c0.0065308,0.4024048-0.1383057,0.7926025-0.4058228,1.0933228
		C4.7808228,3.5913696,4.5583496,4.2203369,4.5666504,4.8674927c-0.0081787,0.6480103,0.2139282,1.2778931,0.626709,1.7775269
		c0.2678833,0.3015137,0.4129639,0.6925049,0.4066162,1.0958252C5.6057739,8.1430054,5.4606934,8.5327759,5.1933594,8.833313
		C4.7800293,9.3336182,4.5579224,9.9644775,4.5666504,10.6132812z"/>
</g>
</svg>
