<?xml version="1.0" encoding="UTF-8"?>
<svg id="Layer_1" xmlns="http://www.w3.org/2000/svg" viewBox="0 0 32 32">
  <path d="M26.76,14.04H7.2c-.41,0-.73.33-.73.73v3.18h-1.22c-.41,0-.73.33-.73.73v3.91c0,.41.33.73.73.73h1.22v3.18c0,.41.33.73.73.73h19.57c.41,0,.73-.33.73-.73v-11.74c0-.41-.33-.73-.73-.73ZM6.46,21.87h-.49v-2.45h.49v2.45ZM9.4,25.78h-1.47v-10.27h1.47v10.27ZM22.11,25.78h-11.25v-10.27h11.25v10.27ZM26.03,25.78h-2.45v-10.27h2.45v10.27Z"/>
  <path d="M23.07,9.14c.1.15.19.29.29.44.51.81.48,1.45-.09,2.22l-.06.08c-.09.11-.18.23-.25.37-.1.22-.09.47.03.66.14.21.38.34.66.34h0l.1-.02.06-.03c.08-.03.21-.09.31-.2,1.24-1.4,1.4-2.7.51-4.09l-.2-.3c-.2-.3-.39-.61-.57-.92-.31-.54-.28-1.06.11-1.57l.06-.08c.04-.05.08-.11.12-.16.22-.35.17-.76-.14-.99-.32-.24-.7-.2-.96.09-.99,1.11-1.15,2.15-.52,3.29.16.29.35.57.53.85Z"/>
  <path d="M9.75,9.03c.17.27.35.54.51.82.29.52.29,1.05,0,1.58-.06.1-.13.19-.19.29-.1.14-.2.28-.28.44-.09.21-.11.48-.05.73.04.17.19.26.33.33.04.02.08.05.12.07l.13.09.14-.09s.09-.05.13-.08c.11-.06.23-.13.33-.24.22-.26.41-.52.57-.77.59-.97.63-1.92.14-2.83-.19-.34-.39-.68-.6-1.01-.14-.23-.29-.47-.42-.71-.29-.49-.25-.98.1-1.5.03-.04.05-.07.08-.11.04-.05.08-.1.11-.16.22-.34.18-.75-.11-.98-.31-.25-.75-.2-1.02.12-.66.79-1.3,1.89-.38,3.42.12.19.24.38.36.57Z"/>
  <path d="M14.24,9.15c.12.19.24.37.36.57.4.66.37,1.3-.07,1.94-.05.07-.1.14-.15.2-.09.12-.17.23-.24.35-.19.32-.12.67.18.91.14.11.29.16.43.16.17,0,.33-.07.47-.21.51-.54,1.1-1.32,1.14-2.59v-.04s0-.04,0-.04c-.01-.04-.02-.1-.04-.16-.04-.19-.1-.45-.21-.7-.16-.33-.35-.64-.53-.94-.07-.11-.14-.22-.2-.34-.04-.06-.08-.13-.12-.19-.03-.04-.06-.09-.09-.13-.49-.8-.47-1.21.08-1.97.42-.57.1-.93-.06-1.06-.32-.26-.74-.2-1.06.16-.91,1.03-1.03,2.12-.35,3.31.15.26.31.51.47.76Z"/>
  <path d="M18.61,9.08c.16.25.31.49.46.74.34.59.31,1.17-.08,1.79-.05.09-.12.17-.18.25-.08.11-.16.21-.23.33-.14.23-.15.5-.03.72.13.23.37.37.67.37h.1s.06-.04.06-.04c.08-.03.22-.09.32-.2.75-.85,1.63-2.19.64-3.89-.14-.23-.28-.47-.42-.7-.18-.29-.36-.58-.52-.88-.24-.42-.22-.85.07-1.31.04-.06.09-.13.13-.19l.1-.14c.24-.35.21-.76-.08-1.01-.14-.12-.32-.18-.51-.16-.2.02-.38.12-.52.28-.97,1.18-1.09,2.18-.4,3.36.14.23.28.46.42.68Z"/>
</svg>