<?xml version="1.0" encoding="utf-8"?>
<!-- Generator: Adobe Illustrator 28.0.0, SVG Export Plug-In . SVG Version: 6.00 Build 0)  -->
<svg version="1.1" id="Layer_1" xmlns="http://www.w3.org/2000/svg" xmlns:xlink="http://www.w3.org/1999/xlink" x="0px" y="0px"
	 viewBox="0 0 24 24" style="enable-background:new 0 0 24 24;" xml:space="preserve">
<style type="text/css">
	.st0{fill:#D9D9D9;filter:url(#Adobe_OpacityMaskFilter);}
	.st1{mask:url(#mask0_2_1379_00000161633667839700801670000001801882304539855530_);}
</style>
<g>
	<path d="M21.9859009,15.0733032l-0.001709-0.0025024l-0.3599854-2.4282837
		c-0.088623-0.576416-0.3798828-1.1022949-0.8215332-1.4833374c-0.4414673-0.3808594-1.0044556-0.5918579-1.5876465-0.5949707
		c-0.0663452,0.000061-0.132019-0.0129395-0.1932373-0.0383911c-0.0612183-0.0253906-0.1167603-0.0628052-0.1633911-0.1100464
		l-1.2075195-1.2099609c-0.7056885-0.7051392-1.6615601-1.102356-2.6591797-1.1049805h-1.3549805V5h-1.5541992v3.1466675
		c-0.9663086,0.1028442-1.8909302,0.4586182-2.6608276,1.0633545l-2.1358032,1.685791
		c-0.0564575,0.0446167-0.1218262,0.076416-0.1917114,0.0933838l-3.3807983,0.8099976
		c-0.4081421,0.0977173-0.7753906,0.3209229-1.0502319,0.6380005c-0.2749023,0.3171997-0.4435425,0.7124023-0.4822998,1.1303101
		l-0.1732788,1.8883057c-0.0406494,0.4193115,0.0838623,0.8378906,0.3469849,1.1668701
		c0.2631836,0.3289185,0.644165,0.5422974,1.0621338,0.5948486l1.2033691,0.1549683
		c0.0723267,0.571106,0.3479614,1.0969238,0.7764282,1.4813232s0.9810791,0.6015015,1.5566406,0.6116943
		c0.5755615,0.0100708,1.135437-0.1875,1.5771484-0.5566406c0.4417725-0.3689575,0.7357178-0.8848877,0.828125-1.453064h5.458313
		c0.0917969,0.5775757,0.3917847,1.1015015,0.8433838,1.4730835c0.4515991,0.371521,1.0236206,0.5648804,1.6080322,0.5437012
		c0.5843506-0.0211792,1.1407471-0.2556152,1.56427-0.6588745c0.4234009-0.4033203,0.6846313-0.9476929,0.734314-1.5303955
		l1.100769-0.3240967c0.4161987-0.0918579,0.7828369-0.3365479,1.0270386-0.6858521
		C21.9387207,15.9240112,22.0427246,15.4957275,21.9859009,15.0733032z M20.5325928,15.4934082
		c-0.052063,0.0632935-0.1268921,0.1035767-0.208374,0.1123657l-2.145813,0.628418l0.0007935,0.8391113
		c0,0.2651978-0.1054077,0.5195923-0.2929077,0.7070923c-0.1875,0.1876221-0.4418945,0.2929077-0.7070923,0.2929077
		s-0.5195923-0.1052856-0.7070923-0.2929077c-0.1875-0.1875-0.2929077-0.4418945-0.2929077-0.7070923v-1.0150146H7.9950562
		v1.0134277c0,0.1312866-0.0258789,0.2612915-0.0761719,0.3825684c-0.0502319,0.1213989-0.1239014,0.2316284-0.2167358,0.3245239
		c-0.0928955,0.0927734-0.203125,0.1665039-0.3244019,0.2166748c-0.1213379,0.050293-0.2514038,0.0762329-0.3826904,0.0762329
		c-0.1313477,0-0.2613525-0.0259399-0.3826904-0.0762329c-0.1213379-0.0501709-0.2315674-0.1239014-0.3244629-0.2166748
		c-0.0928345-0.0928955-0.1665039-0.203125-0.2167358-0.3245239c-0.050293-0.1212769-0.0761108-0.2512817-0.0761108-0.3825684
		v-0.9291992l-2.4033813-0.3082886c-0.05896-0.0078125-0.1126709-0.038208-0.1495361-0.0848999
		c-0.0368652-0.0467529-0.0540771-0.105957-0.0479126-0.1651001l0.1724854-1.8892212
		c0.0118408-0.1276855,0.0633545-0.2484131,0.1473389-0.3453369c0.0840454-0.0967407,0.1962891-0.164856,0.3209839-0.1946411
		l3.3816528-0.8100586c0.2660522-0.0639648,0.5150757-0.1847534,0.7300415-0.354187l2.1399536-1.6849976
		c0.5231323-0.4109497,1.1436768-0.6685181,1.7958374-0.7633057v1.9692383h1.5541992V9.4966431h1.3549805
		c0.6253052,0.0027466,1.2243042,0.2521973,1.666687,0.6941528l1.206604,1.211731
		c0.1760864,0.1773682,0.3856812,0.3180542,0.6166382,0.4140015c0.230896,0.0957642,0.4784546,0.1448975,0.7283936,0.1442871
		c0.2503052,0.0001831,0.4920654,0.0900879,0.6817017,0.2533569c0.1895752,0.1633301,0.3143921,0.3892212,0.3516846,0.6365967
		l0.3599854,2.416748C20.6101074,15.3491821,20.5847778,15.4301758,20.5325928,15.4934082z"/>
	<path d="M13.4616089,12.8474731c-0.0780029-0.0805664-0.1716919-0.1442871-0.2753296-0.1872559
		c-0.1035767-0.0430298-0.2149658-0.0643921-0.3270874-0.0627441c-0.1121826-0.0016479-0.2235718,0.0197144-0.3272095,0.0627441
		c-0.1035767,0.0429688-0.1972656,0.1066895-0.2752686,0.1872559c-0.0806274,0.0780029-0.1444092,0.171814-0.187439,0.2754517
		c-0.0429688,0.1035767-0.06427,0.2149048-0.062561,0.3270874c-0.001709,0.1121826,0.0195923,0.2235107,0.062561,0.3272095
		c0.0430298,0.1035767,0.1068115,0.1972656,0.187439,0.2752686c0.0780029,0.0806274,0.1716919,0.1444092,0.2752686,0.187439
		c0.1036377,0.0429688,0.2150269,0.06427,0.3272095,0.062561c0.1121216,0.001709,0.2235107-0.0195923,0.3270874-0.062561
		c0.1036377-0.0430298,0.1973267-0.1068115,0.2753296-0.187439c0.0805664-0.0780029,0.1444092-0.1716919,0.1873779-0.2752686
		c0.0430298-0.1036987,0.0643311-0.2150269,0.0627441-0.3272095c0.0015869-0.1121826-0.0197144-0.2235107-0.0627441-0.3270874
		C13.6060181,13.0192871,13.5421753,12.9254761,13.4616089,12.8474731z"/>
</g>
</svg>
