<?xml version="1.0" encoding="utf-8"?>
<!-- Generator: Adobe Illustrator 28.0.0, SVG Export Plug-In . SVG Version: 6.00 Build 0)  -->
<svg version="1.1" id="Layer_1" xmlns="http://www.w3.org/2000/svg" xmlns:xlink="http://www.w3.org/1999/xlink" x="0px" y="0px"
	 viewBox="0 0 24 24" style="enable-background:new 0 0 24 24;" xml:space="preserve">
<path d="M20.7515869,8.2940063c-0.4987793-1.1556396-1.1759033-2.1608887-2.0310669-3.0157471
	c-0.8552246-0.8548584-1.8609009-1.5316162-3.0170898-2.0302734C14.5473022,2.7493286,13.3123169,2.5,11.998291,2.5
	c-1.3139038,0-2.548645,0.2494507-3.7042847,0.7483521C7.1383667,3.7471924,6.1331177,4.4242554,5.2782593,5.27948
	C4.4234619,6.1347046,3.7467041,7.1403809,3.2480469,8.2965698C2.7493896,9.4526978,2.5,10.6876831,2.5,12.001709
	c0,1.3139038,0.2494507,2.5487061,0.7483521,3.7042847s1.1759644,2.1608887,2.031189,3.015686
	s1.8609009,1.5316162,3.0170288,2.0303345C9.4526978,21.2506104,10.6876831,21.5,12.001709,21.5
	c1.3139038,0,2.5487061-0.2495117,3.7042847-0.7484131s2.1608887-1.1759033,3.015686-2.0310669
	c0.8549194-0.8553467,1.5316162-1.8609009,2.0303345-3.0171509C21.2506104,14.5473022,21.5,13.3121948,21.5,11.998291
	S21.2504883,9.449585,20.7515869,8.2940063z M12.75,16.75h-1.5V11h1.5V16.75z M12.5755005,9.0562744
	C12.4207153,9.2110596,12.2288208,9.2884521,12,9.2884521c-0.2288818,0-0.4207153-0.0773926-0.5755005-0.2321777
	c-0.1547852-0.1548462-0.2321777-0.3466187-0.2321777-0.5755005c0-0.2288208,0.0773926-0.4206543,0.2321777-0.5755005
	C11.5792847,7.7504883,11.7711182,7.6730957,12,7.6730957c0.2288208,0,0.4207153,0.0773926,0.5755005,0.2321777
	c0.1547852,0.1548462,0.2321777,0.3466797,0.2321777,0.5755005C12.8076782,8.7096558,12.7302856,8.9014282,12.5755005,9.0562744z"/>
</svg>
