<?xml version="1.0" encoding="utf-8"?>
<!-- Generator: Adobe Illustrator 28.0.0, SVG Export Plug-In . SVG Version: 6.00 Build 0)  -->
<svg version="1.1" id="Layer_1" xmlns="http://www.w3.org/2000/svg" xmlns:xlink="http://www.w3.org/1999/xlink" x="0px" y="0px"
	 viewBox="0 0 24 24" style="enable-background:new 0 0 24 24;" xml:space="preserve">
<g>
	<path d="M11.998291,8.25c-0.4976196,0-0.9229736,0.1771851-1.2761841,0.5315552
		c-0.3532104,0.3543091-0.5297852,0.7802734-0.5297852,1.277832c0,0.4976196,0.1771851,0.9230347,0.5314941,1.2761841
		c0.3543701,0.3532104,0.7802734,0.5298462,1.2778931,0.5298462s0.9229736-0.1772461,1.2761841-0.5314941
		c0.3532104-0.3544312,0.5297852-0.7803345,0.5297852-1.2779541c0-0.4975586-0.1771851-0.9229126-0.5314941-1.276123
		C12.921814,8.4266357,12.4959106,8.25,11.998291,8.25z"/>
	<path d="M17.3085938,4.6433105C15.8156738,3.2144775,14.0462036,2.5,12,2.5c-2.0461426,0-3.8156738,0.7144775-5.3085938,2.1433105
		c-1.492981,1.428833-2.2394409,3.2971191-2.2394409,5.6047974c0,1.5704956,0.6288452,3.2949219,1.8865356,5.1730957
		C7.5961914,17.2993164,9.4833374,19.3287964,12,21.5095825c2.5167236-2.1807861,4.4038086-4.2102661,5.661499-6.0883789
		c1.2576904-1.8781738,1.8864746-3.6026001,1.8864746-5.1730957C19.5479736,7.9404297,18.8015747,6.0721436,17.3085938,4.6433105z
		 M16.491394,14.4741211C15.4534912,16.0823975,13.9564209,17.762207,12,19.5134888
		c-1.9564209-1.7512817-3.4534912-3.4310913-4.491333-5.0393677c-1.0378418-1.6083984-1.5567627-3.0170288-1.5567627-4.2260132
		c0-1.8231201,0.5791626-3.3218384,1.7374878-4.4961548C8.8477783,4.5775757,10.2846069,3.9903564,12,3.9903564
		s3.1522217,0.5872192,4.3106079,1.7615967c1.1582642,1.1743164,1.7374878,2.6730347,1.7374878,4.4961548
		C18.0480957,11.4570923,17.5291748,12.8657227,16.491394,14.4741211z"/>
</g>
</svg>
