<?xml version="1.0" encoding="utf-8"?>
<!-- Generator: Adobe Illustrator 28.0.0, SVG Export Plug-In . SVG Version: 6.00 Build 0)  -->
<svg version="1.1" id="Layer_1" xmlns="http://www.w3.org/2000/svg" xmlns:xlink="http://www.w3.org/1999/xlink" x="0px" y="0px"
	 viewBox="0 0 24 24" style="enable-background:new 0 0 24 24;" xml:space="preserve">
<path d="M17.3085938,4.6433105C15.8156738,3.2144775,14.0462036,2.5,12,2.5c-2.0461426,0-3.8156738,0.7144775-5.3085938,2.1433105
	c-1.492981,1.428833-2.2394409,3.2971191-2.2394409,5.6047974c0,1.5704956,0.6288452,3.2949219,1.8865356,5.1730957
	C7.5961914,17.2993164,9.4833374,19.3287964,12,21.5095825c2.5167236-2.1807861,4.4038086-4.2102661,5.661499-6.0883789
	c1.2576904-1.8781738,1.8864746-3.6026001,1.8864746-5.1730957C19.5479736,7.9404297,18.8015747,6.0721436,17.3085938,4.6433105z
	 M13.2778931,11.3339233c-0.3532104,0.354248-0.7785645,0.5314941-1.2761841,0.5314941s-0.9235229-0.1766357-1.2778931-0.5298462
	c-0.3543091-0.3531494-0.5314941-0.7785645-0.5314941-1.2761841c0-0.4975586,0.1765747-0.9235229,0.5297852-1.277832
	C11.0753174,8.4271851,11.5006714,8.25,11.998291,8.25s0.9235229,0.1766357,1.2778931,0.5298462
	c0.3543091,0.3532104,0.5314941,0.7785645,0.5314941,1.276123C13.8076782,10.5535889,13.6311035,10.9794922,13.2778931,11.3339233z"
	/>
</svg>
