<?xml version="1.0" encoding="utf-8"?>
<!-- Generator: Adobe Illustrator 28.1.0, SVG Export Plug-In . SVG Version: 6.00 Build 0)  -->
<svg version="1.1" id="Layer_1" xmlns="http://www.w3.org/2000/svg" xmlns:xlink="http://www.w3.org/1999/xlink" x="0px" y="0px"
	 viewBox="0 0 24 24" style="enable-background:new 0 0 24 24;" xml:space="preserve">
<path d="M11.9982,7.5001c-0.4307,0-0.7977-0.1523-1.1009-0.4568c-0.3032-0.3045-0.4548-0.6721-0.4548-1.1029
	c0-0.4307,0.1523-0.7977,0.4568-1.1009c0.3045-0.3032,0.6721-0.4548,1.1028-0.4548c0.4308,0,0.7978,0.1523,1.101,0.4567
	c0.3032,0.3045,0.4548,0.6721,0.4548,1.1029c0,0.4308-0.1523,0.7977-0.4568,1.1009C12.7966,7.3485,12.429,7.5001,11.9982,7.5001z
	 M10.3271,19.4808v-4.8076H9.3272v-4.4616c0-0.4601,0.1638-0.8539,0.4914-1.1816c0.3276-0.3276,0.7215-0.4914,1.1816-0.4914h2
	c0.4601,0,0.8539,0.1638,1.1816,0.4914c0.3276,0.3276,0.4914,0.7215,0.4914,1.1816v4.4616h-1v4.8076H10.3271z"/>
</svg>
