<?xml version="1.0" encoding="utf-8"?>
<!-- Generator: Adobe Illustrator 28.1.0, SVG Export Plug-In . SVG Version: 6.00 Build 0)  -->
<svg version="1.1" id="Layer_1" xmlns="http://www.w3.org/2000/svg" xmlns:xlink="http://www.w3.org/1999/xlink" x="0px" y="0px"
	 viewBox="0 0 24 24" style="enable-background:new 0 0 24 24;" xml:space="preserve">
<path d="M10.0576,20.773v-5.6209l1.3808-3.9445c0.0641-0.132,0.1512-0.2413,0.2615-0.3278
	c0.1102-0.0866,0.2564-0.1298,0.4384-0.1298h7.2231c0.1726,0,0.3206,0.0432,0.4439,0.1298
	c0.1233,0.0865,0.2087,0.1958,0.2561,0.3278l1.3808,3.9445v5.6209c0,0.1508-0.0514,0.2776-0.1543,0.3804
	c-0.1028,0.1028-0.2296,0.1542-0.3804,0.1542h-0.4307c-0.1508,0-0.2776-0.0514-0.3804-0.1542
	c-0.1028-0.1028-0.1542-0.2296-0.1542-0.3804v-1.0615h-8.3847v1.0615c0,0.1508-0.0514,0.2776-0.1542,0.3804
	c-0.1028,0.1028-0.2296,0.1542-0.3804,0.1542h-0.4307c-0.1508,0-0.2776-0.0514-0.3804-0.1542
	C10.109,21.0506,10.0576,20.9238,10.0576,20.773z M11.6729,14.173h8.1539l-0.7769-2.2307h-6.6L11.6729,14.173z M12.7883,17.8461
	c0.267,0,0.4908-0.0903,0.6714-0.2709c0.1806-0.1806,0.2709-0.4044,0.2709-0.6714c0-0.267-0.0903-0.4908-0.2709-0.6714
	c-0.1806-0.1806-0.4044-0.2709-0.6714-0.2709c-0.2669,0-0.4907,0.0903-0.6714,0.2709c-0.1806,0.1806-0.2709,0.4044-0.2709,0.6714
	c0,0.267,0.0903,0.4908,0.2709,0.6714C12.2976,17.7558,12.5214,17.8461,12.7883,17.8461z M18.7114,17.8461
	c0.267,0,0.4908-0.0903,0.6714-0.2709c0.1806-0.1806,0.2709-0.4044,0.2709-0.6714c0-0.267-0.0903-0.4908-0.2709-0.6714
	c-0.1806-0.1806-0.4044-0.2709-0.6714-0.2709c-0.267,0-0.4908,0.0903-0.6714,0.2709c-0.1806,0.1806-0.2709,0.4044-0.2709,0.6714
	c0,0.267,0.0903,0.4908,0.2709,0.6714C18.2206,17.7558,18.4444,17.8461,18.7114,17.8461z M6.173,13.3076v-1.7692h1.7692v1.7692
	H6.173z M10.6729,7.8077V6.0385h1.7693v1.7692H10.6729z M6.173,17.3076v-1.7692h1.7692v1.7692H6.173z M6.173,21.3076v-1.7692h1.7692
	v1.7692H6.173z M2.5576,21.3076V7.9231h4.5v-5.5h8.9999v6.2115h-1.5V3.9231h-6v5.5H4.0576v11.8846H2.5576z M11.2499,18.5192h9
	v-3.1539h-9V18.5192z"/>
</svg>
