<?xml version="1.0" encoding="utf-8"?>
<!-- Generator: Adobe Illustrator 28.0.0, SVG Export Plug-In . SVG Version: 6.00 Build 0)  -->
<svg version="1.1" id="Layer_1" xmlns="http://www.w3.org/2000/svg" xmlns:xlink="http://www.w3.org/1999/xlink" x="0px" y="0px"
	 viewBox="0 0 24 24" style="enable-background:new 0 0 24 24;" xml:space="preserve">
<g>
	<path d="M20.1671143,6.75177l0.0025024-0.0005493l0.6213989-0.4660645l-0.2714233-0.3627319l-0.6256714,0.4685059
		c0.0241699,0.0223389,0.0513916,0.041687,0.0755615,0.067688C20.0499268,6.5457153,20.1165771,6.6445923,20.1671143,6.75177z"/>
	<path d="M16.956604,8.7073975c-0.0914307-0.0002441-0.1810913,0.0245972-0.2592773,0.0719604
		c-0.0803223,0.0487061-0.1472168,0.1166382-0.1947021,0.1976318l-0.8789062,1.5184937
		c-0.020813,0.0335083-0.0322266,0.0718994-0.0333252,0.1113281c-0.00177,0.0505981,0.0134277,0.1002808,0.0432129,0.1412964
		c0.0297852,0.0408936,0.0723877,0.0708008,0.1210938,0.0847168c0.0487061,0.013855,0.100708,0.0110474,0.147583-0.0079956
		c0.046936-0.019043,0.0861206-0.0532227,0.1113281-0.0971069l0.7351074-1.2543945h1.1098022l-0.4382324-0.7628784
		L16.956604,8.7073975z"/>
	<path d="M19.2506714,9.3518066l-0.0047607,0.0012207c0.0930786-0.0789185,0.1569824-0.1868896,0.1812744-0.3064575
		l0.3500366-1.6732788c0.0264893-0.1038818,0.0258789-0.2127686-0.0016479-0.3163452
		c-0.0274658-0.1035767-0.0810547-0.1984253-0.1554565-0.2754517c-0.1220093-0.1384277-0.2913208-0.2261963-0.4747925-0.2462158
		c-0.1834106-0.0200195-0.3676147,0.0291748-0.5166016,0.1380005c-0.1307983,0.0941772-0.2213135,0.234314-0.2532959,0.392334
		l-0.2237549,1.0397339l0.7859497,1.3619385C19.052124,9.4656372,19.1625977,9.4249268,19.2506714,9.3518066z"/>
	<polygon points="18.920105,10.8364258 19.4429932,10.8364258 19.4326782,10.8170776 18.0386963,8.3960571 17.645813,8.6227417 	"/>
	<path d="M16.7789307,7.4851074c0.2365723-0.0001221,0.4677734-0.0703735,0.6643677-0.2019043
		c0.1967163-0.1314697,0.3499146-0.3182983,0.4404297-0.5368652c0.0903931-0.2186279,0.1140747-0.4591064,0.0678711-0.6911011
		s-0.1600952-0.4451294-0.3273926-0.6123657c-0.1672974-0.1672974-0.3804321-0.281189-0.6124268-0.3273926
		c-0.2319946-0.0461426-0.4724731-0.022522-0.690979,0.0679321c-0.2186279,0.0904541-0.4053955,0.2437134-0.5369263,0.4403687
		c-0.1314697,0.1966553-0.2017822,0.4278564-0.2019043,0.6644287c0,0.3173828,0.1261597,0.6218262,0.350647,0.8463135
		C16.1569824,7.3590088,16.4614868,7.4851074,16.7789307,7.4851074z"/>
	<path d="M19.6884155,5.2575073c-0.052124-0.0524292-0.1140137-0.0941162-0.1821899-0.1224976
		c-0.0682373-0.0284424-0.1414185-0.0430908-0.215332-0.0430908s-0.1470947,0.0146484-0.215271,0.0430908
		c-0.0682373,0.0283813-0.130127,0.0700684-0.1821289,0.1224976C18.84021,5.309021,18.7980957,5.3709106,18.7695923,5.4393311
		c-0.0285034,0.0683594-0.0426636,0.1418457-0.0418091,0.2159424c-0.0008545,0.0740967,0.0133057,0.147583,0.0418091,0.2160034
		c0.0285034,0.0683594,0.0706177,0.130249,0.1239014,0.1817627l0.0133057,0.0103149
		c0.0839844,0.081543,0.1917725,0.1341553,0.3078003,0.1502686c0.1160278,0.0160522,0.2335205-0.005249,0.3366089-0.0608521
		c0.050415-0.0261841,0.0966797-0.0598145,0.137207-0.0997314c0.0531616-0.0515137,0.0953979-0.1134033,0.1239014-0.1817627
		c0.0283813-0.0684204,0.0426025-0.1419067,0.041687-0.2160034c0.0009155-0.0740967-0.0133057-0.147583-0.041687-0.2159424
		C19.7838135,5.3709106,19.7415771,5.309021,19.6884155,5.2575073z"/>
	<path d="M3.300293,10.491272c0.4154663,0.2322998,0.8848267,0.3509521,1.3607178,0.3439331
		c0.4736328,0.0067749,0.9407349-0.1113892,1.354126-0.3427124c0.4065552-0.2333984,0.7376099-0.5784912,0.9538574-0.9943848
		C7.2161865,9.0087891,7.336731,8.465271,7.3196411,7.9172974C7.3370972,7.3692627,7.21698,6.8256226,6.9702148,6.3359375
		C6.7530518,5.9198608,6.4212036,5.5747681,6.013916,5.3414917C5.6002808,5.1108398,5.1333618,4.9928589,4.65979,4.9993896
		c-0.4752808-0.006897-0.9440918,0.111084-1.3594971,0.3421021c-0.4053955,0.2335205-0.7351074,0.5787354-0.949707,0.9944458
		C2.104248,6.8257446,1.9837646,7.3692627,2,7.9172974c-0.0159302,0.546875,0.1045532,1.0891113,0.3505859,1.5777588
		C2.5653687,9.9111328,2.8949585,10.256897,3.300293,10.491272z M3.3952026,6.9017334
		c0.1026611-0.2540283,0.277771-0.472229,0.50354-0.6274414C4.1255493,6.1290283,4.390564,6.0546875,4.65979,6.0608521
		C4.9278564,6.0552979,5.1915283,6.1295776,5.4172363,6.274292c0.2260742,0.1549683,0.4012451,0.37323,0.5036011,0.6274414
		c0.1287231,0.3226929,0.1904297,0.6682739,0.1813354,1.015564l0.00177,0.0018311
		c0.0089722,0.34729-0.0527344,0.6928101-0.1813354,1.015564c-0.102417,0.2539673-0.2775879,0.4720459-0.50354,0.6268921
		C5.1928101,9.706604,4.9284668,9.7808838,4.65979,9.7749634c-0.2694092,0.0056152-0.5344238-0.0693359-0.7610474-0.21521
		c-0.225769-0.1549683-0.4009399-0.3729858-0.50354-0.6268921c-0.1273193-0.322998-0.1878052-0.6685181-0.1777344-1.015564
		C3.2072144,7.5702515,3.2677002,7.2247314,3.3952026,6.9017334z"/>
	<polygon points="9.1821289,7.1821899 9.2238159,7.1821899 11.6956177,10.7590942 12.7329712,10.7590942 12.7329712,5.0767212 
		11.5379028,5.0767212 11.5379028,8.6499634 11.4876709,8.6499634 9.0358276,5.0767212 7.980957,5.0767212 7.980957,10.7578125 
		9.1821289,10.7578125 	"/>
	<path d="M20.9935303,10.4193726v-0.015686l0.3487549-0.3427734c0.135498-0.1202393,0.2633057-0.2488403,0.3826904-0.3850708
		c0.0778198-0.0873413,0.1417236-0.1862183,0.189209-0.2932129c0.0350342-0.085144,0.0533447-0.1762695,0.053833-0.2683716
		c0.0020752-0.1303101-0.0352173-0.2582397-0.1069946-0.3669434c-0.0744019-0.109375-0.1772461-0.1963501-0.2974243-0.2514648
		c-0.1414795-0.0627441-0.295105-0.0935059-0.4497681-0.0900879c-0.152832-0.0032349-0.3043213,0.0290527-0.4425049,0.0942993
		c-0.1227417,0.0592651-0.2259521,0.1524048-0.2974243,0.2684326c-0.072998,0.1233521-0.1096191,0.2647705-0.1057739,0.40802
		h0.4799805C20.7467041,9.1079102,20.762207,9.039978,20.793396,8.9788208
		c0.0283813-0.0543823,0.0726929-0.098877,0.1270142-0.1275024c0.059082-0.0300293,0.1246948-0.0449829,0.190979-0.0435791
		c0.0651855-0.0015869,0.1298218,0.0122681,0.1885986,0.0405273c0.0543213,0.0270386,0.0997925,0.0689697,0.1312256,0.1209106
		c0.0333862,0.0544434,0.0501709,0.1174927,0.0482788,0.1813354c0.0004883,0.0608521-0.0130005,0.1210327-0.0393066,0.1759033
		c-0.0296631,0.0602417-0.0678101,0.1159668-0.1129761,0.1656494c-0.0477905,0.0562134-0.109436,0.1190796-0.1813965,0.189209
		l-0.8547363,0.7925415v0.3626709l1.708313-0.0023804v-0.4147339H20.9935303z"/>
	<path d="M20.5219727,14.5947266l-0.6256714,0.4684448c0.0241699,0.0223389,0.0513916,0.041748,0.0756226,0.067749
		c0.0803833,0.0869751,0.1470947,0.1858521,0.1976929,0.2930908v-0.0006104l0.6237793-0.4660034L20.5219727,14.5947266z"/>
	<path d="M16.956604,17.3795776c-0.0914307-0.0003052-0.1810913,0.0245972-0.2592773,0.0718994
		c-0.0803223,0.0488281-0.1472168,0.1166992-0.1947021,0.1976929l-0.8789062,1.5179443
		c-0.020813,0.0335083-0.0322266,0.0718994-0.0333252,0.1112061c-0.00177,0.0505981,0.0134277,0.1004028,0.0432129,0.1413574
		c0.0297852,0.0408936,0.0723877,0.0707397,0.1210938,0.0845947c0.0487061,0.0140381,0.100708,0.0112305,0.147583-0.0078735
		c0.046936-0.0189819,0.0861206-0.0532837,0.1113281-0.097229l0.7351074-1.2542725h1.1098022l-0.4382324-0.7628784
		L16.956604,17.3795776z"/>
	<path d="M19.6201172,15.4536133c-0.1223145-0.1387939-0.2922363-0.2268066-0.4761353-0.2466431
		c-0.18396-0.0198975-0.3686523,0.0300293-0.5177002,0.1396484c-0.1308594,0.0941772-0.2212524,0.234375-0.2532959,0.392395
		l-0.2236938,1.0396729l0.7858887,1.3619385c0.114502-0.0016479,0.2250366-0.0422974,0.3131104-0.1154175h-0.0023804
		c0.0930786-0.0789185,0.1569824-0.1868896,0.1812744-0.3065186l0.3500366-1.6732788
		c0.0264893-0.1038208,0.0258789-0.2127075-0.0016479-0.3162842C19.7481079,15.6254883,19.694519,15.5307007,19.6201172,15.4536133z
		"/>
	<polygon points="18.0386963,17.0645752 17.645813,17.2913208 18.920105,19.5056152 19.4429932,19.5056152 19.4326782,19.4863281 	
		"/>
	<path d="M19.604187,13.857605c-0.0927124-0.0620117-0.2016602-0.0950928-0.3132935-0.0950928
		c-0.1115112,0-0.2205811,0.0330811-0.3132935,0.0950928c-0.0927124,0.0620728-0.164917,0.1502075-0.2073975,0.2532959
		c-0.0426025,0.1030884-0.0535889,0.2164917-0.0316772,0.3259277c0.0219727,0.1092529,0.0758667,0.2096558,0.1549683,0.2883911
		l0.0133057,0.0102539c0.0839844,0.081543,0.1917725,0.1342163,0.3078003,0.1503296s0.2335205-0.005188,0.3366089-0.060791
		c0.050415-0.0263062,0.0966797-0.0599365,0.137207-0.0997925c0.0789795-0.0787354,0.1329956-0.1791382,0.1549072-0.2883911
		c0.0218506-0.109436,0.0108643-0.2228394-0.0316162-0.3259277C19.769104,14.0078125,19.6968994,13.9196777,19.604187,13.857605z"/>
	<path d="M3.8467407,17.7501221c0.1508179,0.0966797,0.3269653,0.1460571,0.5059814,0.1420898
		c0.1791992,0.0039673,0.3555298-0.0455322,0.5065918-0.1420898c0.1523438-0.1022339,0.2706299-0.2477417,0.3397217-0.4177246
		c0.0860596-0.2145996,0.1271973-0.4445801,0.1209106-0.6757812l-0.0030518,0.0006104
		c0.0063477-0.2316284-0.03479-0.4620361-0.1209106-0.677002c-0.0678711-0.1694946-0.1843872-0.3150024-0.3348389-0.418396
		c-0.1514282-0.0973511-0.3284912-0.1472168-0.5084229-0.1432495c-0.1790161-0.0040894-0.3551636,0.0454102-0.5059814,0.1420288
		c-0.151062,0.1029663-0.2680664,0.2487183-0.3361206,0.418396c-0.0860596,0.2149658-0.1271973,0.4453735-0.1208496,0.677002
		c-0.0062866,0.2312012,0.0348511,0.4611816,0.1208496,0.6757812C3.5784302,17.501709,3.6954956,17.6473999,3.8467407,17.7501221z"
		/>
	<path d="M2,19.5073853h10.7335815v-5.8363647H2V19.5073853z M9.4644165,14.7626953h2.508667v0.6594849h-1.7070923v0.9025269
		h1.5397339v0.6594849h-1.5397339v1.5651245H9.4644165V14.7626953z M6.5700684,14.7626953h2.5068359v0.6594849H7.369812v0.9025269
		h1.5408936v0.6594849H7.369812v1.5651245H6.5700684V14.7626953z M2.8136597,15.6030273
		c0.1434937-0.2779541,0.3638306-0.508728,0.6347046-0.6650391c0.2770386-0.1541748,0.5897827-0.232605,0.9067993-0.2272949
		c0.315918-0.0048218,0.6276245,0.0736084,0.9036865,0.2272949c0.2713623,0.1561279,0.4921265,0.3869019,0.6359863,0.6650391
		c0.1646729,0.3262329,0.2453003,0.6884766,0.2344971,1.053894c0.0109863,0.3651733-0.0697021,0.7272949-0.2344971,1.0534058
		c-0.144043,0.2778931-0.3647461,0.5085449-0.6359863,0.664856c-0.2761841,0.1534424-0.5877686,0.2316895-0.9036865,0.2272949
		c-0.3171387,0.0049438-0.6298828-0.0738525-0.9067993-0.2284546c-0.2706299-0.1566162-0.4908447-0.3873291-0.6347046-0.6650391
		c-0.1636353-0.3258057-0.2435913-0.6872559-0.2327271-1.0517578C2.5700073,16.2918701,2.6499634,15.9296875,2.8136597,15.6030273z"
		/>
	<path d="M20.9935303,19.0751953l0.3487549-0.3427124c0.135498-0.1203003,0.2633057-0.2489014,0.3826904-0.3850708
		c0.0778198-0.0873413,0.1417236-0.1862183,0.189209-0.2932129c0.0350342-0.085083,0.0533447-0.1763306,0.053833-0.2683716
		c0.0020752-0.1303101-0.0352173-0.2582397-0.1069946-0.3669434c-0.0744019-0.109375-0.1772461-0.1962891-0.2974243-0.2514648
		c-0.1414795-0.0627441-0.295105-0.0935059-0.4497681-0.0901489c-0.152832-0.0031738-0.3043213,0.0291138-0.4425049,0.0942993
		c-0.1227417,0.0593262-0.2259521,0.1524048-0.2974243,0.2684326c-0.072998,0.1234131-0.1096191,0.2647705-0.1057739,0.4080811
		h0.4799805c-0.0014038-0.0686035,0.0140991-0.1364746,0.0452881-0.1976929
		c0.0283813-0.0543823,0.0726929-0.098877,0.1270142-0.1275024c0.059082-0.0300903,0.1246948-0.0449829,0.190979-0.0435791
		c0.0651855-0.0015869,0.1298218,0.0122681,0.1885986,0.0404663c0.0543213,0.0270996,0.0997925,0.0690308,0.1312256,0.1209106
		c0.0333862,0.0545044,0.0501709,0.1174927,0.0482788,0.1813965c0.0004883,0.0609131-0.0130005,0.1210327-0.0393066,0.1759033
		c-0.0296631,0.0602417-0.0678101,0.1160278-0.1129761,0.1655884c-0.0477905,0.0563354-0.109436,0.1191406-0.1813965,0.189209
		l-0.8547363,0.7925415v0.362793l1.708313-0.0025024v-0.4147339h-1.0058594V19.0751953z"/>
	<path d="M15.6691895,16.2266846l0.2767334-0.2783203c0.0372314,0.0314331,0.0670776,0.0704956,0.1078491,0.0977173
		c0.2145996,0.1434937,0.4669189,0.2200317,0.7251587,0.2200317c0.3077393-0.0002441,0.5949097-0.1237183,0.8289185-0.3200073
		l0.2820435,0.2821045l0.1539917-0.1538086l-0.2817383-0.2817993c0.1974487-0.2341919,0.3214111-0.5223999,0.3218384-0.8309937
		c0.0001221-0.2581177-0.0762939-0.510498-0.2196045-0.7252197c-0.0286865-0.0429688-0.0696411-0.074707-0.1029663-0.1137085
		l0.2789917-0.2805786l-0.1542969-0.1533813l-0.2709351,0.2724609c-0.1009521-0.0844727-0.213501-0.1548462-0.3363647-0.2058105
		c-0.2385254-0.098877-0.5009155-0.1247559-0.7540894-0.0744629c-0.2174072,0.0431519-0.4128418,0.1501465-0.5812378,0.2923584
		l-0.2770996-0.2771606l-0.1538696,0.1538086l0.2774048,0.2775269c-0.1413574,0.1679077-0.2479248,0.3623657-0.2910156,0.5787354
		c-0.050415,0.2532349-0.0245972,0.515625,0.0742188,0.7541504c0.0518799,0.1253662,0.1246948,0.2392578,0.2113647,0.3417358
		l-0.2695923,0.2711182L15.6691895,16.2266846z M17.1953125,15.9669189
		c-0.1987915,0.0822754-0.4176025,0.1038818-0.6287231,0.0618896c-0.1748657-0.03479-0.3319092-0.1206055-0.4692383-0.232666
		l0.6785278-0.682373l0.6904297,0.6906738C17.3846436,15.8710327,17.2936401,15.9261475,17.1953125,15.9669189z
		 M17.7841797,14.5452271c0.0547485,0.131958,0.0828247,0.2734985,0.0828247,0.4163818
		c0,0.21521-0.0637817,0.4255981-0.1834106,0.6044922c-0.0195923,0.0293579-0.0480957,0.050415-0.0703125,0.0775757
		l-0.68396-0.6842041l0.6768188-0.6806641C17.6744995,14.3616943,17.7429199,14.4456177,17.7841797,14.5452271z
		 M16.1743774,14.0568848c0.178894-0.1195679,0.3893433-0.1834106,0.6045532-0.1834106
		c0.1428833,0,0.2843628,0.0281982,0.4163818,0.0828247c0.0953979,0.0395508,0.1749268,0.1061401,0.255127,0.1705322
		l-0.6749878,0.6787109l-0.6783447-0.6785889C16.1241455,14.1047974,16.1451416,14.076416,16.1743774,14.0568848z
		 M15.711731,15.1738892c-0.0420532-0.2110596-0.0204468-0.4298706,0.0618896-0.6286621
		c0.0408325-0.0985107,0.0960083-0.1896973,0.1626587-0.2713623l0.68573,0.6859741l-0.6784668,0.682251
		C15.8319092,15.5049438,15.74646,15.3483887,15.711731,15.1738892z"/>
</g>
</svg>
