<?xml version="1.0" encoding="utf-8"?>
<!-- Generator: Adobe Illustrator 28.1.0, SVG Export Plug-In . SVG Version: 6.00 Build 0)  -->
<svg version="1.1" id="Layer_1" xmlns="http://www.w3.org/2000/svg" xmlns:xlink="http://www.w3.org/1999/xlink" x="0px" y="0px"
	 viewBox="0 0 24 24" style="enable-background:new 0 0 24 24;" xml:space="preserve">
<path d="M19.4403,20.5c-1.8846,0-3.7778-0.4382-5.6797-1.3145c-1.902-0.8763-3.6494-2.1125-5.2423-3.7086
	c-1.5929-1.5962-2.8276-3.3436-3.7039-5.2423C3.9381,8.3359,3.5,6.4442,3.5,4.5596c0-0.3028,0.1-0.555,0.3-0.7569
	C4,3.6009,4.25,3.5,4.55,3.5h3.2615c0.2526,0,0.4753,0.0824,0.6683,0.2471c0.193,0.1648,0.3157,0.3683,0.3683,0.6106L9.4211,7.3
	c0.0398,0.2731,0.0314,0.5077-0.025,0.7038C9.3397,8.2,9.2384,8.3647,9.0922,8.498l-2.3096,2.2481
	c0.3718,0.6808,0.7965,1.3247,1.274,1.9318c0.4776,0.607,0.9946,1.1868,1.551,1.7394c0.5487,0.5487,1.1321,1.0583,1.7501,1.5289
	c0.6179,0.4705,1.2852,0.9083,2.0019,1.3134l2.2442-2.2634c0.1564-0.1629,0.3459-0.277,0.5683-0.3423
	c0.2224-0.0654,0.4535-0.0815,0.6933-0.0481l2.7769,0.5654c0.2525,0.0666,0.4586,0.1955,0.6182,0.3865s0.2395,0.4077,0.2395,0.65
	V19.45c0,0.3-0.101,0.55-0.3028,0.75C19.9954,20.4,19.7431,20.5,19.4403,20.5z M6.0731,9.3269l1.7846-1.7077
	c0.0321-0.0257,0.0529-0.0609,0.0625-0.1058c0.0096-0.0449,0.008-0.0866-0.0048-0.125L7.4808,5.1538
	C7.4679,5.1025,7.4455,5.0641,7.4134,5.0384C7.3814,5.0128,7.3397,5,7.2884,5H5.15C5.1115,5,5.0795,5.0128,5.0538,5.0384
	C5.0282,5.0641,5.0153,5.0961,5.0153,5.1346c0.0513,0.6833,0.1631,1.3776,0.3356,2.0827C5.5234,7.9224,5.7641,8.6256,6.0731,9.3269z
	 M14.773,17.9692c0.6629,0.309,1.3542,0.5452,2.0741,0.7087c0.7199,0.1634,1.3926,0.2605,2.0183,0.2913
	c0.0384,0,0.0705-0.0128,0.0961-0.0384C18.9872,18.9051,19,18.873,19,18.8346v-2.1038c0-0.0513-0.0128-0.093-0.0385-0.1251
	c-0.0256-0.032-0.0641-0.0545-0.1154-0.0673l-2.1-0.4269c-0.0384-0.0128-0.0721-0.0144-0.1009-0.0048
	c-0.0289,0.0096-0.0593,0.0305-0.0914,0.0625L14.773,17.9692z"/>
</svg>
