<?xml version="1.0" encoding="utf-8"?>
<!-- Generator: Adobe Illustrator 28.1.0, SVG Export Plug-In . SVG Version: 6.00 Build 0)  -->
<svg version="1.1" id="Layer_1" xmlns="http://www.w3.org/2000/svg" xmlns:xlink="http://www.w3.org/1999/xlink" x="0px" y="0px"
	 viewBox="0 0 24 24" style="enable-background:new 0 0 24 24;" xml:space="preserve">
<path d="M11.3846,19h1.2308v-1.9654L16,13.65V9.3077c0-0.0769-0.0321-0.1475-0.0962-0.2116C15.8397,9.032,15.7692,9,15.6922,9
	H8.3077C8.2308,9,8.1602,9.032,8.0961,9.0961C8.032,9.1602,8,9.2308,8,9.3077V13.65l3.3846,3.3846V19z M9.8846,20.5v-2.827
	L6.5,14.2884V9.3077c0-0.4987,0.1766-0.9247,0.5298-1.2779C7.383,7.6766,7.809,7.5,8.3077,7.5h1.1154l-0.75,0.75V3.5h1.5v4h3.6538
	v-4h1.4999v4.75L14.5769,7.5h1.1153c0.4988,0,0.9247,0.1766,1.2779,0.5298C17.3233,8.383,17.5,8.809,17.5,9.3077v4.9807
	l-3.3847,3.3846V20.5H9.8846z"/>
</svg>
