<?xml version="1.0" encoding="utf-8"?>
<!-- Generator: Adobe Illustrator 28.0.0, SVG Export Plug-In . SVG Version: 6.00 Build 0)  -->
<svg version="1.1" id="Layer_1" xmlns="http://www.w3.org/2000/svg" xmlns:xlink="http://www.w3.org/1999/xlink" x="0px" y="0px"
	 viewBox="0 0 24 24" style="enable-background:new 0 0 24 24;" xml:space="preserve">
<g>
	<path d="M15.7581787,6.3565063c-0.7254028-0.7250366-1.5783691-1.2990723-2.559082-1.7220459
		C12.2185059,4.2114868,11.1708984,4,10.0563965,4C8.9419556,4,7.8946533,4.2116089,6.9144287,4.6347046
		C5.9342041,5.0578613,5.081604,5.6321411,4.3565063,6.3575439C3.6314697,7.0829468,3.0574341,7.9359741,2.6344604,8.916626
		S2,10.9448242,2,12.0593262s0.2116089,2.1617432,0.6347046,3.1419678c0.4231567,0.9802246,0.9974365,1.8328247,1.7228394,2.5579224
		s1.5784302,1.2990723,2.559082,1.7221069c0.9806519,0.4228516,2.0281982,0.6343994,3.1427002,0.6343994
		s2.1618042-0.2115479,3.1419678-0.6347046c0.9802246-0.4230957,1.8328247-0.9974365,2.5579224-1.7228394
		s1.2990723-1.5784912,1.7221069-2.559082c0.4228516-0.9805908,0.6343994-2.0281982,0.6343994-3.1427002
		c0-1.1143799-0.2115479-2.1617432-0.6347046-3.1419678C17.0579224,7.9342651,16.4835815,7.081604,15.7581787,6.3565063z
		 M9.4217529,18.7749023c-1.6224976-0.1738892-3.0073242-0.8253174-4.1546021-1.9541016
		c-1.1472168-1.1287231-1.7893677-2.5042725-1.9263306-4.1268311h2.9523926
		c0.1641846,0.7993164,0.5268555,1.4794312,1.0879517,2.0406494c0.5610962,0.5610962,1.241333,0.9237061,2.0405884,1.0878906
		V18.7749023z M14.8485718,16.8403931c-1.1472778,1.1417847-2.5320435,1.7866821-4.154541,1.9345093v-2.9523926
		c0.7992554-0.1641846,1.4793701-0.5267944,2.0405884-1.0878906c0.5610962-0.5612183,0.9237061-1.241333,1.0878906-2.0406494
		h2.9523926C16.6378784,14.3165283,15.9957886,15.6986084,14.8485718,16.8403931z M13.8746948,11.4216919l-2.2998657-2.3325195
		H8.5408936l-2.2999268,2.3325195H3.3408203c0.1630859-1.7539673,0.8862305-3.2174072,2.1693726-4.3901978
		c1.2832031-1.1727905,2.7990723-1.7592163,4.5477295-1.7592163c1.7485962,0,3.2644653,0.5864258,4.5476074,1.7592163
		s2.0062866,2.6362305,2.1693726,4.3901978H13.8746948z"/>
	<path d="M21.7504883,15.2000122c-0.1662598-0.1663208-0.3723755-0.2493896-0.6182861-0.2493896
		c-0.2457886,0-0.4519043,0.0830688-0.6182251,0.2493896c-0.1662598,0.1663818-0.2494507,0.3723755-0.2494507,0.6182861
		s0.0831909,0.4520264,0.2494507,0.6182861c0.1663208,0.1663208,0.3724365,0.2495117,0.6182251,0.2495117
		c0.2459106,0,0.4520264-0.0831909,0.6182861-0.2495117C21.9168091,16.2703247,22,16.064209,22,15.8182983
		S21.9168091,15.366394,21.7504883,15.2000122z"/>
	<rect x="20.3264771" y="8.5042725" width="1.6115112" height="5.3719482"/>
</g>
</svg>
