<?xml version="1.0" encoding="utf-8"?>
<!-- Generator: Adobe Illustrator 28.0.0, SVG Export Plug-In . SVG Version: 6.00 Build 0)  -->
<svg version="1.1" id="Layer_1" xmlns="http://www.w3.org/2000/svg" xmlns:xlink="http://www.w3.org/1999/xlink" x="0px" y="0px"
	 viewBox="0 0 24 24" style="enable-background:new 0 0 24 24;" xml:space="preserve">
<g>
	<path d="M7.8480225,12.0239868v-0.0159912c0.631958-0.2559814,0.9039917-0.7600098,0.9039917-1.4320068
		C8.7520142,9.7119751,8.1040039,9,7.0800171,9H4v5.7119751h1.2559814v-2.2319946h1.2560425
		c0.631958,0,0.8639526,0.2640381,0.9519653,0.8640137c0.0640259,0.4559937,0.0480347,1.0079956,0.2000122,1.367981h1.2559814
		c-0.223999-0.3199463-0.2160034-0.9920044-0.2399902-1.3519897C8.6400146,12.7839966,8.4639893,12.184021,7.8480225,12.0239868z
		 M6.632019,11.5839844H5.2559814V9.9760132H6.632019c0.5599976,0,0.8639526,0.2399902,0.8639526,0.7919922
		C7.4959717,11.3439941,7.1920166,11.5839844,6.632019,11.5839844z"/>
	<path d="M11.333374,9l-2.1679077,5.7119751h1.2719116l0.447998-1.2719727h2.1360474l0.4320068,1.2719727h1.3039551L12.6213989,9
		H11.333374z M11.2133789,12.5040283l0.7440186-2.0960083h0.0159912l0.7200317,2.0960083H11.2133789z"/>
	<path d="M18.9860229,11.6079712c0.4959717-0.2399902,0.776001-0.631958,0.776001-1.1919556
		C19.7620239,9.3519897,19.026001,9,17.9379883,9H15.25v5.7119751h2.7680054c1.0319824,0,2.0159912-0.4959717,2.0159912-1.6560059
		C20.0339966,12.3439941,19.6820068,11.8079834,18.9860229,11.6079712z M16.5059814,9.9760132h1.1760254
		c0.447998,0,0.8640137,0.1119995,0.8640137,0.6560059c0,0.4799805-0.3280029,0.6799927-0.7680054,0.6799927h-1.2720337V9.9760132z
		 M17.8499756,13.7360229h-1.3439941v-1.5679932h1.368042c0.5359497,0,0.9039917,0.2319946,0.9039917,0.815979
		C18.7780151,13.5759888,18.3460083,13.7360229,17.8499756,13.7360229z"/>
</g>
</svg>
