<?xml version="1.0" encoding="utf-8"?>
<!-- Generator: Adobe Illustrator 28.0.0, SVG Export Plug-In . SVG Version: 6.00 Build 0)  -->
<svg version="1.1" id="Layer_1" xmlns="http://www.w3.org/2000/svg" xmlns:xlink="http://www.w3.org/1999/xlink" x="0px" y="0px"
	 viewBox="0 0 24 24" style="enable-background:new 0 0 24 24;" xml:space="preserve">
<style type="text/css">
	.st0{fill-rule:evenodd;clip-rule:evenodd;}
</style>
<path class="st0" d="M21.8853149,3.9259033c-0.0756836-0.1824341-0.1867065-0.3481445-0.3265991-0.4876709
	c-0.1398926-0.1394653-0.3060303-0.25-0.4885864-0.3251953C20.8876953,3.0380249,20.6923828,2.9995728,20.4953003,3H3.5015259
	C3.1033325,3,2.7213745,3.1582031,2.4398193,3.4398193C2.1582031,3.7213745,2,4.1033325,2,4.5015259v10.8922729
	c0,0.3981934,0.1582031,0.7802124,0.4398193,1.0618286c0.2815552,0.2815552,0.6635132,0.4397583,1.0617065,0.4397583h4.8364258
	c0.0162354,0.0983887,0.0302124,0.2018433,0.0302124,0.3326416c0,0.3129883-0.0549927,0.520874-0.1243896,0.6813965
	c-0.074707,0.1728516-0.1757812,0.3169556-0.3253784,0.5246582c-0.0039062,0.0054321-0.0078125,0.0108032-0.0117798,0.0162964
	c-0.1397095,0.1939087-0.322937,0.447998-0.4622803,0.7703247c-0.1486206,0.3438721-0.2389526,0.7412109-0.2389526,1.2351685
	H8.600769c0-0.3130493,0.0549927-0.5209961,0.1243896-0.6814575c0.074707-0.1729126,0.1757812-0.3170166,0.3253784-0.5247192
	c0.0039062-0.0053711,0.0078125-0.0108032,0.0117798-0.0162964c0.1397095-0.1937866,0.322937-0.447998,0.4622803-0.7703247
	c0.1486206-0.3438721,0.2389526-0.7411499,0.2389526-1.2350464c0-0.1218872-0.0209351-0.2218018-0.0314331-0.3326416h2.0640259
	c0.0162964,0.0983887,0.0302734,0.2018433,0.0302734,0.3326416c0,0.3129883-0.0551147,0.520874-0.1243896,0.6813965
	c-0.0748291,0.1728516-0.1758423,0.3169556-0.3254395,0.5246582c-0.0039062,0.0054321-0.0078125,0.0108032-0.0117798,0.0162964
	c-0.1397095,0.1939087-0.322937,0.447998-0.4622803,0.7703247c-0.1486206,0.3438721-0.2389526,0.7412109-0.2389526,1.2351685
	h1.3953247c0-0.3130493,0.0551147-0.5209961,0.1243896-0.6814575c0.0748291-0.1729126,0.1758423-0.3170166,0.3254395-0.5247192
	c0.0038452-0.0053711,0.0077515-0.0108032,0.0117798-0.0162964c0.1397095-0.1937866,0.322876-0.447998,0.4622803-0.7703247
	c0.1486206-0.3438721,0.2388916-0.7411499,0.2388916-1.2350464c0-0.1218872-0.0209351-0.2218018-0.0314331-0.3326416h2.0655518
	c0.0162354,0.0983887,0.0302124,0.2018433,0.0302124,0.3326416c0,0.3129883-0.0549927,0.520874-0.1243896,0.6813965
	c-0.074707,0.1728516-0.1757202,0.3169556-0.3254395,0.5246582c-0.0037842,0.0054321-0.0077515,0.0108032-0.0116577,0.0162964
	c-0.1398315,0.1939087-0.322998,0.447998-0.4623413,0.7703247c-0.1485596,0.3438721-0.2389526,0.7412109-0.2389526,1.2351685
	h1.3953857c0-0.3130493,0.0549927-0.5209961,0.1243896-0.6814575c0.074707-0.1729126,0.1757812-0.3170166,0.3253784-0.5247192
	c0.0039062-0.0053711,0.0078125-0.0108032,0.0118408-0.0162964c0.1396484-0.1937866,0.322876-0.447998,0.4621582-0.7703247
	c0.1487427-0.3438721,0.2390137-0.7411499,0.2390137-1.2350464c0-0.1218872-0.0209351-0.2218018-0.0314331-0.3326416h3.8477173
	c0.1973267,0,0.3926392-0.0388794,0.5748901-0.1143799c0.182312-0.0755005,0.3479004-0.1862183,0.4874268-0.3256836
	c0.1395264-0.1395264,0.2501221-0.3051147,0.3256226-0.4874268C21.9611206,15.7857056,22,15.590271,22,15.3930054V4.5015869
	C22,4.3040161,21.9609985,4.1083984,21.8853149,3.9259033z M20.6046753,15.3930054
	c0,0.0140991-0.0027466,0.0280151-0.0081787,0.0410156c-0.0053711,0.0128784-0.0131836,0.0246582-0.0231934,0.034668
	c-0.0098877,0.0098877-0.0217285,0.0178223-0.034729,0.0231934C20.5255737,15.4971924,20.5117188,15.5,20.4976807,15.5h-4.3265991
	c-0.0664062-0.1012573-0.1333618-0.1983643-0.1911011-0.2785034c-0.0037842-0.0053711-0.0076904-0.0106812-0.0114746-0.0159912
	c-0.1497192-0.2078857-0.2507935-0.3522339-0.3255005-0.5250854C15.5736084,14.5198975,15.5186157,14.3123169,15.5186157,14
	s0.0549927-0.5195923,0.1242065-0.6796875c0.074707-0.1724243,0.1755981-0.3162231,0.3251953-0.5234985
	c0.0039673-0.0054321,0.0078735-0.0109253,0.0119019-0.0165405c0.1397095-0.1933594,0.322876-0.4471436,0.4622803-0.7689819
	c0.1488037-0.3435059,0.2391968-0.7404175,0.2391968-1.2337036h-1.3953857c0,0.3120117-0.0549316,0.5192261-0.1242065,0.6791992
	c-0.074585,0.1723022-0.1755981,0.3161011-0.3251953,0.5234375c-0.0039062,0.0053711-0.0078125,0.0108032-0.0117798,0.0162964
	c-0.1397095,0.1934814-0.3230591,0.4473877-0.4625244,0.7694702C14.213623,13.1094971,14.12323,13.5064697,14.12323,14
	c0,0.4935913,0.0903931,0.890625,0.2389526,1.234314c0.0427856,0.0988159,0.0932617,0.1795044,0.1417236,0.265686h-1.7924805
	c-0.0664062-0.1012573-0.1333008-0.1983643-0.19104-0.2785034c-0.0039062-0.0053711-0.0076904-0.0106812-0.0114746-0.0159912
	c-0.1497192-0.2078857-0.2507935-0.3522339-0.3256226-0.5250854C12.1138916,14.5198975,12.0588989,14.3123169,12.0588989,14
	s0.0549927-0.5195923,0.1243286-0.6796875c0.074585-0.1724243,0.1755981-0.3162231,0.3251953-0.5234985
	c0.0039062-0.0054321,0.0078735-0.0109253,0.0119019-0.0165405c0.1396484-0.1933594,0.322876-0.4471436,0.4622803-0.7689819
	c0.1486816-0.3435059,0.2390747-0.7404175,0.2390747-1.2337036H11.826416c0,0.3120117-0.0549927,0.5192261-0.1242065,0.6791992
	c-0.074707,0.1723022-0.1755981,0.3161011-0.3253174,0.5234375c-0.0039062,0.0053711-0.0078125,0.0108032-0.0117188,0.0162964
	c-0.1396484,0.1934814-0.3230591,0.4473877-0.4624634,0.7694702C10.7540283,13.1094971,10.6635742,13.5064697,10.6635742,14
	c0,0.4935913,0.0904541,0.890625,0.2390137,1.234314c0.0427246,0.0988159,0.0932007,0.1795044,0.1416626,0.265686H9.2532349
	c-0.0663452-0.1012573-0.1333008-0.1983643-0.19104-0.2785034c-0.0038452-0.0053711-0.0076904-0.0106812-0.0115356-0.0159912
	c-0.1496582-0.2078857-0.2507324-0.3522339-0.3255615-0.5250854C8.6557007,14.5198975,8.600769,14.3123169,8.600769,14
	s0.0549316-0.5195923,0.1242676-0.6796875c0.074646-0.1724243,0.1755371-0.3162231,0.3251953-0.5234985
	c0.0039062-0.0054321,0.0078735-0.0109253,0.0118408-0.0165405c0.1397095-0.1933594,0.322937-0.4471436,0.4623413-0.7689819
	c0.1487427-0.3435059,0.2391357-0.7404175,0.2391357-1.2337036H8.3681641c0,0.3120117-0.0549316,0.5192261-0.1242065,0.6791992
	c-0.074646,0.1723022-0.1755371,0.3161011-0.3252563,0.5234375c-0.0038452,0.0053711-0.0077515,0.0108032-0.0117188,0.0162964
	c-0.1397095,0.1934814-0.3230591,0.4473877-0.4624634,0.7694702C7.2957764,13.1094971,7.2053833,13.5064697,7.2053833,14
	c0,0.4935913,0.0903931,0.890625,0.2390137,1.234314C7.4871216,15.3331299,7.5375977,15.4138184,7.5860596,15.5H3.5015259
	c-0.0281372,0-0.0551758-0.0112305-0.0750732-0.0311279s-0.0311279-0.046875-0.0311279-0.0750732V4.5015259
	c0-0.0281372,0.0112305-0.0551758,0.0311279-0.0750732s0.046936-0.0311279,0.0750732-0.0311279h16.9945679h0.0020142
	c0.0139771,0,0.0278931,0.0026855,0.0407715,0.0079956c0.0129395,0.0053101,0.0245972,0.0131836,0.0345459,0.0230103
	c0.0098877,0.0098877,0.0177612,0.0216064,0.0230713,0.0344849c0.0054321,0.0129395,0.0081787,0.0267944,0.0081787,0.0407104
	V15.3930054z"/>
</svg>
