<?xml version="1.0" encoding="UTF-8"?>
<svg id="Layer_1" xmlns="http://www.w3.org/2000/svg" viewBox="0 0 32 32">
  <circle cx="16.45" cy="24.68" r="2.17"/>
  <path d="M29.22,15.96c-.67-.84-1.67-1.32-2.75-1.32h-.54l-4.23-4.11c-.15-.15-.35-.23-.57-.23h-3.05v-3.53c0-.9-.73-1.63-1.63-1.63s-1.63.73-1.63,1.63v3.53h-1.16c-.22,0-.42.09-.58.24l-4.1,4.1h-3.47c-1.94,0-3.52,1.58-3.52,3.54s1.5,3.44,3.37,3.51c.35,1.25,1.51,2.17,2.87,2.17s2.52-.92,2.87-2.17h9.45c.36,1.25,1.51,2.17,2.87,2.17s2.52-.92,2.87-2.17h.16c1.08,0,2.08-.48,2.76-1.33,1.03-1.3,1.03-3.11,0-4.4ZM10.41,20.07c-.45,0-.81.36-.81.81,0,.75-.61,1.36-1.36,1.36s-1.36-.61-1.36-1.36c0-.45-.36-.81-.81-.81h-.55c-1.04,0-1.89-.85-1.89-1.91s.85-1.89,1.89-1.89h3.81c.22,0,.42-.09.58-.24l4.1-4.1h.82v8.14h-4.41ZM27.95,19.36c-.36.45-.9.71-1.48.71h-.86c-.45,0-.81.36-.81.81,0,.75-.61,1.36-1.36,1.36s-1.36-.61-1.36-1.36c0-.45-.36-.81-.81-.81h-3.18v-8.14h2.72l4.23,4.11c.15.15.35.23.57.23h.87c.58,0,1.12.26,1.48.71.56.7.56,1.67,0,2.38Z"/>
</svg>