<?xml version="1.0" encoding="utf-8"?>
<!-- Generator: Adobe Illustrator 28.0.0, SVG Export Plug-In . SVG Version: 6.00 Build 0)  -->
<svg version="1.1" id="Layer_1" xmlns="http://www.w3.org/2000/svg" xmlns:xlink="http://www.w3.org/1999/xlink" x="0px" y="0px"
	 viewBox="0 0 24 24" style="enable-background:new 0 0 24 24;" xml:space="preserve">
<g>
	<path d="M21.1143799,11.3452148c-0.2467651-0.8096313-0.6170044-1.6188965-1.1105957-2.4278564l-0.911499,1.4095459
		c0.309021,0.5526123,0.5375366,1.1361694,0.6856079,1.7509766C19.9260254,12.692627,20,13.2999878,20,13.9000244
		c0,0.7332764-0.0875244,1.4416504-0.2625122,2.125C19.5625,16.708313,19.2833252,17.3666992,18.9000244,18H5.0999756
		C4.75,17.4000244,4.479187,16.7583008,4.2874756,16.0750122C4.0958252,15.3917236,4,14.7000122,4,14
		c0-2.2166748,0.7791748-4.104187,2.3375244-5.6624756C7.895813,6.7791748,9.7833252,6,12,6
		c0.6577148,0,1.2919922,0.0772705,1.9028931,0.2317505s1.2009888,0.3829956,1.7702026,0.6856079l1.4096069-0.9115601
		c-0.7744141-0.505127-1.5773315-0.8823853-2.4086914-1.1317139C13.8425903,4.6246948,12.9512939,4.5,12,4.5
		c-1.309021,0-2.5429077,0.2496948-3.7019043,0.7490845C7.1390991,5.7484131,6.1308594,6.4302368,5.2733154,7.2945557
		s-1.5341797,1.8713989-2.0297852,3.0211182C2.7478638,11.4655151,2.5,12.6936035,2.5,14
		c0,0.9332886,0.1166992,1.7935791,0.3500366,2.5808105c0.2333374,0.7871094,0.5410156,1.5140991,0.9230347,2.1806641
		c0.1448975,0.2359009,0.3355713,0.4180298,0.5721436,0.5462036C4.5817261,19.4359131,4.833313,19.5,5.0999756,19.5h13.8000488
		c0.2730713,0,0.52948-0.0625,0.769165-0.1875c0.2398071-0.125,0.4257202-0.2958984,0.5577393-0.5125122
		c0.4307861-0.7705078,0.7531738-1.5587158,0.9672852-2.3643799c0.2141113-0.8057861,0.315979-1.6611938,0.3057861-2.5664062
		C21.4896851,12.9962158,21.3612061,12.1547852,21.1143799,11.3452148z"/>
	<path d="M10.1182861,13.9990845c-0.0313721,0.5429077,0.1304321,0.9919434,0.4855957,1.3471069
		c0.3551025,0.3551025,0.8125,0.5236816,1.3721313,0.5057373c0.5595703-0.0179443,0.9700928-0.2199097,1.2316895-0.6057129
		l5.4268799-7.8615723l-7.8807983,5.4076538C10.3615112,13.053894,10.1497192,13.4561157,10.1182861,13.9990845z"/>
</g>
</svg>
