<?xml version="1.0" encoding="utf-8"?>
<!-- Generator: Adobe Illustrator 28.0.0, SVG Export Plug-In . SVG Version: 6.00 Build 0)  -->
<svg version="1.1" id="Layer_1" xmlns="http://www.w3.org/2000/svg" xmlns:xlink="http://www.w3.org/1999/xlink" x="0px" y="0px"
	 viewBox="0 0 24 24" style="enable-background:new 0 0 24 24;" xml:space="preserve">
<g>
	<path d="M7.1121826,11.4879761c-1.4320068-0.367981-1.7040405-0.4239502-1.7040405-0.8639526
		c0-0.4800415,0.4639893-0.6480103,0.8640137-0.6480103c0.5999756,0,1.0880127,0.1759644,1.1279907,0.8640137h1.2160034
		C8.6161499,9.5200195,7.5201416,9,6.328186,9c-1.0320435,0-2.1360474,0.5599976-2.1360474,1.7280273
		c0,1.0719604,0.8560181,1.3999634,1.7040405,1.6239624c0.8399658,0.223999,1.6959839,0.3280029,1.6959839,0.9440308
		c0,0.5839844-0.6719971,0.7119751-1.1119995,0.7119751c-0.6719971,0-1.2639771-0.2960205-1.2639771-1.0559692H4.0001831
		c-0.0160522,1.407959,1.1679688,2.0319824,2.4320068,2.0319824c1.5519409,0,2.3759766-0.7839966,2.3759766-1.8320312
		C8.8081665,11.8560181,7.5281372,11.59198,7.1121826,11.4879761z"/>
	<path d="M13.4035034,12.1599731v-0.0159912c0.632019-0.2559814,0.9039917-0.7600098,0.9039917-1.4320068
		c0-0.8639526-0.6480103-1.5759888-1.6719971-1.5759888H9.555481v5.7120361h1.2560425v-2.2319946h1.2559814
		c0.632019,0,0.8640137,0.2639771,0.9519653,0.8639526c0.0640259,0.4559937,0.0480347,1.0079956,0.2000122,1.368042h1.2560425
		c-0.223999-0.3200073-0.2160034-0.9920044-0.2400513-1.3520508C14.1954956,12.9199829,14.0194702,12.3200073,13.4035034,12.1599731
		z M12.1875,11.7199707h-1.3759766v-1.6079712H12.1875c0.5599976,0,0.8640137,0.2399902,0.8640137,0.7919922
		C13.0515137,11.4799805,12.7474976,11.7199707,12.1875,11.7199707z"/>
	<polygon points="18.8969116,9.1359863 18.8969116,11.3280029 16.5848999,11.3280029 16.5848999,9.1359863 15.3289185,9.1359863 
		15.3289185,14.8480225 16.5848999,14.8480225 16.5848999,12.3839722 18.8969116,12.3839722 18.8969116,14.8480225 
		20.1528931,14.8480225 20.1528931,9.1359863 	"/>
</g>
</svg>
