<?xml version="1.0" encoding="utf-8"?>
<!-- Generator: Adobe Illustrator 28.0.0, SVG Export Plug-In . SVG Version: 6.00 Build 0)  -->
<svg version="1.1" id="Layer_1" xmlns="http://www.w3.org/2000/svg" xmlns:xlink="http://www.w3.org/1999/xlink" x="0px" y="0px"
	 viewBox="0 0 24 24" style="enable-background:new 0 0 24 24;" xml:space="preserve">
<g>
	<path d="M14.6923218,18c0.6422729,0,1.1875-0.223999,1.6355591-0.6721191C16.776001,16.8798218,17,16.3345947,17,15.6923218
		c0-0.642334-0.223999-1.1875-0.6721191-1.6356201c-0.4480591-0.447998-0.9932861-0.6721191-1.6355591-0.6721191
		c-0.642334,0-1.1875,0.2241211-1.635498,0.6721191c-0.4481201,0.4481201-0.6721191,0.9932861-0.6721191,1.6356201
		c0,0.6422729,0.223999,1.1875,0.6721191,1.6355591C13.5048218,17.776001,14.0499878,18,14.6923218,18z"/>
	<path d="M19.9749756,5.0250244C19.625,4.6750488,19.1973877,4.5,18.6923218,4.5h-1.3846436V2.3846436h-1.5V4.5H8.2307739V2.3846436
		H6.6923218V4.5H5.3077393C4.8026123,4.5,4.375,4.6750488,4.0250244,5.0250244S3.5,5.8026123,3.5,6.3077393v13.3845825
		c0,0.5050659,0.1750488,0.9326782,0.5250244,1.2826538C4.375,21.3250122,4.8026123,21.5,5.3077393,21.5h13.3845825
		c0.5050659,0,0.9326782-0.1749878,1.2826538-0.5250244C20.3250122,20.625,20.5,20.1973877,20.5,19.6923218V6.3077393
		C20.5,5.8026123,20.3250122,5.375,19.9749756,5.0250244z M19,19.6923218c0,0.0769043-0.0319824,0.1473999-0.0961914,0.2114868
		C18.8397217,19.9678955,18.7692261,20,18.6923218,20H5.3077393c-0.0769653,0-0.1474609-0.0321045-0.2116089-0.0961914
		C5.0320435,19.8397217,5,19.7692261,5,19.6923218v-9.3846436h14V19.6923218z M19,8.8077393H5v-2.5
		c0-0.0769653,0.0320435-0.1474609,0.0961304-0.2116089C5.1602783,6.0320435,5.2307739,6,5.3077393,6h13.3845825
		c0.0769043,0,0.1473999,0.0320435,0.2114868,0.0961304C18.9680176,6.1602783,19,6.2307739,19,6.3077393V8.8077393z"/>
</g>
</svg>
