<?xml version="1.0" encoding="UTF-8"?>
<svg xmlns="http://www.w3.org/2000/svg" version="1.1" viewBox="0 0 24 24">
  <!-- Generator: Adobe Illustrator 28.7.1, SVG Export Plug-In . SVG Version: 1.2.0 Build 142)  -->
  <g>
    <g id="Layer_1">
      <path d="M20.8,8.3c-.5-1.2-1.2-2.2-2-3-.9-.9-1.9-1.5-3-2-1.2-.5-2.4-.7-3.7-.7s-2.5.2-3.7.7c-1.2.5-2.2,1.2-3,2-.9.9-1.5,1.9-2,3-.5,1.2-.7,2.4-.7,3.7s.2,2.5.7,3.7,1.2,2.2,2,3,1.9,1.5,3,2c1.2.5,2.4.7,3.7.7s2.5-.2,3.7-.7,2.2-1.2,3-2c.9-.9,1.5-1.9,2-3,.5-1.2.7-2.4.7-3.7s-.2-2.5-.7-3.7ZM17.7,17.7c-1.5,1.5-3.4,2.3-5.7,2.3s-4.1-.8-5.7-2.3-2.3-3.4-2.3-5.7.8-4.1,2.3-5.7c1.5-1.5,3.4-2.3,5.7-2.3s4.1.8,5.7,2.3c1.5,1.6,2.3,3.4,2.3,5.7s-.8,4.1-2.3,5.7Z"/>
      <path d="M16.3,9.1c-.3-.3-.8-.3-1.1,0l-4.2,4.2-2.2-2.2c-.3-.3-.8-.3-1.1,0s-.3.8,0,1.1l2.7,2.7h0c.1.2.4.3.5.3s.4,0,.5-.2l4.8-4.8c.4-.3.4-.8,0-1.1Z"/>
    </g>
  </g>
</svg>