<?xml version="1.0" encoding="utf-8"?>
<!-- Generator: Adobe Illustrator 25.3.1, SVG Export Plug-In . SVG Version: 6.00 Build 0)  -->
<svg version="1.1" id="Layer_1" xmlns="http://www.w3.org/2000/svg" xmlns:xlink="http://www.w3.org/1999/xlink" x="0px" y="0px"
	 viewBox="0 0 45.4 45.2" style="enable-background:new 0 0 45.4 45.2;" xml:space="preserve">
<style type="text/css">
	.st0{fill:#47A347;}
	.st1{fill:#FFFFFF;}
</style>
<g>
	<path class="st0" d="M22.7,1.1c0.7,0,1.4,0,2.1,0.1c0.7,0.1,1.4,0.2,2.1,0.3c0.7,0.1,1.4,0.3,2,0.5c0.7,0.2,1.3,0.4,2,0.7
		c0.7,0.3,1.3,0.6,1.9,0.9s1.2,0.7,1.8,1.1c0.6,0.4,1.2,0.8,1.7,1.3c0.5,0.4,1.1,0.9,1.6,1.4c0.5,0.5,1,1,1.4,1.6
		c0.4,0.5,0.9,1.1,1.3,1.7s0.8,1.2,1.1,1.8c0.3,0.6,0.6,1.3,0.9,1.9s0.5,1.3,0.7,2c0.2,0.7,0.4,1.4,0.5,2c0.1,0.7,0.2,1.4,0.3,2.1
		c0.1,0.7,0.1,1.4,0.1,2.1c0,0.7,0,1.4-0.1,2.1c-0.1,0.7-0.2,1.4-0.3,2.1c-0.1,0.7-0.3,1.4-0.5,2c-0.2,0.7-0.4,1.3-0.7,2
		c-0.3,0.7-0.6,1.3-0.9,1.9c-0.3,0.6-0.7,1.2-1.1,1.8c-0.4,0.6-0.8,1.2-1.3,1.7c-0.4,0.5-0.9,1.1-1.4,1.6c-0.5,0.5-1,1-1.6,1.4
		c-0.5,0.4-1.1,0.9-1.7,1.3s-1.2,0.8-1.8,1.1c-0.6,0.3-1.3,0.6-1.9,0.9c-0.7,0.3-1.3,0.5-2,0.7c-0.7,0.2-1.4,0.4-2,0.5
		c-0.7,0.1-1.4,0.2-2.1,0.3c-0.7,0.1-1.4,0.1-2.1,0.1c-0.7,0-1.4,0-2.1-0.1c-0.7-0.1-1.4-0.2-2.1-0.3c-0.7-0.1-1.4-0.3-2-0.5
		c-0.7-0.2-1.3-0.4-2-0.7c-0.7-0.3-1.3-0.6-1.9-0.9c-0.6-0.3-1.2-0.7-1.8-1.1s-1.2-0.8-1.7-1.3c-0.5-0.4-1.1-0.9-1.6-1.4
		c-0.5-0.5-1-1-1.4-1.6c-0.4-0.5-0.9-1.1-1.3-1.7c-0.4-0.6-0.8-1.2-1.1-1.8c-0.3-0.6-0.6-1.3-0.9-1.9c-0.3-0.7-0.5-1.3-0.7-2
		c-0.2-0.7-0.4-1.4-0.5-2c-0.1-0.7-0.2-1.4-0.3-2.1s-0.1-1.4-0.1-2.1c0-0.7,0-1.4,0.1-2.1c0.1-0.7,0.2-1.4,0.3-2.1
		c0.1-0.7,0.3-1.4,0.5-2c0.2-0.7,0.4-1.3,0.7-2s0.6-1.3,0.9-1.9c0.3-0.6,0.7-1.2,1.1-1.8S5.6,9.5,6.1,9C6.5,8.4,7,7.9,7.5,7.4
		c0.5-0.5,1-1,1.6-1.4c0.5-0.4,1.1-0.9,1.7-1.3c0.6-0.4,1.2-0.8,1.8-1.1s1.3-0.6,1.9-0.9c0.7-0.3,1.3-0.5,2-0.7
		c0.7-0.2,1.4-0.4,2-0.5c0.7-0.1,1.4-0.2,2.1-0.3C21.3,1.1,22,1.1,22.7,1.1z"/>
	<path class="st1" d="M32.3,16.9c-0.7-0.7-1.7-0.7-2.4,0l-9.6,9.6l-4.9-4.9c-0.7-0.7-1.7-0.7-2.4,0c-0.7,0.7-0.7,1.7,0,2.4l6,6
		c0,0,0,0,0,0.1c0.3,0.3,0.8,0.5,1.2,0.5c0.4,0,0.9-0.2,1.2-0.5l10.8-10.8C33,18.7,33,17.6,32.3,16.9z"/>
</g>
</svg>
