<?xml version="1.0" encoding="utf-8"?>
<!-- Generator: Adobe Illustrator 28.0.0, SVG Export Plug-In . SVG Version: 6.00 Build 0)  -->
<svg version="1.1" id="Layer_1" xmlns="http://www.w3.org/2000/svg" xmlns:xlink="http://www.w3.org/1999/xlink" x="0px" y="0px"
	 viewBox="0 0 24 24" style="enable-background:new 0 0 24 24;" xml:space="preserve">
<g>
	<rect x="11.25" y="6.0769043" width="1.5" height="6"/>
	<path d="M12,15.7307129c0.2288818,0,0.4207153-0.0773926,0.5755005-0.2322388
		c0.1547852-0.1547852,0.2321777-0.3465576,0.2321777-0.5753784c0-0.2288818-0.0773926-0.4207153-0.2321777-0.5755005
		S12.2288818,14.1154175,12,14.1154175s-0.4207153,0.0773926-0.5755005,0.2321777s-0.2321777,0.3466187-0.2321777,0.5755005
		c0,0.2288208,0.0773926,0.4205933,0.2321777,0.5753784C11.5792847,15.6533203,11.7711182,15.7307129,12,15.7307129z"/>
	<path d="M19.1425171,3.9766846l-0.2018433-0.2008667V2h-1.6183472v2.5050049
		c1.0595703,0.8673706,1.8900757,1.9813232,2.4187012,3.2441406c0.5285645,1.2628784,0.7391968,2.6359253,0.6132812,3.9990845
		c-0.1259155,1.3630981-0.5845337,2.6744995-1.3356323,3.8191528c-0.7509766,1.1448364-1.7715454,2.0878906-2.972168,2.7468262
		l-0.102478,0.0266113H8.0042725L7.9559326,18.314209c-1.3123169-0.723938-2.4065552-1.7858276-3.1690674-3.0755005
		c-0.7625732-1.2896118-1.1654663-2.7598877-1.1668701-4.2579346C3.6116333,9.7407227,3.882019,8.5145264,4.4112549,7.3928223
		S5.7149658,5.2825317,6.6776733,4.5V2H5.0600586v1.7758179l-0.064209,0.0633545
		c-1.8921509,1.8583374-2.9694214,4.3909912-2.9953613,7.0422363c-0.0259399,2.6511841,1.0015259,5.2044067,2.8569336,7.0993652
		l0.2026367,0.2000122V22h1.6176147v-2.0424805h2.4705811V22h1.6168213v-2.0424805h2.4698486V22h1.6183472v-2.0424805h2.4690552V22
		h1.6183472v-3.8182983l0.064209-0.0634155c1.8919067-1.8585815,2.968811-4.3911743,2.9946289-7.0423584
		C22.0253296,8.4248047,20.9978027,5.8716431,19.1425171,3.9766846z"/>
</g>
</svg>
