<?xml version="1.0" encoding="utf-8"?>
<!-- Generator: Adobe Illustrator 28.0.0, SVG Export Plug-In . SVG Version: 6.00 Build 0)  -->
<svg version="1.1" id="Layer_1" xmlns="http://www.w3.org/2000/svg" xmlns:xlink="http://www.w3.org/1999/xlink" x="0px" y="0px"
	 viewBox="0 0 24 24" style="enable-background:new 0 0 24 24;" xml:space="preserve">
<g>
	<path d="M20.751709,8.2940063c-0.4989014-1.1556396-1.1760254-2.1608887-2.031189-3.0157471
		c-0.8552246-0.8547974-1.8609009-1.5315552-3.0170898-2.0302124C14.5473022,2.7493896,13.3123169,2.5,11.998291,2.5
		c-1.3139038,0-2.548645,0.2494507-3.7042847,0.7483521S6.1331177,4.4243164,5.2782593,5.279541
		C4.4234619,6.1347656,3.7467041,7.1404419,3.2480469,8.2965698S2.5,10.6876831,2.5,12.001709
		c0,1.3139038,0.2494507,2.5487061,0.7483521,3.7042847s1.1759644,2.1608887,2.031189,3.015686
		c0.8552246,0.8549194,1.8609009,1.5316162,3.0170288,2.0303345C9.4526978,21.2506104,10.6876831,21.5,12.001709,21.5
		c1.3139038,0,2.5487061-0.2495117,3.7042847-0.748291c1.1555786-0.4989014,2.1608887-1.1760254,3.015686-2.031189
		c0.8549194-0.8552246,1.5316162-1.8609009,2.0303345-3.0171509C21.2506104,14.5473022,21.5,13.3123169,21.5,11.998291
		C21.5,10.6843872,21.2504883,9.449646,20.751709,8.2940063z M17.6749878,17.6749878C16.125,19.2249756,14.2332764,20,12,20
		c-2.2333374,0-4.125-0.7750244-5.6749878-2.3250122S4,14.2332764,4,12c0-2.2333374,0.7750244-4.125,2.3250122-5.6749878
		S9.7666626,4,12,4c2.2332764,0,4.125,0.7750244,5.6749878,2.3250122S20,9.7666626,20,12
		C20,14.2332764,19.2249756,16.125,17.6749878,17.6749878z"/>
	<path d="M15.1616821,10.4639893c-0.5119629,0-0.9599609,0.2000122-1.2319946,0.6400146h-0.0159912v-0.5280151h-1.0800171v5.59198
		h1.1360474v-1.9679565h0.0159912c0.2719727,0.407959,0.7439575,0.6239624,1.2399902,0.6239624
		c1.2080078,0,1.815979-1.0319824,1.815979-2.1359863C17.041687,11.5120239,16.4577026,10.4639893,15.1616821,10.4639893z
		 M14.9216919,13.9680176c-0.7359619,0-0.9920044-0.6400146-0.9920044-1.3120117s0.2399902-1.3359985,0.9840088-1.3359985
		c0.7280273,0,0.9920044,0.6799927,0.9920044,1.3359985C15.9057007,13.3280029,15.6657104,13.9680176,14.9216919,13.9680176z"/>
	<path d="M9.9509888,9.25h0.6650391v3.302002c0,0.8480225-0.2880249,1.2399902-1.184021,1.2399902
		c-1.0159912,0-1.1760254-0.6159668-1.1760254-1.2399902V9H7v3.552002c0,1.552002,0.8959961,2.2960205,2.4320068,2.2960205
		c1.5280151,0,2.4400024-0.7520142,2.4400024-2.2960205V9.25h0.677002L11.25,7L9.9509888,9.25z"/>
</g>
</svg>
