<?xml version="1.0" encoding="utf-8"?>
<!-- Generator: Adobe Illustrator 28.0.0, SVG Export Plug-In . SVG Version: 6.00 Build 0)  -->
<svg version="1.1" id="Layer_1" xmlns="http://www.w3.org/2000/svg" xmlns:xlink="http://www.w3.org/1999/xlink" x="0px" y="0px"
	 viewBox="0 0 24 24" style="enable-background:new 0 0 24 24;" xml:space="preserve">
<path d="M20.1875,16.3875122c-0.375-0.4763184-0.854187-0.8226929-1.4375-1.0394287V7
	c0-1.0358887-0.3660278-1.9198608-1.0980835-2.6519165C16.9199219,3.6160889,16.0358887,3.25,15,3.25
	s-1.9199219,0.3660889-2.6519165,1.0980835C11.6160889,5.0801392,11.25,5.9641113,11.25,7v10
	c0,0.6187744-0.2197876,1.1483765-0.6596069,1.5891113C10.1506958,19.0297241,9.6211548,19.25,9.0018921,19.25
	S7.852478,19.0297241,7.411499,18.5891113C6.970459,18.1483765,6.75,17.6187744,6.75,17V8.6519165
	c0.583313-0.2166748,1.0625-0.5631714,1.4375-1.0394287S8.75,6.5997925,8.75,6.0032959
	c0-0.7648315-0.2676392-1.414856-0.8029175-1.9502563C7.4118652,3.5177002,6.7624512,3.25,5.9989014,3.25
	c-0.7636108,0-1.4126587,0.2677002-1.9471436,0.8030396C3.5172729,4.5884399,3.25,5.2384644,3.25,6.0032959
	c0,0.5964966,0.1875,1.1329346,0.5625,1.6091919S4.666687,8.4352417,5.25,8.6519165V17
	c0,1.0358887,0.3660278,1.9199219,1.0980835,2.6519165C7.0801392,20.3839722,7.9641113,20.75,9,20.75
	s1.9199219-0.3660278,2.6519165-1.0980835C12.3839722,18.9199219,12.75,18.0358887,12.75,17V7
	c0-0.6187134,0.2199097-1.1484375,0.6596069-1.5890503C13.8494263,4.9702759,14.3789062,4.75,14.9981079,4.75
	c0.6192627,0,1.1494141,0.2202759,1.5903931,0.6609497C17.02948,5.8515625,17.25,6.3812866,17.25,7v8.3480835
	c-0.583313,0.2000122-1.0625,0.5422974-1.4375,1.0269165S15.25,17.4002075,15.25,17.9967041
	c0,0.7647705,0.2677002,1.414917,0.8029175,1.9503174C16.5881958,20.4822998,17.2376099,20.75,18.0010986,20.75
	c0.7636108,0,1.4125977-0.2677002,1.9470825-0.8029785C20.4827271,19.4116211,20.75,18.7614746,20.75,17.9967041
	C20.75,17.4002075,20.5625,16.8637695,20.1875,16.3875122z M6,7.25c-0.3474121,0-0.6426392-0.12146-0.8856201-0.3643799
	C4.87146,6.6426392,4.75,6.3474121,4.75,6s0.12146-0.6426392,0.3643799-0.8856201C5.3573608,4.87146,5.6525879,4.75,6,4.75
	s0.6426392,0.12146,0.8856201,0.3643799C7.12854,5.3573608,7.25,5.6525879,7.25,6S7.12854,6.6426392,6.8856201,6.8856201
	C6.6426392,7.12854,6.3474121,7.25,6,7.25z M18.8856201,18.8856201C18.6425781,19.1286011,18.3474121,19.25,18,19.25
	s-0.6425781-0.1213989-0.8856201-0.3643799C16.8713989,18.6425781,16.75,18.3474121,16.75,18
	s0.1213989-0.6425781,0.3643799-0.8856201C17.3574219,16.871521,17.6525879,16.75,18,16.75s0.6425781,0.121521,0.8856201,0.3643799
	C19.1286011,17.3574219,19.25,17.6525879,19.25,18S19.1286011,18.6425781,18.8856201,18.8856201z"/>
</svg>
