<?xml version="1.0" encoding="utf-8"?>
<!-- Generator: Adobe Illustrator 28.0.0, SVG Export Plug-In . SVG Version: 6.00 Build 0)  -->
<svg version="1.1" id="Layer_1" xmlns="http://www.w3.org/2000/svg" xmlns:xlink="http://www.w3.org/1999/xlink" x="0px" y="0px"
	 viewBox="0 0 24 24" style="enable-background:new 0 0 24 24;" xml:space="preserve">
<g>
	<path d="M12,13c0.2833252,0,0.520813-0.0958862,0.7125244-0.2874756C12.9041748,12.520813,13,12.2833252,13,12
		c0-0.2833862-0.0958252-0.520874-0.2874756-0.7125244C12.520813,11.0958252,12.2833252,11,12,11
		s-0.520813,0.0958252-0.7125244,0.2874756C11.0958252,11.479126,11,11.7166138,11,12
		c0,0.2833252,0.0958252,0.520813,0.2874756,0.7125244C11.479187,12.9041138,11.7166748,13,12,13z"/>
	<path d="M20.7515869,8.2940063c-0.4987793-1.1556396-1.1759033-2.1608887-2.0310669-3.0157471
		c-0.8552246-0.8548584-1.8609009-1.5316162-3.0170898-2.0302734C14.5473022,2.7493286,13.3123169,2.5,11.998291,2.5
		c-1.3139038,0-2.548645,0.2494507-3.7042847,0.7483521C7.1383667,3.7471924,6.1331177,4.4242554,5.2782593,5.27948
		C4.4234619,6.1347046,3.7467041,7.1403809,3.2480469,8.2965698C2.7493896,9.4526978,2.5,10.6876831,2.5,12.001709
		c0,1.3139038,0.2494507,2.5487061,0.7483521,3.7042847s1.1759644,2.1608887,2.031189,3.015686
		s1.8609009,1.5316162,3.0170288,2.0303345C9.4526978,21.2506104,10.6876831,21.5,12.001709,21.5
		c1.3139038,0,2.5487061-0.2495117,3.7042847-0.7484131s2.1608887-1.1759033,3.015686-2.0310669
		c0.8549194-0.8553467,1.5316162-1.8609009,2.0303345-3.0171509C21.2506104,14.5473022,21.5,13.3121948,21.5,11.998291
		S21.2504883,9.449585,20.7515869,8.2940063z M13.7307129,13.7307129l-6.9037476,3.4422607l3.4422607-6.9037476l6.9037476-3.4423218
		L13.7307129,13.7307129z"/>
</g>
</svg>
