<?xml version="1.0" encoding="utf-8"?>
<!-- Generator: Adobe Illustrator 28.1.0, SVG Export Plug-In . SVG Version: 6.00 Build 0)  -->
<svg version="1.1" id="Layer_1" xmlns="http://www.w3.org/2000/svg" xmlns:xlink="http://www.w3.org/1999/xlink" x="0px" y="0px"
	 viewBox="0 0 24 24" style="enable-background:new 0 0 24 24;" xml:space="preserve">
<path d="M9.8844,20.4999v-2.827l-3.3846-3.3846V9.3076c0-0.3359,0.074-0.65,0.2221-0.9423C6.87,8.073,7.1062,7.8448,7.4306,7.6807
	V9.798L1.6113,3.9691l1.0538-1.0538l18.4001,18.4l-1.0539,1.0538l-5.2961-5.2962l-0.6001,0.6v2.8269L9.8844,20.4999z
	 M16.8613,14.2807L8.6729,6.0923V3.4999h1.5v4h3.6538v-4h1.5v4.75l-0.75-0.75h1.1154c0.4987,0,0.9246,0.1766,1.2778,0.5298
	c0.3532,0.3532,0.5299,0.7792,0.5299,1.2779v4.3346L16.8613,14.2807z"/>
</svg>
