<?xml version="1.0" encoding="utf-8"?>
<!-- Generator: Adobe Illustrator 28.1.0, SVG Export Plug-In . SVG Version: 6.00 Build 0)  -->
<svg version="1.1" id="Layer_1" xmlns="http://www.w3.org/2000/svg" xmlns:xlink="http://www.w3.org/1999/xlink" x="0px" y="0px"
	 viewBox="0 0 24 24" style="enable-background:new 0 0 24 24;" xml:space="preserve">
<path d="M9.8844,20.4999v-2.827l-3.3846-3.3846V9.3076c0-0.3441,0.074-0.6666,0.2221-0.9676
	C6.87,8.0389,7.0966,7.8095,7.4017,7.6519l1.4057,1.4057H8.1921c-0.0513,0-0.0961,0.0224-0.1346,0.0673
	C8.019,9.1698,7.9998,9.2307,7.9998,9.3076v4.3423l3.3846,3.3846v1.9654h1.2308v-1.9654l1.0308-1.0308L1.6113,3.9691l1.0538-1.0538
	l18.4001,18.4l-1.0539,1.0538l-5.2961-5.2962l-0.6001,0.6v2.8269L9.8844,20.4999z M16.8613,14.2807l-0.8615-0.8616V9.3076
	c0-0.0769-0.0321-0.1475-0.0962-0.2116c-0.0641-0.0641-0.1346-0.0962-0.2115-0.0962h-4.1116L8.6729,6.0923V3.4999h1.5v4h3.6538v-4
	h1.5v4.75l-0.75-0.75h1.1154c0.4971,0,0.9226,0.177,1.2766,0.531c0.354,0.354,0.5311,0.7796,0.5311,1.2767v4.3346L16.8613,14.2807z"
	/>
</svg>
