<?xml version="1.0" encoding="utf-8"?>
<!-- Generator: Adobe Illustrator 28.0.0, SVG Export Plug-In . SVG Version: 6.00 Build 0)  -->
<svg version="1.1" id="Layer_1" xmlns="http://www.w3.org/2000/svg" xmlns:xlink="http://www.w3.org/1999/xlink" x="0px" y="0px"
	 viewBox="0 0 24 24" style="enable-background:new 0 0 24 24;" xml:space="preserve">
<g>
	<rect x="14.7573853" y="3" width="1.1105347" height="5.3817139"/>
	<path d="M15.3126831,12c1.2005005,0,2.2227173-0.4187012,3.0582886-1.2542725
		c0.8357544-0.8356323,1.2543335-1.8579102,1.2543335-3.0584106c0-0.7164307-0.1696167-1.3872681-0.508606-2.010376
		c-0.3380737-0.6213989-0.7999268-1.1401367-1.3840942-1.5552979l-0.0949097-0.0674438l-0.8109131,0.8108521l0.1514282,0.0907593
		c0.4804077,0.288147,0.855896,0.6746216,1.1281738,1.1609497c0.2723999,0.4867554,0.4085083,1.0095215,0.4085083,1.5705566
		c0,0.8916626-0.3104858,1.6450806-0.9337769,2.2684326c-0.623291,0.62323-1.3768311,0.9337769-2.2684326,0.9337769
		c-0.8916626,0-1.6450806-0.3105469-2.2683716-0.9337769c-0.623291-0.6233521-0.9338379-1.37677-0.9338379-2.2684326
		c0-0.56073,0.1376343-1.0812988,0.4133301-1.564209c0.2761841-0.4839478,0.6508179-0.8729858,1.1254272-1.1685181
		l0.1471558-0.0916748l-0.8074951-0.8075562l-0.0944824,0.0651245c-0.5922241,0.4083252-1.0565796,0.9250488-1.3914795,1.5491333
		C11.1676025,6.2944336,11,6.9677124,11,7.6873169c0,1.2005005,0.4187012,2.2227783,1.2542725,3.0584106
		C13.0899048,11.5812988,14.1121826,12,15.3126831,12z"/>
	<path d="M20.8220825,17.2722168c-0.4519043-0.463501-1.0368042-0.6951904-1.7547607-0.6951904h-2.5
		c0-0.5744019-0.1500244-1.074707-0.4500122-1.5010376c-0.2999878-0.4262695-0.6768799-0.7233887-1.1307983-0.8912964
		l-5.8269043-2.1461792C9.06604,12.005188,8.9656982,11.9776001,8.8586426,11.9558105s-0.2124634-0.0325928-0.3163452-0.0325928
		h-6.840332V21.5h4.999939v-1.3731079l7.3076782,2.0845947L21.5,19.8845825v-0.8076782
		C21.5,18.3372192,21.2739868,17.7355957,20.8220825,17.2722168z M5.2019653,20h-2v-6.5769043h2V20z M13.9595947,20.6307983
		l-7.2576904-2.053894v-5.1538086h1.8500366c0.0192261,0,0.0368652,0.0015869,0.0528564,0.0048218
		c0.0160522,0.0031738,0.0336914,0.0079956,0.0529175,0.0144653l5.8018799,2.1307373
		c0.1821289,0.0628052,0.3289185,0.18396,0.4404297,0.3634644c0.1115723,0.1795044,0.1672974,0.3929443,0.1672974,0.6404419
		c-0.730835-0.0103149-1.2942505-0.0340576-1.6904297-0.071228c-0.3961182-0.0371704-0.7454834-0.1069946-1.0479736-0.2095947
		l-2.0250244-0.7037964l-0.4442749,1.4691772l2.2576904,0.7460938c0.3217773,0.112793,0.6353149,0.1859131,0.9403687,0.2192383
		c0.3051147,0.0333862,0.6763306,0.0499878,1.1135254,0.0499878h4.8961182c0.1999512,0,0.3807983,0.0606079,0.5422974,0.1818237
		c0.1615601,0.1210938,0.2680054,0.295166,0.3192749,0.5220947L13.9595947,20.6307983z"/>
</g>
</svg>
