<?xml version="1.0" encoding="utf-8"?>
<!-- Generator: Adobe Illustrator 28.0.0, SVG Export Plug-In . SVG Version: 6.00 Build 0)  -->
<svg version="1.1" id="Layer_1" xmlns="http://www.w3.org/2000/svg" xmlns:xlink="http://www.w3.org/1999/xlink" x="0px" y="0px"
	 viewBox="0 0 24 24" style="enable-background:new 0 0 24 24;" xml:space="preserve">
<path d="M20.8220825,17.2722168c-0.4519043-0.463501-1.0368042-0.6951904-1.7547607-0.6951904h-2.5
	c0-0.5744019-0.1500244-1.074707-0.4500122-1.5010376c-0.2999878-0.4262695-0.6768799-0.7233887-1.1307983-0.8912964
	l-5.8269043-2.1461792C9.06604,12.005188,8.9656982,11.9776001,8.8586426,11.9558105s-0.2124634-0.0325928-0.3163452-0.0325928
	h-6.840332V21.5h4.999939v-1.3731079l7.3076782,2.0845947L21.5,19.8845825v-0.8076782
	C21.5,18.3372192,21.2739868,17.7355957,20.8220825,17.2722168z M5.2019653,20h-2v-6.5769043h2V20z M13.9595947,20.6307983
	l-7.2576904-2.053894v-5.1538086h1.8500366c0.0192261,0,0.0368652,0.0015869,0.0528564,0.0048218
	c0.0160522,0.0031738,0.0336914,0.0079956,0.0529175,0.0144653l5.8018799,2.1307373
	c0.1821289,0.0628052,0.3289185,0.18396,0.4404297,0.3634644c0.1115723,0.1795044,0.1672974,0.3929443,0.1672974,0.6404419
	c-0.730835-0.0103149-1.2942505-0.0340576-1.6904297-0.071228c-0.3961182-0.0371704-0.7454834-0.1069946-1.0479736-0.2095947
	l-2.0250244-0.7037964l-0.4442749,1.4691772l2.2576904,0.7460938c0.3217773,0.112793,0.6353149,0.1859131,0.9403687,0.2192383
	c0.3051147,0.0333862,0.6763306,0.0499878,1.1135254,0.0499878h4.8961182c0.1999512,0,0.3807983,0.0606079,0.5422974,0.1818237
	c0.1615601,0.1210938,0.2680054,0.295166,0.3192749,0.5220947L13.9595947,20.6307983z"/>
<polygon points="17.7919922,6.5640259 18.3280029,6.8740234 18.7999878,6.0440063 19.2719727,6.8740234 19.8079834,6.5640259 
	19.3359985,5.7340088 20.2800293,5.7340088 20.2800293,5.1140137 19.3359985,5.1140137 19.8079834,4.3099976 19.2719727,4 
	18.7999878,4.8040161 18.3280029,4 17.7919922,4.3099976 18.2639771,5.1140137 17.3200073,5.1140137 17.3200073,5.7340088 
	18.2639771,5.7340088 "/>
<rect x="9.5700073" y="9" width="10.1400146" height="1"/>
<polygon points="13.632019,6.5640259 14.1680298,6.8740234 14.6400146,6.0440063 15.1119995,6.8740234 15.6480103,6.5640259 
	15.1760254,5.7340088 16.1199951,5.7340088 16.1199951,5.1140137 15.1760254,5.1140137 15.6480103,4.3099976 15.1119995,4 
	14.6400146,4.8040161 14.1680298,4 13.632019,4.3099976 14.1040039,5.1140137 13.1599731,5.1140137 13.1599731,5.7340088 
	14.1040039,5.7340088 "/>
<polygon points="9.4719849,6.5640259 10.0079956,6.8740234 10.4799805,6.0440063 10.9520264,6.8740234 11.4879761,6.5640259 
	11.0159912,5.7340088 11.960022,5.7340088 11.960022,5.1140137 11.0159912,5.1140137 11.4879761,4.3099976 10.9520264,4 
	10.4799805,4.8040161 10.0079956,4 9.4719849,4.3099976 9.9440308,5.1140137 9,5.1140137 9,5.7340088 9.9440308,5.7340088 "/>
</svg>
