<?xml version="1.0" encoding="utf-8"?>
<!-- Generator: Adobe Illustrator 28.0.0, SVG Export Plug-In . SVG Version: 6.00 Build 0)  -->
<svg version="1.1" id="Layer_1" xmlns="http://www.w3.org/2000/svg" xmlns:xlink="http://www.w3.org/1999/xlink" x="0px" y="0px"
	 viewBox="0 0 24 24" style="enable-background:new 0 0 24 24;" xml:space="preserve">
<path d="M12,3.0001221L1.8654785,20.5h20.269104L12,3.0001221z M11.25,10.1923828h1.5v5h-1.5V10.1923828z M12,17.8076782
	c-0.2288818,0-0.4207153-0.0773926-0.5755005-0.2321777S11.1923218,17.2288818,11.1923218,17
	c0-0.2288208,0.0773926-0.4205933,0.2321777-0.5753784C11.5792847,16.2697754,11.7711182,16.1923828,12,16.1923828
	c0.2288208,0,0.4207153,0.0773926,0.5755005,0.2322388C12.7302856,16.5794067,12.8076782,16.7711792,12.8076782,17
	c0,0.2288818-0.0773926,0.4207153-0.2321777,0.5755005S12.2288208,17.8076782,12,17.8076782z"/>
</svg>
