<?xml version="1.0" encoding="utf-8"?>
<!-- Generator: Adobe Illustrator 28.0.0, SVG Export Plug-In . SVG Version: 6.00 Build 0)  -->
<svg version="1.1" id="Layer_1" xmlns="http://www.w3.org/2000/svg" xmlns:xlink="http://www.w3.org/1999/xlink" x="0px" y="0px"
	 viewBox="0 0 24 24" style="enable-background:new 0 0 24 24;" xml:space="preserve">
<g>
	<path d="M21.9885864,11.0717773c-0.0266113-0.2591553-0.1043701-0.510376-0.2288818-0.7391968l0.0006714,0.0016479
		c-0.1244507-0.2312012-0.2938843-0.4353027-0.4981689-0.6002197s-0.4395142-0.2874756-0.6918335-0.3604126
		C14.9395142,7.807251,8.9868164,7.8147583,3.3598022,9.3953247C2.861084,9.5608521,2.4484863,9.9175415,2.2124023,10.3870239
		c-0.2360229,0.4693604-0.2761841,1.0133667-0.1116333,1.5123901l2.7242432,8.383606
		c0.1040649,0.3153076,0.3047485,0.5897827,0.5736084,0.7846069c0.2687988,0.1947632,0.5921631,0.2999878,0.9241943,0.3006592
		c0.1506958,0.0003052,0.3005981-0.0213013,0.4450073-0.06427c3.4237061-0.9520874,7.0422974-0.9520874,10.4658813,0
		c0.3939209,0.1123047,0.815979,0.0680542,1.1781006-0.1235352c0.3619995-0.1914673,0.6359863-0.515564,0.7647095-0.90448
		l2.6925049-8.288208l0.0456543-0.145813C21.9901123,11.5927124,22.0151978,11.3308716,21.9885864,11.0717773z
		 M17.8461914,19.8411255c-0.0147705,0.046875-0.0476074,0.0860596-0.0910645,0.1090698
		c-0.0436401,0.0228882-0.0952148,0.02771-0.142334,0.0134277c-3.6734009-1.0222168-7.5560913-1.0222168-11.2294922,0
		c-0.0465088,0.013855-0.0965576,0.0094604-0.1398315-0.0125122c-0.043335-0.0219116-0.0765381-0.0596313-0.0927734-0.1054077
		l-0.9101562-2.7993774c0.1134644-0.0479126,0.2182007-0.1141968,0.3101196-0.196106
		c0.307312-0.2643433,0.7067261-0.3961182,1.1109619-0.3666992c0.2107544-0.0179443,0.4229126,0.0080566,0.6230469,0.0764771
		c0.2001953,0.0682983,0.3839722,0.1774292,0.5397949,0.3203735c0.4209595,0.3182983,0.9490967,0.4606323,1.4730225,0.3969116
		c0.5238647,0.0635986,1.0519409-0.0787964,1.4729004-0.3969116c0.1559448-0.1429443,0.3397217-0.2521973,0.5397949-0.3204956
		c0.2001953-0.0682983,0.4124146-0.0943604,0.6231079-0.076355c0.2123413-0.0150146,0.4255371,0.0123901,0.6271362,0.0805054
		c0.2016602,0.0680542,0.3876953,0.1756592,0.5473633,0.3163452c0.4274292,0.3135986,0.9570312,0.4553223,1.4838867,0.3969116
		c0.5234985,0.0593872,1.0501099-0.0824585,1.4730225-0.3969116c0.1572266-0.1408691,0.3411865-0.2485962,0.5410156-0.3167725
		c0.1997681-0.0681763,0.4113159-0.09552,0.6217651-0.0800781c0.4042969-0.0294189,0.8037109,0.102356,1.1110229,0.3666992
		c0.1173096,0.1045532,0.2540283,0.1851807,0.4022827,0.2371826L17.8461914,19.8411255z M20.5728149,11.4636841
		l-0.0046997,0.0039062l-1.4505005,4.4794312c-0.1835327-0.0594482-0.3500977-0.1617432-0.486084-0.2985229
		c-0.4034424-0.2907104-0.9020996-0.4176025-1.3954468-0.3549805c-0.5239868-0.064209-1.0523071,0.078064-1.4729614,0.3969116
		c-0.1559448,0.1427612-0.3398438,0.25177-0.539917,0.3199463c-0.2001953,0.0682373-0.4122925,0.0941162-0.6229858,0.0761108
		c-0.4284058,0.0280151-0.850647-0.1143799-1.1744995-0.3960571c-0.4285278-0.3113403-0.9572144-0.4528198-1.4838257-0.3969116
		c-0.5239868-0.064209-1.0523071,0.078064-1.4730225,0.3969116c-0.1558838,0.1427612-0.3397827,0.25177-0.539917,0.3199463
		c-0.2001343,0.0682373-0.4122925,0.0941162-0.6229858,0.0761108c-0.2106934,0.0180054-0.4227905-0.0078735-0.6229858-0.0761108
		c-0.2001343-0.0681763-0.3839722-0.1771851-0.539856-0.3199463c-0.4207764-0.3188477-0.9490967-0.4611206-1.4730225-0.3969116
		c-0.4971313-0.0617065-0.9993896,0.0650024-1.4078369,0.3549805C5.1522827,15.756897,5.022583,15.8433228,4.8800659,15.902771
		l-1.4528198-4.4398804c-0.0249023-0.0731201-0.0349121-0.1505127-0.0294189-0.2276001
		c0.0054321-0.0770874,0.0262451-0.1522827,0.0612183-0.2211914c0.0350342-0.0698242,0.0835571-0.131897,0.1427612-0.1826782
		c0.0592041-0.0509033,0.1279297-0.0894165,0.2022095-0.1135254c2.4743042-0.6846924,5.0251465-1.0545654,7.5921021-1.1008301
		v0.6519165h1.2341919V9.6177979c2.5540161,0.0473633,5.0919189,0.4157104,7.5540771,1.0961914
		c0.0740356,0.0220947,0.1430054,0.0585938,0.2028198,0.1074219c0.0598755,0.0487671,0.1094971,0.1090088,0.1459961,0.177063
		c0.0374146,0.0710449,0.0601807,0.1487427,0.0668945,0.2286377C20.6068726,11.3070068,20.5975952,11.3875122,20.5728149,11.4636841
		z"/>
	<path d="M18.925293,6.3872681h1.2404175c0.0009766-0.6040039-0.1234131-1.2016602-0.3651123-1.755188l-1.1372681,0.4953613
		C18.836731,5.5247803,18.9260254,5.9537354,18.925293,6.3872681z"/>
	<path d="M18.34552,4.5670166l1.0116577-0.7194824C19.0078125,3.3555908,18.56073,2.940979,18.0438843,2.6296387
		L17.4019775,3.690979C17.7727051,3.9158325,18.093689,4.2139282,18.34552,4.5670166z"/>
	<path d="M14.9017944,3.3622437h0.0054321L14.559082,2.1706543c-0.6209106,0.1864624-1.1999512,0.4910278-1.7055054,0.8969727
		l0.9109497,0.8953857C14.0980835,3.6864624,14.4852905,3.4818726,14.9017944,3.3622437z"/>
	<path d="M16.8181763,3.4194946V3.4156494l0.4086304-1.1706543c-0.5704346-0.1971436-1.1749878-0.2763062-1.7769165-0.2325439
		l0.0914917,1.2404175C15.973877,3.2196655,16.4086914,3.2764282,16.8181763,3.4194946z"/>
	<path d="M5.3475342,5.1274414L4.2102661,4.6320801C3.96875,5.1856689,3.8446655,5.7833252,3.8458862,6.3872681h1.2404175
		C5.0856934,5.9537354,5.1741333,5.5247803,5.3475342,5.1274414z"/>
	<path d="M6.6057739,3.690979h0.0031128L5.96698,2.6296387c-0.5167847,0.3111572-0.9636841,0.7258301-1.3125,1.2178955
		l1.0078125,0.7194824C5.9140015,4.2139282,6.2350464,3.9158325,6.6057739,3.690979z"/>
	<path d="M11.1719971,3.0668335C10.65979,2.6607056,10.074585,2.3565063,9.447876,2.1706543L9.1044312,3.3622437
		C9.5209351,3.4816895,9.90802,3.6865234,10.2409058,3.9638062L11.1719971,3.0668335z"/>
	<path d="M8.4710693,3.2490234L8.5601807,2.008606C7.9587402,1.9641724,7.3545532,2.043335,6.7848511,2.2411499l0.4093628,1.1744995
		C7.6035156,3.2715454,8.0384521,3.2147827,8.4710693,3.2490234z"/>
	<path d="M11.3759155,5.7391968h1.2744751c0.1002808-0.4135742,0.281311-0.8032227,0.5325928-1.1466064l-1.1713867-1.0171509
		l-1.1682739,1.0171509C11.0941162,4.9362793,11.2750244,5.3258667,11.3759155,5.7391968z"/>
	<rect x="11.3961182" y="6.3088379" width="1.2341919" height="1.5838623"/>
	<rect x="11.3961182" y="10.9418945" width="1.2341919" height="1.5838013"/>
	<rect x="11.3961182" y="13.1984863" width="1.2341919" height="1.5838013"/>
</g>
</svg>
