<?xml version="1.0" encoding="utf-8"?>
<!-- Generator: Adobe Illustrator 24.3.0, SVG Export Plug-In . SVG Version: 6.00 Build 0)  -->
<svg version="1.1" id="Layer_1" xmlns="http://www.w3.org/2000/svg" xmlns:xlink="http://www.w3.org/1999/xlink" x="0px" y="0px"
	 viewBox="0 0 206 106" style="enable-background:new 0 0 206 106;" xml:space="preserve">
<style type="text/css">
	.st0{fill:url(#SVGID_1_);}
	.st1{fill:url(#SVGID_2_);}
	.st2{fill:url(#SVGID_3_);}
	.st3{fill:url(#SVGID_4_);}
</style>
<defs>
	<filter id="darkShadow">
      <feDropShadow dx="2" dy="2" stdDeviation="4" flood-color="rgba(0,0,0,.16)" />
    </filter>
	<filter id="lightShadow">
      <feDropShadow dx="-2" dy="-2" stdDeviation="4" flood-color="#ffffff" />
    </filter>
</defs>
<g>
	<g>
		<g>
			<linearGradient id="SVGID_1_" gradientUnits="userSpaceOnUse" x1="46.7197" y1="107.7803" x2="146.7785" y2="7.7214" gradientTransform="matrix(1 0 0 -1 0 108)">
				<stop  offset="0" style="stop-color:#E5E4E4"/>
				<stop  offset="1" style="stop-color:#DCDCDC"/>
			</linearGradient>
			<path class="st0" style="filter:url(#darkShadow);" d="M196.4,34.9h-7V22c0-5.5-4.5-10-10-10H19.6c-5.5,0-10,4.5-10,10v62c0,5.5,4.5,10,10,10h159.9
				c5.5,0,10-4.5,10-10V72h7V34.9H196.4z"/>
		</g>
	</g>
	<g>
		<g>
			<linearGradient id="SVGID_2_" gradientUnits="userSpaceOnUse" x1="46.7197" y1="107.7803" x2="146.7785" y2="7.7214" gradientTransform="matrix(1 0 0 -1 0 108)">
				<stop  offset="0" style="stop-color:#E5E4E4"/>
				<stop  offset="1" style="stop-color:#DCDCDC"/>
			</linearGradient>
			<path class="st1" d="M196.4,34.9h-7V22c0-5.5-4.5-10-10-10H19.6c-5.5,0-10,4.5-10,10v62c0,5.5,4.5,10,10,10h159.9 c5.5,0,10-4.5,10-10V72h7V34.9H196.4z"/>
		</g>
	</g>
	
	<linearGradient id="SVGID_3_" gradientUnits="userSpaceOnUse" x1="46.7197" y1="107.7803" x2="146.7785" y2="7.7214" gradientTransform="matrix(1 0 0 -1 0 108)">
		<stop  offset="0" style="stop-color:#E5E4E4"/>
		<stop  offset="1" style="stop-color:#DCDCDC"/>
	</linearGradient>
	<path class="st2" d="M196.4,34.9h-7V22c0-5.5-4.5-10-10-10H19.6c-5.5,0-10,4.5-10,10v62c0,5.5,4.5,10,10,10h159.9
	c5.5,0,10-4.5,10-10V72h7V34.9H196.4z"/>

	<linearGradient  style="filter:url(#lightShadow)" id="SVGID_4_" gradientUnits="userSpaceOnUse" x1="41.5" y1="113" x2="158.55" y2="-4.05" gradientTransform="matrix(1 0 0 -1 0 108)">
		<stop  offset="0" style="stop-color:#4DA1FF"/>
		<stop  offset="1" style="stop-color:#1A5CA5"/>
	</linearGradient>
	<path class="st3" d="M191.4,41h-7V23c0-2.8-2.2-5-5-5H20.6c-2.8,0-5,2.2-5,5v61c0,2.8,2.2,5,5,5h158.9c2.8,0,5-2.2,5-5V66h7V41 H191.4z"/>
</g>
</svg>
