<svg id="chat" xmlns="http://www.w3.org/2000/svg" width="29" height="29" viewBox="0 0 29 29">
  <path id="Path_836" data-name="Path 836" d="M16.264,27.563l-1.577-.906,3.625-6.344H23.75A1.813,1.813,0,0,0,25.563,18.5V7.625A1.813,1.813,0,0,0,23.75,5.813H5.625A1.812,1.812,0,0,0,3.813,7.625V18.5a1.813,1.813,0,0,0,1.812,1.813h8.156v1.813H5.625A3.625,3.625,0,0,1,2,18.5V7.625A3.625,3.625,0,0,1,5.625,4H23.75a3.625,3.625,0,0,1,3.625,3.625V18.5a3.625,3.625,0,0,1-3.625,3.625H19.364Z" transform="translate(-0.188 -0.375)" fill="#fff"/>
  <rect id="Rectangle_498" data-name="Rectangle 498" width="14.5" height="1.813" transform="translate(7.25 9.063)" fill="#fff"/>
  <rect id="Rectangle_499" data-name="Rectangle 499" width="9.063" height="1.813" transform="translate(7.25 14.5)" fill="#fff"/>
  <rect id="_Transparent_Rectangle_" data-name="&lt;Transparent Rectangle&gt;" width="29" height="29" fill="none"/>
</svg>
