<?xml version="1.0" encoding="utf-8"?>
<!-- Generator: Adobe Illustrator 23.0.6, SVG Export Plug-In . SVG Version: 6.00 Build 0)  -->
<svg version="1.1" id="Layer_1" xmlns="http://www.w3.org/2000/svg" xmlns:xlink="http://www.w3.org/1999/xlink" x="0px" y="0px"
	 viewBox="0 0 96 90" style="enable-background:new 0 0 96 90;" xml:space="preserve">
<style type="text/css">
	.st0{fill:#1971D4;}
</style>
<title>Icon_Special-Offers_Blue</title>
<path class="st0" d="M1,75.9c-0.9,2.7,0.6,5.6,3.3,6.5h0.1l17.2,5.5l-9.7-45.4L1,75.9z"/>
<path class="st0" d="M26.2,84.8c0.7,2.8,3.6,4.4,6.4,3.7L52,83.4L16.3,47.6L26.2,84.8z"/>
<path class="st0" d="M44.6,41.2c-0.3-0.6-0.7-1.1-1.2-1.5l-1.5-1.5c-0.5-0.4-1-0.7-1.5-1s-1.1-0.4-1.6-0.4c-0.6,0-1.2,0.1-1.8,0.3
	s-1.2,0.6-1.6,1c-0.5,0.4-0.9,1-1,1.6c-0.2,0.6-0.2,1.2-0.1,1.8c0.1,0.6,0.3,1.1,0.6,1.6c0.3,0.6,0.7,1.1,1.2,1.5l1.5,1.5
	c0.4,0.4,0.9,0.8,1.5,1c0.5,0.3,1.1,0.4,1.6,0.4c0.6,0,1.2-0.1,1.8-0.3c0.7-0.2,1.2-0.6,1.6-1.2c0.4-0.5,0.8-1,1-1.6
	s0.2-1.2,0.1-1.8C45,42.2,44.8,41.7,44.6,41.2z"/>
<path class="st0" d="M93,43.7L50.4,1H20.1c-3.8,0-7,3.1-7,6.9l0,0v30.3l42.6,42.6c2,2,5.3,2.1,7.3,0.1c0,0,0.1,0,0.1-0.1L93,51
	c2-1.9,2.1-5.1,0.2-7.1C93.1,43.9,93,43.8,93,43.7z M28.9,16.7c-2.2,1.9-5.5,1.8-7.4-0.4c-1.8-2-1.8-5,0-7c2-2,5.3-2.1,7.3-0.1
	c0,0,0.1,0,0.1,0.1C30.8,11.4,30.8,14.6,28.9,16.7z M48.2,45.7c-0.5,1.1-1.1,2.1-1.9,3c-0.8,0.9-1.8,1.6-2.8,2.1
	c-1,0.4-2,0.6-3.1,0.6c-1,0-2-0.2-3-0.6c-1-0.4-1.9-1-2.7-1.8l-1.5-1.5c-0.8-0.8-1.5-1.7-1.9-2.7c-0.5-0.9-0.7-1.9-0.7-3
	s0.2-2.1,0.4-3.1c0.5-1.1,1.1-2.1,1.9-3c0.8-0.9,1.8-1.6,2.8-2.1c1-0.4,2-0.6,3.1-0.6c1,0,2,0.2,3,0.6c1,0.4,1.9,1,2.7,1.8l1.5,1.5
	c0.8,0.7,1.4,1.6,1.9,2.5s0.7,1.9,0.7,3C48.8,43.5,48.6,44.6,48.2,45.7z M59.5,62.5c-0.8,0.2-1.5-0.1-2-0.8l-8.9-35.6
	c0-0.8,0.5-1.5,1.2-1.7c0.8-0.2,1.6,0.3,2,1L60.7,61C60.8,61.7,60.2,62.3,59.5,62.5L59.5,62.5z M77.9,47.3c-0.5,1.1-1.1,2.1-1.9,3
	s-1.8,1.6-2.8,2.1c-1,0.4-2,0.6-3.1,0.6c-1,0-2-0.2-3-0.6c-1-0.5-1.9-1.1-2.7-1.8l-1.5-1.5c-0.8-0.8-1.5-1.7-1.9-2.7
	c-0.5-0.9-0.7-1.9-0.7-3s0.2-2.1,0.4-3.1c0.5-1.1,1.1-2.1,1.9-3c0.8-0.9,1.8-1.6,2.8-2.1c1-0.4,2-0.6,3.1-0.6c1,0,2,0.2,3,0.6
	c1,0.4,1.9,1,2.7,1.8l1.5,1.5c0.8,0.8,1.5,1.7,1.9,2.7c0.5,0.9,0.7,1.9,0.7,3C78.5,45.2,78.3,46.3,77.9,47.3z"/>
<path class="st0" d="M73.1,41.4l-1.5-1.5c-0.5-0.4-1-0.7-1.5-1s-1.1-0.4-1.6-0.4c-0.6,0-1.2,0.1-1.8,0.3c-0.6,0.2-1.2,0.6-1.6,1
	c-0.4,0.5-0.8,1-1,1.6s-0.2,1.2-0.1,1.8c0,0.6,0.2,1.2,0.6,1.6c0.3,0.6,0.7,1.1,1.2,1.5l1.5,1.5c0.5,0.4,1,0.7,1.5,1
	s1.1,0.4,1.6,0.4c0.6,0,1.2-0.1,1.8-0.3c0.7-0.2,1.2-0.6,1.6-1.2c0.4-0.5,0.8-1,1-1.6c0.1-0.5,0.2-1.1,0.1-1.6
	c-0.1-0.6-0.3-1.1-0.6-1.6C74,42.3,73.6,41.8,73.1,41.4z"/>
</svg>
