<svg xmlns="http://www.w3.org/2000/svg" width="97.021" height="101.884" viewBox="0 0 97.021 101.884">
  <g id="Group_3269" data-name="Group 3269" transform="translate(-2210.399 -161.368)">
    <path id="Path_771" data-name="Path 771" d="M2253.071,183.8h-20.333a5.071,5.071,0,0,0-4.672,3.093l-4.993,11.734h35.254A25.718,25.718,0,0,1,2253.071,183.8Z" transform="translate(2.446 4.329)" fill="none"/>
    <path id="Path_772" data-name="Path 772" d="M2273.235,166.075a20.375,20.375,0,1,0,20.376,20.375A20.4,20.4,0,0,0,2273.235,166.075Zm0,32.449a3,3,0,1,1,3-3A3,3,0,0,1,2273.235,198.524Zm6.989-7.95-.422-.409a9.652,9.652,0,0,0-13.126.072l-.421.42-2.639-2.639.209-.521.134-.1a13.28,13.28,0,0,1,18.616-.021l.43.421Zm5.81-5.812-.422-.415a17.552,17.552,0,0,0-24.75.076l-.422.421-2.782-2.783.422-.421a21.484,21.484,0,0,1,30.309-.082l.426.422Z" transform="translate(8.194 0.908)" fill="none"/>
    <path id="Path_773" data-name="Path 773" d="M2281.2,216.589l11.553-3.207a28.957,28.957,0,0,0-1.874-6.855l-1.149-2.7a25.567,25.567,0,0,1-24.522-2.889h-43.375l-2.379,5.59a29.015,29.015,0,0,0-1.875,6.868l11.61,3.225,1.217,6.167-13.288-3.69v20.069h16.264l2.783-5.614h38.052l1.11,5.614h17.887V219.082l-13.233,3.674Zm-7,6.481h-38.019l-1.11-5.615h40.237Z" transform="translate(1.297 7.636)" fill="none"/>
    <path id="Path_774" data-name="Path 774" d="M2233.278,220.4H2271.3l1.109-5.615h-40.236Z" transform="translate(4.201 10.308)" fill="#010101"/>
    <path id="Path_775" data-name="Path 775" d="M2296.017,208.851a25.975,25.975,0,1,0-40.089-26.334h-18.441V175.4h-5.616v7.672a10.665,10.665,0,0,0-6.524,5.954l-5.414,12.722-3.611-1a4.767,4.767,0,0,0-5.871,3.319,1.443,1.443,0,0,0,1,1.775l6.025,1.674-1.893,4.451a34.685,34.685,0,0,0-2.786,13.656v37.631h11.229V252.417H2288.9v10.835h11.229V225.62a34.694,34.694,0,0,0-2.786-13.656Zm-65.5-17.626a5.07,5.07,0,0,1,4.671-3.093h20.333a25.72,25.72,0,0,0,5.256,14.827H2225.52Zm64,55.577h-17.888l-1.109-5.614h-38.052l-2.783,5.614h-16.264V226.732l13.288,3.69-1.217-6.167-11.61-3.225a29,29,0,0,1,1.875-6.868l2.379-5.59h43.375a25.567,25.567,0,0,0,24.521,2.889l1.149,2.7a28.944,28.944,0,0,1,1.874,6.855l-11.553,3.207-1.218,6.168,13.233-3.674Zm-13.083-39.068a20.375,20.375,0,1,1,20.376-20.376A20.4,20.4,0,0,1,2281.429,207.734Z" transform="translate(0 0)" fill="#010101"/>
    <path id="Path_776" data-name="Path 776" d="M2271.538,180.743a13.206,13.206,0,0,0-9.321,3.819l-.134.1-.209.521,2.639,2.639.421-.42a9.652,9.652,0,0,1,13.126-.072l.422.409,2.781-2.782-.43-.421A13.214,13.214,0,0,0,2271.538,180.743Z" transform="translate(9.934 3.739)" fill="#010101"/>
    <path id="Path_777" data-name="Path 777" d="M2287.612,180.058a21.484,21.484,0,0,0-30.309.082l-.422.421,2.782,2.783.422-.421a17.552,17.552,0,0,1,24.75-.076l.422.415,2.781-2.782Z" transform="translate(8.97 2.408)" fill="#010101"/>
    <path id="Path_778" data-name="Path 778" d="M2270.425,188.239a3,3,0,1,0,3,3A3,3,0,0,0,2270.425,188.239Z" transform="translate(11.004 5.185)" fill="#010101"/>
  </g>
</svg>
