<svg xmlns="http://www.w3.org/2000/svg" width="80.901" height="105.641" viewBox="0 0 80.901 105.641">
  <g id="Group_3281" data-name="Group 3281" transform="translate(-146.049 -211)">
    <path id="Polygon_1" data-name="Polygon 1" d="M9.5,0,19,16H0Z" transform="translate(197 237) rotate(180)" fill="#010101"/>
    <g id="Group_3280" data-name="Group 3280">
      <g id="Group_3274" data-name="Group 3274" transform="translate(-1907.507 -641.49)">
        <path id="Path_782" data-name="Path 782" d="M2062.406,910.964a26.422,26.422,0,0,0-1.71,6.259l10.582,2.938,1.11,5.621-12.11-3.363v18.291H2075.1l2.537-5.117h15.785v-9.553h-15.77l-1.01-5.118h16.78V905.869h-28.848Z" transform="translate(0.587 2.427)" fill="none"/>
        <path id="Path_783" data-name="Path 783" d="M2070.781,891.553l-4.551,10.695h26.67V888.734h-17.862A4.621,4.621,0,0,0,2070.781,891.553Z" transform="translate(1.106 0.932)" fill="none"/>
        <path id="Path_784" data-name="Path 784" d="M2076.337,924.833h15.77v-5.117h-16.781Z" transform="translate(1.9 3.636)" fill="#010101"/>
        <path id="Path_785" data-name="Path 785" d="M2078.222,938.022l-2.537,5.117h-14.822V924.847l12.11,3.363-1.11-5.621-10.581-2.938a26.433,26.433,0,0,1,1.71-6.259l2.167-5.1h28.848v-5.117h-26.67l4.551-10.695a4.621,4.621,0,0,1,4.258-2.819h17.862v-5.117h-15.763v-6.487h-5.117v6.992a9.723,9.723,0,0,0-5.948,5.427l-4.933,11.595-3.291-.914a4.345,4.345,0,0,0-5.35,3.026,1.315,1.315,0,0,0,.914,1.618l5.491,1.525-1.725,4.057a31.619,31.619,0,0,0-2.539,12.446v34.3h10.234v-9.875h28.027V938.022Z" fill="#010101"/>
        <g id="Group_3273" data-name="Group 3273" transform="translate(2094.007 878.062)">
          <path id="Path_786" data-name="Path 786" d="M2121.776,910.964a26.432,26.432,0,0,1,1.709,6.259l-10.582,2.938-1.11,5.621,12.111-3.363v18.291h-14.823l-2.537-5.117H2090.76v-9.553h15.77l1.011-5.118H2090.76V905.869h28.848Z" transform="translate(-2090.76 -875.635)" fill="none"/>
          <path id="Path_787" data-name="Path 787" d="M2112.88,891.553l4.551,10.695H2090.76V888.734h17.862A4.621,4.621,0,0,1,2112.88,891.553Z" transform="translate(-2090.76 -877.13)" fill="none"/>
          <path id="Path_788" data-name="Path 788" d="M2106.53,924.833h-15.77v-5.117h16.78Z" transform="translate(-2090.76 -874.426)" fill="#010101"/>
          <path id="Path_789" data-name="Path 789" d="M2106.545,938.022l2.537,5.117H2123.9V924.847l-12.111,3.363,1.11-5.621,10.582-2.938a26.432,26.432,0,0,0-1.709-6.259l-2.168-5.1H2090.76v-5.117h26.671l-4.551-10.695a4.621,4.621,0,0,0-4.258-2.819H2090.76v-5.117h15.764v-6.487h5.118v6.992a9.722,9.722,0,0,1,5.947,5.427l4.934,11.595,3.292-.914a4.343,4.343,0,0,1,5.349,3.026,1.314,1.314,0,0,1-.914,1.618l-5.49,1.525,1.725,4.057a31.615,31.615,0,0,1,2.539,12.446v34.3h-10.235v-9.875H2090.76V938.022Z" transform="translate(-2090.76 -878.062)" fill="#010101"/>
        </g>
      </g>
      <rect id="Rectangle_751" data-name="Rectangle 751" width="5" height="14" transform="translate(185 211)" fill="#1d242b"/>
    </g>
  </g>
</svg>
