<svg id="not_interested_black_24dp" xmlns="http://www.w3.org/2000/svg" width="25.02" height="25.02" viewBox="0 0 25.02 25.02">
  <path id="Path_728" data-name="Path 728" d="M0,0H25.02V25.02H0Z" fill="none"/>
  <path id="Path_729" data-name="Path 729" d="M12.425,2A10.425,10.425,0,1,0,22.85,12.425,10.429,10.429,0,0,0,12.425,2Zm0,18.765a8.338,8.338,0,0,1-8.34-8.34A8.238,8.238,0,0,1,5.847,7.317L17.533,19A8.238,8.238,0,0,1,12.425,20.765ZM19,17.533,7.317,5.847a8.238,8.238,0,0,1,5.108-1.762,8.338,8.338,0,0,1,8.34,8.34A8.238,8.238,0,0,1,19,17.533Z" transform="translate(0.085 0.085)" fill="#2163be"/>
</svg>
