<svg xmlns="http://www.w3.org/2000/svg" width="24.979" height="17.498" viewBox="0 0 24.979 17.498">
  <g id="Group_652" data-name="Group 652" transform="translate(101.562 71.793)">
    <g id="Group_102" data-name="Group 102" transform="translate(-101.562 -65.959)">
      <path id="Path_200" data-name="Path 200" d="M-92-56.644a2.074,2.074,0,0,1-1.473-.61l-7.481-7.482a2.081,2.081,0,0,1,0-2.947,2.082,2.082,0,0,1,2.945,0l7.481,7.482a2.081,2.081,0,0,1,0,2.947A2.073,2.073,0,0,1-92-56.644Z" transform="translate(101.562 68.293)" fill="#52bf28"/>
    </g>
    <g id="Group_103" data-name="Group 103" transform="translate(-94.08 -71.793)">
      <path id="Path_201" data-name="Path 201" d="M-94.99-54.295a2.069,2.069,0,0,1-1.473-.612,2.082,2.082,0,0,1,0-2.945l13.331-13.331a2.082,2.082,0,0,1,2.945,0,2.081,2.081,0,0,1,0,2.947L-93.518-54.907A2.068,2.068,0,0,1-94.99-54.295Z" transform="translate(97.073 71.793)" fill="#52bf28"/>
    </g>
  </g>
</svg>
