<?xml version="1.0" encoding="UTF-8"?>
<svg xmlns="http://www.w3.org/2000/svg" viewBox="0 0 65.87 202">
    <g>
        <path
            d="m37.11,0l.91,34.03s12.49,6.34,16.47,9.23,9.05,9.23,10.5,13.03.91,5.61,0,7.06-2.9,2.17-6.15.91-21.72-7.6-21.72-7.6c0,0,2.35,35.11,3.26,56.83s1.09,34.39,1.09,34.39c0,0,2.17,2.35,2.72,4.89s.91,7.78.72,14.3.91,10.14.18,13.21-.91,4.34-2.53,5.07-2.72.91-2.72.91v4.34l-5.25,1.63h-8.87s-9.41,4.34-25.7,9.77c0,0,.72-31.31,1.63-48.87s2.72-47.24,5.61-62.81S20.9,2.04,20.9,2.04l4.64.65,2.12-1.99,3.85.4,5.59-1.1Z" />
    </g>
</svg>