<svg xmlns="http://www.w3.org/2000/svg" xmlns:xlink="http://www.w3.org/1999/xlink" width="89.505" height="34.738" viewBox="0 0 89.505 34.738">
  <defs>
    <clipPath id="clip-path">
      <rect id="Rectangle_1190" data-name="Rectangle 1190" width="89.505" height="34.738" transform="translate(0 0)" />
    </clipPath>
  </defs>
  <g id="Group_3768" data-name="Group 3768" transform="translate(0 0)" style="mix-blend-mode: hard-light;isolation: isolate">
    <g id="Group_3767" data-name="Group 3767" clip-path="url(#clip-path)">
      <path id="Path_1060" data-name="Path 1060" d="M86.975,23.25c-.531-.6-.465-1.127-.863-2.452l-.4-3.115a30.91,30.91,0,0,0-1.193-4.97c-.2-.662-3.108-6.9-3.459-7.723a13.074,13.074,0,0,0-.941-1.8C78.929,1.336,78.333.367,76.875.122a28.662,28.662,0,0,0-7.09.286C66.4.806,50.1,1.631,44.137,1.667c0,0-8.35.266-18.291-.463S12.917.1,11.664.342a5.513,5.513,0,0,0-3.91,2.783C7.025,4.716,3.91,10.349,2.983,13.464a30.91,30.91,0,0,0-1.193,4.97l-.4,3.115C.994,22.874,1.061,23.405.531,24L0,24.6s2.055,2.784,2.717,3.645.8,2.453,2.916,2.983,7.887,1.524,14.05,2.319,17.43,1.193,21.141,1.193,10.736-.2,13.718-.464c1.1-.1,3.093-.278,5.43-.512,1.415-.088,2.77-.25,4.046-.426l.089-.01h0c1.343-.186,2.594-.386,3.716-.531C73.985,32,79.75,31,81.871,30.474s2.253-2.121,2.916-2.983,2.993-3.433,2.993-3.433Z"/>
    </g>
  </g>
</svg>
