<svg xmlns="http://www.w3.org/2000/svg" xmlns:xlink="http://www.w3.org/1999/xlink" width="91.465" height="63.562" viewBox="0 0 91.465 63.562">
  <defs>
    <clipPath id="clip-path">
      <rect id="Rectangle_1185" data-name="Rectangle 1185" width="91.465" height="63.562" transform="translate(0 0)" />
    </clipPath>
  </defs>
  <g id="Group_3762" data-name="Group 3762" transform="translate(0 0)" style="mix-blend-mode: hard-light;isolation: isolate">
    <g id="Group_3761" data-name="Group 3761" clip-path="url(#clip-path)">
      <path id="Path_1057" data-name="Path 1057" d="M10,61.447s24.639-6.95,35.559-6.605a129.211,129.211,0,0,1,23.518,2.771c4,.928,11.766,2.909,13.794,3.744a10.909,10.909,0,0,1,2.84,1.53,1.231,1.231,0,0,0,1.623-.405,19.427,19.427,0,0,0,2.55-3.42,26.733,26.733,0,0,0,1.565-7.882c.116-3.478-.348-13.562-.637-16.692a54.311,54.311,0,0,0-2.087-10.665,56.164,56.164,0,0,0-5.8-12c-2.434-3.477-4.347-6.2-7.187-7.245S70.871,2.9,69.248,2.437A86.574,86.574,0,0,0,50.238.061c-9.273-.116-10.9-.116-17.329.463A57.32,57.32,0,0,0,16.8,4.176c-3.652,1.564-6.665,3.361-9.215,8a54.389,54.389,0,0,0-5.506,13.04A45.3,45.3,0,0,0,.569,35.705C.337,40.11.047,48.456.047,51.122s-.29,4.115.578,5.564,3.826,5.448,4.232,5.97.928,1.333,1.854.637A23.024,23.024,0,0,1,9.79,61.531" />
    </g>
  </g>
</svg>
